<svg xmlns="http://www.w3.org/2000/svg" width="1024" height="1024"><path fill="#FEFEFE" d="M0 0h1024v1024H0zm252.867 42.808c-.997 1.042-2.059 1.964-2.304 3.45-1.968 11.933-1.288 24.548-2.226 36.59-.601 7.719-1.707 15.402-2.404 23.115-1.428 15.813-2.616 31.613-4.177 47.421-.899 9.102-2.488 18.147-3.531 27.243a3164 3164 0 0 1-13.47 107.228 5943 5943 0 0 1-35.958 233.715c-5.798 33.719-12.489 67.389-18.937 100.993-3.076 16.034-7.36 32.858-9.044 49.048-13.171-.158-26.35-.007-39.512-.553-6.124-.254-12.283-1.376-18.38-1.482-1.277-.023-1.339.079-2.283.882-.978 2.32-2.294 11.17-1.47 13.434.223.617.573 1.141 1.2 1.32 4.829 1.383 10.653 1.266 15.659 1.617 10.672.747 21.34 1.311 32.004 2.2-1.052 23.333-3.288 46.858 6.741 68.756 2.647 5.781 6.199 11.225 9.523 16.636 6.374 10.379 13.387 20.665 21.625 29.675 4.419 4.834 8.907 9.347 14.083 13.382-3.54 8.037-9.774 12.552-17.792 15.627-14.338 5.499-30.61 1.866-44.125-4.31-11.064-5.057-21.75-11.312-32.147-17.61-4.851-2.939-9.676-6.332-14.711-8.899-1.397-.712-2.642-1.242-4.235-1.236-1.252 1.096-1.596 2.348-1.898 3.968-1.57 8.407-1.397 17.373-2.347 25.896-.609 5.458-2.056 10.721-2.404 16.207-.579 9.123-1.521 17.867-2.843 26.919-.194 1.329-1.464 6.782-.98 7.952.198.477.628.822.941 1.233 7.67 1.573 15.158.989 22.927 1.002a547 547 0 0 1 25.863.664c14.944.735 29.834 2.36 44.755 3.355 17.194 1.146 34.476 1.482 51.701 1.959 9.812.272 19.982 1.2 29.757.665 9.504-.52 18.663-3.061 28.077-4.068 3.436-.368 11.65-5.872 13.334-5.628.209 2.495.274 5.017-1.477 7.002-5.43 6.152-19.248 8.073-26.99 8.328-18.142.598-36.516.015-54.663-.395l-89.159-2.519-31.641-.907c-3.499-.077-7.346-.515-10.804-.371-1.321.055-2.925.727-3.782 1.759-.841 1.014-.845 1.66-.826 2.875.947 1.377 1.6 1.962 3.275 2.307 6.768 1.397 14.672 1.057 21.61 1.279q21.41.712 42.829 1.102a3641 3641 0 0 0 84.894 2.094c15.004.211 30.606 1.085 45.525-.497 7.037-.746 14.246-2.781 20.099-6.883 4.04-2.831 6.865-6.445 7.81-11.363 1.013-5.275-.793-10.177-3.823-14.451-9.827-13.861-25.522-21.481-39.784-29.74-6.334-3.668-12.437-7.731-18.774-11.401-13.167-7.624-28.089-15.029-39.495-25.146a139.4 139.4 0 0 1-23.886-28.206c-3.505-5.511-6.595-11.311-10.227-16.734 30.516.579 61.216-2.237 91.754-2.743 25.384-.421 50.771.237 76.154-.338 5.32-.121 10.717.116 16.02-.194-.121 8.432-.984 16.819-1.496 25.232a1828 1828 0 0 1-4.89 61.065c-1.725 16.315-3.827 32.753-4.548 49.147-.078 1.777-.351 4.298.986 5.631.898.895 1.586 1.369 2.884 1.335 6.298-.167 12.571-1.035 18.878-1.279a1336 1336 0 0 1 82.095-1.417c3.997.068 19.035 1.476 21.717-1.357 1.129-1.194 1.207-2.519 1.33-4.092.852-10.91.138-21.958.476-32.892.252-8.141 1.117-16.255 1.36-24.389.195-6.536-.352-13.08-.189-19.621.471-18.887 1.72-37.927 3.092-56.771 9.053-.044 18.626-.084 27.629.855 1.134 11.025.478 22.104.634 33.167.114 8.128.684 16.234.848 24.355.259 12.842.139 71.829 4.424 79.707 3.409 1.589 22.049-.159 27.424-.223 10.218-.123 20.445.386 30.664.28 11.117-.114 22.225-.907 33.345-.754 7.844.108 24.155 2.396 30.481.916 1.839-1.966 1.603-3.539 1.525-6.07-.219-7.045-1.071-14.115-1.549-21.151-1.516-22.342-3.539-44.585-5.269-66.905-1.09-14.068-.684-28.209-1.834-42.275 24.21-.681 48.73 1.296 72.953 1.737 23.605.429 47.016.984 70.592 2.195 10.918.56 21.829.505 32.674 2.144-3.484 5.631-6.771 11.592-10.662 16.941-7.1 9.761-17.21 18.083-26.881 25.237-7.907 5.85-16.674 12.165-25.294 16.842-17.594 9.547-81.02 35.542-75.516 60.142 1.2 5.36 6.096 9.62 10.644 12.276 10.949 6.395 24.671 8.665 37.126 10.049 14.727 1.637 29.546 1.333 44.332 1.635l64.22 1.294c40.712.644 81.718 3.701 122.318-.492 3.287-.339 7.985-.015 10.992-1.085 1.371-.488 2.316-1.395 2.926-2.714 1.668-3.609-2.292-31.055-2.914-37.384l-13.638-128.238c-1.856-18.274-1.752-39.678-4.986-57.264 3.094-1.062 7.188-1.835 8.733-5.034.869-1.798.692-4.349.57-6.285-.597-9.508-2.045-18.93-2.748-28.422a3045 3045 0 0 1-6.4-104.602c-1.308-30.984-4.192-62.014-6.018-92.991-1.397-23.685-1.15-47.535-2.466-71.232-.673-12.119-2.496-24.177-3.272-36.298-.807-12.593-.629-25.294-1.331-37.907-1.836-32.999-4.04-65.979-5.027-99.028l-3.71-101.853c-.263-5.864.273-23.58-1.694-27.9-.604-1.328-1.152-1.735-2.411-2.404-1.275.116-1.596.18-2.492 1.228-1.459 1.708-1.622 5.304-1.687 7.422-.454 14.893 1.21 29.932 1.717 44.823l2.033 73.994c.589 16.993 2.054 34.021 2.271 51.023.072 17.705 1.819 35.241 2.899 52.882l4.303 75.994c1.146 20.627 1.016 41.363 2.2 61.987l15.543 235.875c-31.393 6.572-72.459 7.606-104.614 6.603-8.475-.264-16.982-1.646-25.417-1.762-2.243-12.39-3.852-24.894-5.788-37.334l-16.07-109.094-12.44-83.376c-1.57-10.558-3.504-21.059-4.834-31.652a2464 2464 0 0 1-10.232-106.989 2565 2565 0 0 1-8.723-144.522c-.294-11.039-.112-22.064-.248-33.105-.129-10.545-.561-21.072-.582-31.62-.022-10.571.947-25.522-.587-35.544-.316-2.067-.895-3.451-2.549-4.778-1.528-.37-1.65-.368-3.113.203-.972 1.104-1.613 2.029-1.727 3.555-.361 4.828.096 10.07.072 14.957q-.004 24.324.657 48.639c.209 11.334.026 22.68.237 34.019a2971 2971 0 0 0 3.297 82.588 4940 4940 0 0 0 14.231 164.234c3.069 27.304 7.878 54.512 11.946 81.689l14.33 98.968 9.423 62.435c1.536 10.212 2.357 21.23 4.91 31.213a5.94 5.94 0 0 0 1.672 2.878c2.236 2.132 10.985 1.853 11.527 2.902.176.342.268 1.818.304 2.226 1.203 13.544 1.744 28.994-.376 42.446-1.367 8.677-3.834 17.077-6.124 25.538-5.912.327-11.723-.492-17.62-.736-5.976-.248-11.976-.104-17.947-.439-9.627-.539-19.142-1.475-28.801-1.689l-81.895-1.581c-10.729-.273-22.056.288-32.698-.767L603.9 568.395c-.953-12.022-1.607-24.052-2.73-36.063-1.211-12.966-2.898-25.877-4.265-38.825-1.013-9.589-.65-16.958-2.787-26.733 14.557 6.546 30.682 14.734 46.872 8.361 7.309-2.877 13.865-9.276 16.872-16.53 9.011-21.731-1.79-60.038-10.627-80.905-5.701-13.464-12.412-26.212-19.461-39.016 1.011-1.354 1.987-2.659 2.79-4.148-.577-2.008-1.148-4.009-2.197-5.831-5.581-9.696-22.302-28.03-30.583-36.302-2.373-2.37-12.296-10.271-12.904-12.403-.744-2.607-.016-7.187-.135-10.041-.228-5.453-1.37-11.39-2.945-16.605-4.475-14.806-12.352-20.95-13.661-37.945-.824-10.71 1.351-21.31 2.618-31.901 2.99-24.994 4.106-49.516-14.193-69.079-4.588-4.905-9.913-9.376-15.793-12.655-10.785-6.012-24.56-9.202-36.864-9.279-4.842-.03-9.667.626-14.499.582-10.782-.098-20.013-.594-30.577 2.516-19.59 5.768-34.47 17.821-44.024 35.758-13.604 25.54-2.376 50.088-6.604 76.608-1.739 10.908-6.913 19.81-10.902 29.885-3.705 9.355-4.57 19.568-4.14 29.558-13.046 8.857-26.775 16.538-38.637 27.085-4.497 3.998-8.501 8.606-12.49 13.101-2.375 2.676-6.25 6.603-7.009 10.203-.5 2.366.467 3.794 1.579 5.799l-.298.689c-2.714 6.181-7.031 11.8-10.774 17.389a353 353 0 0 0-10.738 17.133c-12.367 20.743-31.592 65.73-22.665 89.639 3.078 8.241 9.535 14.088 17.45 17.579 12.907 5.693 29.712 4.516 42.647-.547 6.124-2.397 11.299-6.367 17.117-9.315-.887 9.325-2.155 18.774-2.589 28.124-.387 8.332.108 16.385-.449 25.012l-7.372 105.396c-.951 13.771-2.509 27.429-3.697 41.172a2988 2988 0 0 0-6.661 94.883c-37.755.124-75.662-.255-113.399.833-12.813.37-25.668 1.209-38.48 1.763-11.488.498-23.038.066-34.502.939-11.011-21.043-7.384-51.796-4.321-74.689 2.211-.006 6.33.288 8.075-1.173 1.335-1.118 2.172-3.867 2.623-5.477 2.253-8.043 3.098-16.985 4.599-25.241l8.865-47.624c2.038-11.371 4.564-22.6 6.79-33.927 3.396-17.286 6.477-34.698 9.458-52.061a5809 5809 0 0 0 48.162-333.507 1616 1616 0 0 0 10.336-110.376c.426-7.49 2.124-15.915 1.414-23.335-.133-1.387-.582-2.403-1.744-3.263-1.05-.777-2.345-.739-3.584-.798m117.519 163.281c-5.682 2.091-11.256 4.243-16.481 7.353-10.791 6.424-31.948 24.73-37.104 36.745-.424.989-.539 1.741-.292 2.784.473.423.607.763 1.283.743.813-.024 1.313-.335 2.013-.702 9.602-11.935 18.937-22.931 31.466-31.985 2.605-1.882 5.259-3.709 8.137-5.152 3.592-1.802 13.999-4.486 15.77-7.879-.141-1.287-.155-1.222-1.145-2.069-1.33-.112-2.348-.054-3.647.162m7.519 16.832c-27.284 11.846-53.277 35.156-64.282 63.03-1.371 3.472-4.724 9.701-3.5 13.187.855.79 1.517 1.119 2.606 1.52.088-.118.179-.233.264-.352 3.297-4.629 4.985-11.605 7.283-16.873 6.026-13.814 16.941-26.578 28.348-36.241 4.877-4.131 10.011-7.81 15.394-11.249 4.767-3.046 11.246-5.928 15.129-9.963.883-.917.998-1.339.911-2.576-.813-.453-1.227-.518-2.153-.483m228.049.073c-.204 1.501-.464 1.975.277 3.335 4.027 2.22 8.264 3.981 12.324 6.126 11.948 6.312 22.418 15.373 28.231 27.773 1.384 2.954 2.984 8.37 5.011 10.723.547.634 1.74.716 2.501.749 1.38-2.517 1.436-3.79.646-6.534-4.751-16.506-20.128-29.792-34.73-37.587-4.441-2.371-9.129-4.613-14.26-4.585m-17.375 6.891c-.02 1.545-.309 2.461.829 3.698 2.886 3.138 8.476 4.649 11.943 7.429 13.922 11.164 25.919 26.665 33.389 42.845 2.323 5.032 4.057 9.701 5.19 15.133.591 2.836.917 5.913 1.8 8.663.38 1.185.483 1.31 1.513 1.897.836-.196 1.685-.369 2.511-.6 2.615-6.738-2.852-20.118-5.602-26.415-8.01-18.346-27.186-43.795-46.43-51.451-1.708-.68-3.321-1.028-5.143-1.199M261.862 416.758c-4.121 7.416-.815 21.106 1.418 28.871 7.744 26.926 25.546 47.115 49.856 60.431 1.511.828 2.89 1.524 4.558 1.992.858-1.044 1.255-1.158 1.34-2.551-5.144-5.5-12.064-8.621-18.059-13.043-15.851-11.694-27.556-30.74-33.306-49.311-1.527-4.931-2.897-10.11-3.338-15.27-.234-2.739.232-5.949-.402-8.589-.357-1.487-.733-1.874-2.067-2.53m418.883 17.955c-.424.781-.902 1.565-.929 2.48-.129 4.357 1.94 10 2.743 14.367 1.014 5.516 1.483 11.675 1.498 17.289.015 5.738-1.246 11.661-2.864 17.141-2.563 8.677-6.505 17.871-12.529 24.734-3.597 4.099-7.976 7.698-12.802 10.251-2.076 1.098-4.486 1.935-6.359 3.355-.732.555-1.076 1.061-1.366 1.946.575 1.168.77 1.408 2.094 1.856.537.181 1.396.172 1.94.208 11.849-3.636 22.402-14.709 28.039-25.435 9.685-18.429 12.58-41.243 6.017-61.25-.717-2.186-1.527-4.631-3.261-6.218zM250.39 445.162c-2.393 4.365.864 13.904 2.203 18.485 3.181 10.874 11.387 29.661 21.85 35.391.983.539 2.113.798 3.198 1.049.446-.976 1.221-1.865.579-2.929-1.942-3.222-5.656-6.237-8.046-9.265-7.945-10.065-11.689-20.641-14.85-32.895-.786-3.046-1.445-8.763-4.934-9.836m452.004 17.977c-2.471 5.015-.727 11.376-.982 16.854-.357 7.674-1.801 15.231-5.024 22.237-2.825 6.14-6.776 12.278-11.738 16.917-1.711 1.6-4.521 3.229-5.879 5.026-.817 1.081-.772 1.403-.623 2.651 1.147.966 1.809 1.263 3.373 1.344a56.58 56.58 0 0 0 23.87-36.313c.987-4.999 2.788-23.339-.156-27.272-.722-.965-1.705-1.172-2.841-1.444"/><path d="M160.816 671.611c1.684-16.19 5.968-33.014 9.044-49.048 6.448-33.604 13.139-67.274 18.937-100.993a5943 5943 0 0 0 35.958-233.715c5.1-35.663 9.591-71.411 13.47-107.228 1.043-9.096 2.632-18.141 3.531-27.243 1.561-15.808 2.749-31.608 4.177-47.421.697-7.713 1.803-15.396 2.404-23.114.938-12.043.258-24.658 2.226-36.592.245-1.485 1.307-2.407 2.304-3.45 1.239.06 2.534.022 3.584.799 1.162.86 1.611 1.876 1.744 3.263.71 7.42-.988 15.845-1.414 23.335a1616 1616 0 0 1-10.336 110.376 5809 5809 0 0 1-48.162 333.507c-2.981 17.363-6.062 34.775-9.458 52.061-2.226 11.327-4.752 22.556-6.79 33.927l-8.865 47.624c-1.501 8.256-2.346 17.198-4.599 25.241-.451 1.61-1.288 4.359-2.623 5.477-1.745 1.461-5.864 1.167-8.075 1.173-3.063 22.893-6.69 53.646 4.321 74.689 11.464-.873 23.014-.441 34.502-.939 12.812-.554 25.667-1.393 38.48-1.763 37.737-1.088 75.644-.709 113.399-.833a2988 2988 0 0 1 6.661-94.883c1.188-13.743 2.746-27.401 3.697-41.172l7.372-105.396c.557-8.627.062-16.68.449-25.012.434-9.35 1.702-18.799 2.589-28.124-5.818 2.948-10.993 6.918-17.117 9.315-12.935 5.063-29.74 6.24-42.647.547-7.915-3.491-14.372-9.338-17.45-17.579-8.927-23.909 10.298-68.896 22.665-89.639a353 353 0 0 1 10.738-17.133c3.743-5.589 8.06-11.208 10.774-17.389l.298-.689c-1.112-2.005-2.079-3.433-1.579-5.799.759-3.6 4.634-7.527 7.009-10.203 3.989-4.495 7.993-9.103 12.49-13.101 11.862-10.547 25.591-18.228 38.637-27.085-.43-9.99.435-20.203 4.14-29.558 3.989-10.075 9.163-18.977 10.902-29.885 4.228-26.52-7-51.068 6.604-76.608 9.554-17.937 24.434-29.99 44.024-35.758 10.564-3.11 19.795-2.614 30.577-2.516 4.832.044 9.657-.612 14.499-.582 12.304.077 26.079 3.267 36.864 9.279 5.88 3.279 11.205 7.75 15.793 12.655 18.299 19.563 17.183 44.085 14.193 69.079-1.267 10.591-3.442 21.191-2.618 31.901 1.309 16.995 9.186 23.139 13.661 37.945 1.575 5.215 2.717 11.152 2.945 16.605.119 2.854-.609 7.434.135 10.041.608 2.132 10.531 10.033 12.904 12.403 8.281 8.272 25.002 26.606 30.583 36.302 1.049 1.822 1.62 3.823 2.197 5.831-.803 1.489-1.779 2.794-2.79 4.148 7.049 12.804 13.76 25.552 19.461 39.016 8.837 20.867 19.638 59.174 10.627 80.905-3.007 7.254-9.563 13.653-16.872 16.53-16.19 6.373-32.315-1.815-46.872-8.361 2.137 9.775 1.774 17.144 2.787 26.733 1.367 12.948 3.054 25.859 4.265 38.825 1.123 12.011 1.777 24.041 2.73 36.063l14.755 184.823c10.642 1.055 21.969.494 32.698.767l81.895 1.581c9.659.214 19.174 1.15 28.801 1.689 5.971.335 11.971.191 17.947.439 5.897.244 11.708 1.063 17.62.736 2.29-8.461 4.757-16.861 6.124-25.538 2.12-13.452 1.579-28.902.376-42.446-.036-.408-.128-1.884-.304-2.226-.542-1.049-9.291-.77-11.527-2.902a5.94 5.94 0 0 1-1.672-2.878c-2.553-9.983-3.374-21.001-4.91-31.213l-9.423-62.435-14.33-98.968c-4.068-27.177-8.877-54.385-11.946-81.689a4940 4940 0 0 1-14.231-164.234 2971 2971 0 0 1-3.297-82.588c-.211-11.339-.028-22.685-.237-34.019q-.661-24.315-.657-48.639c.024-4.887-.433-10.129-.072-14.957.114-1.526.755-2.451 1.727-3.555 1.463-.57 1.585-.573 3.113-.203 1.654 1.327 2.233 2.711 2.549 4.778 1.534 10.022.565 24.973.587 35.544.021 10.548.453 21.075.582 31.62.136 11.041-.046 22.066.248 33.105a2565 2565 0 0 0 8.723 144.522 2464 2464 0 0 0 10.232 106.989c1.33 10.593 3.264 21.094 4.834 31.652l12.44 83.376 16.07 109.094c1.936 12.44 3.545 24.944 5.788 37.334 8.435.116 16.942 1.498 25.417 1.762 32.155 1.003 73.221-.031 104.614-6.603l-15.543-235.875c-1.184-20.624-1.054-41.36-2.2-61.987l-4.303-75.994c-1.08-17.641-2.827-35.177-2.899-52.882-.217-17.002-1.682-34.03-2.271-51.023l-2.033-73.994c-.507-14.891-2.171-29.93-1.717-44.823.065-2.118.228-5.714 1.687-7.422.896-1.048 1.217-1.112 2.492-1.228 1.259.67 1.807 1.076 2.411 2.403 1.967 4.322 1.431 22.037 1.694 27.901l3.71 101.853c.987 33.049 3.191 66.029 5.027 99.028.702 12.613.524 25.314 1.331 37.907.776 12.121 2.599 24.179 3.272 36.298 1.316 23.697 1.069 47.547 2.466 71.232 1.826 30.977 4.71 62.007 6.018 92.991a3045 3045 0 0 0 6.4 104.602c.703 9.492 2.151 18.914 2.748 28.422.122 1.936.299 4.487-.57 6.285-1.545 3.199-5.639 3.972-8.733 5.034 3.234 17.586 3.13 38.99 4.986 57.264l13.638 128.238c.622 6.329 4.582 33.775 2.914 37.384-.61 1.319-1.555 2.226-2.926 2.714-3.007 1.07-7.705.746-10.992 1.085-40.6 4.193-81.606 1.136-122.318.492l-64.22-1.294c-14.786-.302-29.605.002-44.332-1.635-12.455-1.384-26.177-3.654-37.126-10.049-4.548-2.656-9.444-6.916-10.644-12.276-5.504-24.6 57.922-50.595 75.516-60.142 8.62-4.677 17.387-10.992 25.294-16.842 9.671-7.154 19.781-15.476 26.881-25.237 3.891-5.349 7.178-11.31 10.662-16.941-10.845-1.639-21.756-1.584-32.674-2.144-23.576-1.211-46.987-1.766-70.592-2.195-24.223-.441-48.743-2.418-72.953-1.737 1.15 14.066.744 28.207 1.834 42.275 1.73 22.32 3.753 44.563 5.269 66.905.478 7.036 1.33 14.106 1.549 21.151.078 2.531.314 4.104-1.525 6.07-6.326 1.48-22.637-.808-30.481-.916-11.12-.153-22.228.64-33.345.754-10.219.106-20.446-.403-30.664-.28-5.375.064-24.015 1.812-27.424.223-4.285-7.878-4.165-66.865-4.424-79.707-.164-8.121-.734-16.227-.848-24.355-.156-11.063.5-22.142-.634-33.167-9.003-.939-18.576-.899-27.629-.855-1.372 18.844-2.621 37.884-3.092 56.771-.163 6.541.384 13.085.189 19.621-.243 8.134-1.108 16.248-1.36 24.389-.338 10.934.376 21.982-.476 32.892-.123 1.573-.201 2.898-1.33 4.092-2.682 2.833-17.72 1.425-21.717 1.357-27.373-.369-54.751.104-82.095 1.417-6.307.244-12.58 1.112-18.878 1.279-1.298.034-1.986-.44-2.884-1.335-1.337-1.333-1.064-3.854-.986-5.631.721-16.394 2.823-32.832 4.548-49.147a1828 1828 0 0 0 4.89-61.065c.512-8.413 1.375-16.8 1.496-25.232-5.303.31-10.7.073-16.02.194-25.383.575-50.77-.083-76.154.338-30.538.506-61.238 3.322-91.754 2.743 3.632 5.423 6.722 11.223 10.227 16.734a139.4 139.4 0 0 0 23.886 28.206c11.406 10.117 26.328 17.522 39.495 25.146 6.337 3.67 12.44 7.733 18.774 11.401 14.262 8.259 29.957 15.879 39.784 29.74 3.03 4.274 4.836 9.176 3.823 14.451-.945 4.918-3.77 8.532-7.81 11.363-5.853 4.102-13.062 6.137-20.099 6.883-14.919 1.582-30.521.708-45.525.497a3641 3641 0 0 1-84.894-2.094q-21.418-.39-42.828-1.102c-6.94-.222-14.843.118-21.611-1.279-1.675-.345-2.328-.93-3.275-2.307-.019-1.215-.015-1.861.826-2.875.857-1.032 2.461-1.704 3.782-1.759 3.459-.144 7.305.294 10.804.371l31.641.907 89.159 2.519c18.147.41 36.521.993 54.663.395 7.742-.255 21.56-2.176 26.99-8.328 1.751-1.985 1.686-4.507 1.477-7.002-1.684-.244-9.898 5.26-13.334 5.628-9.414 1.007-18.573 3.548-28.077 4.068-9.775.535-19.945-.393-29.757-.665-17.225-.477-34.507-.813-51.701-1.959-14.921-.995-29.811-2.62-44.755-3.355a547 547 0 0 0-25.863-.664c-7.77-.013-15.258.571-22.927-1.002-.313-.411-.743-.756-.94-1.233-.485-1.17.785-6.623.979-7.952 1.322-9.052 2.264-17.796 2.843-26.919.348-5.486 1.795-10.749 2.404-16.207.95-8.523.778-17.489 2.347-25.896.302-1.62.646-2.872 1.898-3.968 1.593-.006 2.838.524 4.235 1.236 5.035 2.567 9.86 5.96 14.711 8.899 10.397 6.298 21.083 12.553 32.147 17.61 13.515 6.176 29.787 9.809 44.125 4.31 8.018-3.075 14.252-7.59 17.792-15.627-5.176-4.035-9.664-8.548-14.083-13.382-8.238-9.01-15.251-19.296-21.625-29.675-3.324-5.411-6.876-10.855-9.523-16.636-10.029-21.898-7.793-45.423-6.741-68.756-10.664-.889-21.332-1.453-32.004-2.2-5.006-.351-10.83-.234-15.659-1.617-.627-.179-.977-.703-1.2-1.32-.824-2.264.492-11.114 1.47-13.434.944-.803 1.006-.905 2.283-.882 6.097.106 12.256 1.228 18.38 1.482 13.162.546 26.341.395 39.512.553m318.308-323.892c-6.588 6.214-24.363 23.302-31.99 25.992l-.473-.1.832-.111-.584-1.231c6.001-8.888 23.233-24.832 31.497-32.51 1.436-1.334 5.029-3.524 5.752-5.091.127-.275.121-.593.182-.89-.973-1.237-.977-1.281-2.503-1.635-8.803 2.047-31.399 32.393-39.609 31.463l-.729-.615c1.107-3.189 8.235-9.217 10.858-11.871 4.507-4.558 8.68-9.431 13.191-13.991 4.36-4.408 9.6-8.797 13.398-13.644.898-1.147 1.378-1.893 1.401-3.35l-.9-.989c-2.657.03-4.323 1.795-6.11 3.599-5.291 5.342-10.668 10.503-16.022 15.784-6.792 6.699-13.027 13.44-21.229 18.498 7.928-12.215 18.627-23.422 28.437-34.177 2.779-3.047 6.11-5.879 8.615-9.138.843-1.095 1.398-1.901 1.549-3.318-.554-1.16-.514-1.146-1.7-1.634-6.232.79-38.584 42.509-45.4 43.764-.391-.992-.212-1.186.21-2.131 4.283-9.601 24.841-30.956 24.887-39.547-.658-1.126-.627-1.094-1.873-1.485-7.927 2.093-28.658 34.532-33.596 35.845-.711-.76-.621-.379-.605-1.328.032-1.912 1.377-4.423 2.098-6.202 3.204-7.908 4.435-13.916 3.617-22.469-9.28 9.532-18.085 34.04-23.58 47.05-2.458 5.818-4.612 11.961-8.744 16.846-9.44 11.159-25.567 20.392-37.294 29.369-3.391 2.596-13.762 12.635-17.489 12.383-.177-.012-.347-.07-.521-.104-.531-1.131-.494-1.825-.101-3.029 2.407-7.378 30.415-24.512 37.51-30.429.478-8.206 1.575-16.559 1.448-24.768-10.799-11.01-21.88-22.547-31.647-34.497-10.38 14.502-20.741 29.609-28.968 45.463-8.909 17.171-20.301 48.161-17.019 67.333 1.221 7.127 4.817 13.334 10.832 17.497 8.807 6.096 22.189 7.001 32.427 4.991 5.588-1.097 11.179-3.179 16.17-5.913 21.84-11.964 39.663-28.128 58.667-43.883 16.652-13.806 32.773-27.244 47.962-42.692 5.808-5.906 12.112-12.323 16.628-19.313a13 13 0 0 0 1.486-3.076c1.667-1.976 4.307-3.141 6.165-5.077.269-.941.528-1.029.045-1.931-2.854.754-5.255 4.152-7.178 6.292m-3.739-226.909c-10.73 15.861-22.038 24.621-37.24 35.898-3.951 2.932-8.328 5.105-11.873 8.562-.236.229-.476.454-.71.685-.14.139-.274.284-.411.426 1.167 5.846 1.564 11.71 2.422 17.596 1.425 9.782 3.167 19.526 4.731 29.288.938 5.86 1.396 12.445 3.416 18.012 1.12 3.089 2.489 5.687 5.317 7.493 4.387 2.799 19.159 3.975 20.684 7.964-.702 1.117-1.605 1.532-2.855 1.84-2.003.492-4.639.021-6.69-.149-.381 3.605-.897 7.472-3.963 9.89-3.774 2.976-9.049 1.246-12.719 3.608.427 5.012 2.821 8.778 6.577 12.055 11.318 9.874 30.341 12.211 44.727 10.946 10.564-.929 22.474-2.705 29.527-11.564 1.451-1.821 2.516-3.887 3.336-6.061l1.38-4.65c-4.138-1.112-8.36-2.415-10.704-6.323-1.244-2.076-1.622-7.346-3.926-8.02-3.634-1.062-6.986 2.699-10.242-.503l-.433-1.665c3.428-4.671 15.473-3.24 20.703-6.157 2.668-1.488 5.071-4.85 6.547-7.449 4.821-8.49 5.732-18.326 9.049-27.349 7.139-.729 13.049-2.334 17.834-8.125 2.709-3.279 4.096-8.371 3.542-12.582-.291-2.207-1.246-4.461-3.073-5.823-3.974-2.963-16.795-4.579-22.183-6.326-5.512-1.788-10.175-5.948-15.5-7.592-.133.196-.263.395-.4.589-.465.66-.936 1.176-1.507 1.739-.487.054-.981.262-1.46.161-1.816-.384-4.381-2.082-6.166-2.863-2.948-1.291-5.946-2.365-9.02-3.318-2.97-.92-7.744-1.362-10.136-3.349-.866-.719-1.19-1.145-1.458-2.268.859-.956 1.408-1.104 2.704-1.167 7.303-.356 17.109 4.173 23.548 7.279-14.971-10.615-25.21-22.783-32.542-39.652-.289-.664-.207-.449-.833-1.076m-47.596 140.34c-22.54 3.479-48.548 19.352-65.625 34.079-5.856 5.051-10.725 11.079-16.486 16.121 3.524 6.705 8.999 12.56 13.602 18.553 4.379 5.702 8.4 11.668 12.968 17.225.108-.159.22-.315.324-.475 4.916-7.543 13.384-38.657 17.391-42.338.277-.254.708-.248 1.062-.372.875.404.907.174 1.154.957.393 1.249.232 2.505.024 3.774-.579 3.533-1.858 6.938-2.666 10.419-1.735 7.476-3.152 15.141-4.471 22.701-2.273 13.036-4.024 26.208-5.76 39.324 2.233-2.029 5.677-4.29 7.256-6.744 7.192-11.18 24.037-65.257 36.371-64.488 2.101.131 3.679 1.527 4.944 3.092 1.402 1.736 2.3 3.777 3.099 5.841 4.504-4.767 12.674-16.128 19.44-16.304 2.373-.062 4.652 1.215 6.293 2.851 1.624 1.62 2.888 3.579 4.115 5.504 3.1-3.021 8.549-9.306 13.25-8.855 1.331.127 2.296 1.138 2.954 2.22 2.529 4.156 3.015 8.748 7.011 11.967 4.472-.582 5.248 1.901 5.764 1.823.434-.065 6.278-5.21 7.543-5.988.09-2.728.168-5.024 2.215-7.04 2.117-2.084 5.809-3.069 8.713-2.993 3.16.082 5.796 1.991 7.849 4.25 2.782 3.062 11.853 20.278 12.983 20.776.11-.912.068-1.728-.007-2.642.046-2.544.846-4.888 2.758-6.626 1.221-1.109 2.464-1.617 4.143-1.498 3.3.234 6.272 3.981 8.018 6.458 8.047 11.415 12.46 26.393 17.632 39.347 1.957 4.901 3.633 10.288 6.945 14.466 4.2 5.297 11.393 10.242 17.064 13.888-2.722-15.266-5.152-30.963-9.154-45.948-1.332-4.988-8.137-19.287-6.871-23.237 1.049-.703 1.45-.969 2.789-.549 1.124.354 2.099 1.247 2.673 2.251 2.509 4.385 4.23 9.691 6.258 14.344a821 821 0 0 0 11.312 24.417c6.773-7.666 13.274-15.58 20.136-23.163 2.966-3.277 6.212-6.278 9.199-9.521-11.023-13.901-22.028-28.109-35.529-39.752-16.335-14.087-39.49-25.215-60.65-28.704.093 7.447-2.436 13.58-7.62 18.956-8.801 9.128-23.262 10.859-35.344 11.006-15.898.194-33.755-1.933-45.683-13.53-3.881-3.773-6.363-8.071-7.154-13.453-.099-.678-.221-1.355-.329-2.031-1.219-.581-.583-.467-1.903-.359m78.287 46.279c-1.003.765-2.552 1.455-2.61 2.856-.355 8.444 27.025 34.904 24.447 41.74-1.329.54-1.661.443-3.101.23-7.088-5.401-20.17-31.528-27.381-32.938-.619.855-.493 1.14-.346 2.154 1.507 10.413 23.459 30.003 21.59 38.011l-.825.915c-6.23-1.629-26.966-39.214-32.906-36.459-.326 1.075-.347 1.683.29 2.678 1.404 2.192 3.928 3.567 5.295 5.783 1.264 2.05.249 4.528 1.991 6.815 6.33 8.311 15.789 17.113 19.747 26.777l-.31 1.026c-.973.475-.607.523-1.521.247-3.356-1.017-16.268-15.985-19.088-19.451l-.862-.032-.244.734.449.87-.991.377c-.377 2.416 3.704 7.187 5.197 9.243 3.528 4.863 8.241 9.903 10.301 15.594l-.248.825c-1.962.007-3.478-1.634-4.775-2.933-2.398-2.401-4.429-5.138-6.875-7.492 3.187 5.955 6.87 11.808 11.399 16.843 14.148 15.731 31.427 29.063 47.345 42.958 14.925 13.028 28.236 28.829 46.392 37.659 12.296 6.171 26.243 12.315 40.148 7.667 5.931-1.983 10.522-5.975 13.279-11.592 9.489-19.337-.617-53.914-7.6-73.217-3.691-10.202-14.057-33.219-20.085-41.838-8.033 8.7-15.678 18.613-22.394 28.348-3.559 5.157-6.62 10.668-10.41 15.66-.065 2.243.137 4.345.402 6.566q.173.156.347.31c7.015 6.129 23.346 13.958 28.251 19.71.718.841.864 1.606 1.031 2.673-.435 1.326-.363 1.358-1.562 2.048-7.937-1.502-46.428-31.128-55.458-37.474-3.063-6.466-6.179-12.924-8.965-19.516-4.806-11.375-10.615-30.585-18.878-39.134l-.691.002c-2.757 6.608 5.039 24.725.95 28.822-1.492.007-2.315-.416-3.364-1.499-7.903-8.162-15.589-34.795-23.677-41.295-1.077-.865-2.335-1.139-3.684-1.271m-22.331 52.948c-6.977 8.489-16.333 14.851-24.585 22.059-20.689 18.07-41.372 36.341-62.747 53.611-6.386 5.16-13.194 9.707-19.587 14.779-2.84 10.586-4.029 23.727-3.874 34.663 26.918-10.739 75.908-14.26 105.095-14.007 23.52-1.172 92.716 1.442 112.944 8.871-1.886-5.858-2.767-11.897-3.805-17.947-15.683-10.847-28.653-24.115-42.855-36.708-15.861-14.066-32.967-27.495-47.027-43.406-4.104-4.645-7.051-10.376-10.032-15.77-1.014-1.835-2.137-4.654-3.527-6.145m-2.503 186.497c-1.543 3.281-1.873 6.7-2.231 10.269-1.888 18.821-1.927 37.487-2.662 56.34-.29 7.424-1.048 14.844-1.461 22.265-.614 11.032-.937 22.07-1.479 33.102-.519 10.571-1.645 21.113-2.115 31.687-.401 9.027-.195 18.071-.441 27.102-.214 7.854-.959 15.946-.424 23.781 4.686.125 10.074.824 14.685.227 4.128.359 8.245.262 12.383.203-.005-15.536-1.087-31.245-1.919-46.762a2700 2700 0 0 0-7.515-98.692c-.605-6.259-1.761-12.455-2.33-18.722-.614-6.75-1.298-36.723-4.306-40.622-.052-.068-.123-.119-.185-.178m438.916 145.853c-26.909 2.712-53.696 3.18-80.708 3.865-8.867.224-18.344-1.024-27.053.024 1.873 21.733.757 46.528-8.168 66.779-5.575 12.65-14.225 24.524-23.08 35.067-3.028 3.607-6.052 7.415-9.375 10.748-2.913 2.923-7.953 5.767-10.034 9.247-.825 1.38-.99 3.312-.823 4.882.446 4.184 3.64 8.136 6.836 10.662 1.461 1.156 3.117 2.111 4.707 3.077 7.869 5.248 16.809 5.342 25.817 3.501 8.547-1.747 16.279-6.036 24.065-9.804 5.472-2.648 11.186-4.923 16.533-7.809 21.206-11.444 43.559-26.292 64.055-39.295 8.065-5.117 15.884-10.774 24.109-15.614a2256 2256 0 0 1-3.922-43.987c-.35-4.654-1.299-28.599-2.325-31.227zM223.006 832.333c-7.801 5.485-25.846 19.345-27.329 29.302-.157 1.058.073 1.323.592 2.196l1.846.407c4.575-4.321 6.71-10.188 11.023-14.684 3.677-3.834 14.852-12.72 16.501-15.761-.611-1.012-.839-1.133-2.064-1.405-.186-.042-.379-.037-.569-.055m509.582.931c-.956 1.413-1.391 1.55-1.069 3.283 4.211 5.437 11.273 7.577 15.725 12.941 3.005 3.621 7.679 13.15 12.22 14.054.974-1.219 1.236-1.312 1.027-2.926-1.011-7.81-9.09-16.404-15.476-20.58-3.538-2.313-8.317-5.704-12.427-6.772m-15.351 10.044-1.557 1.528c1.076 3.787 11.035 8.252 14.117 10.604 5.57 4.25 7.639 10.878 13.777 14.714.784-1.378 1.397-2.095 1.015-3.763-1.831-7.99-11.006-15.832-17.916-19.618-2.891-1.584-6.084-3.346-9.436-3.465m-483.2 1.161c-6.366 4.053-18.5 12.337-20.266 19.965-.153.66-.11 1.205.025 1.861.97.509.525.493 1.543.217 1.322-.359 2.217-1.281 3.068-2.317 4.748-6.324 11.751-12.123 18.811-15.681 1.498-.755 3.553-1.045 3.651-2.782-1.714-1.602-3.965-1.358-6.152-1.289zm430.929 33.355c-.415 2.405-1.295 5.285.289 7.443 6.426 8.755 33.622 11.775 44.367 12.823 13.507 1.317 27.233 1.352 40.791 1.678l60.038 1.165c30.441.332 60.841 1.942 91.297 1.484 13.396-.201 26.523-1.712 39.86-2.395l-1.58-9.888c-33.397 8.573-70.72 2.573-104.965 2.233-45.292-.451-131.195 8.382-170.097-14.543"/><path fill="#FEFEFE" d="M425.151 166.381c.137-.142.271-.287.411-.426.234-.231.474-.456.71-.685 3.545-3.457 7.922-5.63 11.873-8.562 15.202-11.277 26.51-20.037 37.24-35.898.626.627.544.412.833 1.076 7.332 16.869 17.571 29.037 32.542 39.652-6.439-3.106-16.245-7.635-23.548-7.279-1.296.063-1.845.211-2.704 1.167.268 1.123.592 1.549 1.458 2.268 2.392 1.987 7.166 2.429 10.136 3.349 3.074.953 6.072 2.027 9.02 3.318 1.785.781 4.35 2.479 6.166 2.863.479.101.973-.107 1.46-.161.571-.563 1.042-1.079 1.507-1.739.137-.194.267-.393.4-.589 5.325 1.644 9.988 5.804 15.5 7.592 5.388 1.747 18.209 3.363 22.183 6.326 1.827 1.362 2.782 3.616 3.073 5.823.554 4.211-.833 9.303-3.542 12.582-4.785 5.791-10.695 7.396-17.834 8.125-3.317 9.023-4.228 18.859-9.049 27.349-1.476 2.599-3.879 5.961-6.547 7.449-5.23 2.917-17.275 1.486-20.703 6.157l.433 1.665c3.256 3.202 6.608-.559 10.242.503 2.304.674 2.682 5.944 3.926 8.02 2.344 3.908 6.566 5.211 10.704 6.323l-1.38 4.65c-.82 2.174-1.885 4.24-3.336 6.061-7.053 8.859-18.963 10.635-29.527 11.564-14.386 1.265-33.409-1.072-44.727-10.946-3.756-3.277-6.15-7.043-6.577-12.055 3.67-2.362 8.945-.632 12.719-3.608 3.066-2.418 3.582-6.285 3.963-9.89 2.051.17 4.687.641 6.69.149 1.25-.308 2.153-.723 2.855-1.84-1.525-3.989-16.297-5.165-20.684-7.964-2.828-1.806-4.197-4.404-5.317-7.493-2.02-5.567-2.478-12.152-3.416-18.012-1.564-9.762-3.306-19.506-4.731-29.288-.858-5.886-1.255-11.75-2.422-17.596m32.051-12.232c-7.266 1.129-23.317 6.199-27.692 12.379-.256.361-.326.562-.527.984.459 1.154.523.976 1.532 1.549l1.193-.034c3.125-2.019 6.224-4.042 9.645-5.53 4.106-1.785 16.662-4.353 19.019-7.154.089-1.237.112-1.17-.689-2.116-.889-.137-1.589-.206-2.481-.078m41.773 20.343c-2.456 1.251-4.408 2.612-5.233 5.379-.65 2.179-.35 4.41.782 6.374 1.473 2.557 3.652 3.645 6.384 4.434 2.73-1.674 4.627-3.623 5.406-6.828.488-2.01.278-4.075-.802-5.863-1.256-2.079-3.11-2.829-5.394-3.288q-.57-.112-1.143-.208m-32.551.278c-2.137 6.332-.442 13.774-1.355 20.402-3.039 2.687-5.591 4.649-5.935 9.019-.128 1.623.305 2.935 1.414 4.13 1.258 1.356 4.607 2.225 6.382 2.088.994-.078 1.972-.257 2.95-.447.703-.874.807-1.567 1.004-2.655-.709-1.304-1.231-1.72-2.676-2.177-1.663-.526-3.619-.663-5.354-.857 2.438-2.154 5.022-4.193 6.9-6.873.156-.223.318-.443.471-.667.093-.136.178-.275.267-.413.122-4.626 1.533-17.619-1.589-20.899-.571-.599-1.683-.539-2.479-.651m-28.734 2.273c-1.703 2.033-2.88 3.963-2.688 6.715.122 1.743.832 3.364 2.185 4.497 1.663 1.394 3.383 1.629 5.471 1.463 2.01-1.726 3.315-3.583 3.576-6.292a5.96 5.96 0 0 0-1.483-4.499c-1.21-1.382-2.727-1.992-4.539-2.006q-1.264.002-2.522.122m103.211 3.123c-1.659 1.833-2.272 3.671-2.056 6.16a5.06 5.06 0 0 0 2.161 3.744c1.165.809 2.696.446 4.003.267 1.072-1.498 2.18-3.052 1.839-5.017-.325-1.874-1.872-3.177-3.454-4.036-.798-.433-1.652-.777-2.493-1.118m-73.689 39.931c-.645 1.524-1.043 1.916-.635 3.56 2.331 2.353 6.368 2.085 9.489 2.089q1.155.004 2.309-.027c.889-1.119 1.181-1.709 1.375-3.128-.735-1.192-1.133-1.557-2.539-1.865-3.231-.707-6.714-.158-9.999-.629"/><path d="m431.708 169.027-1.193.034c-1.009-.573-1.073-.395-1.532-1.549.201-.422.271-.623.527-.984 4.375-6.18 20.426-11.25 27.692-12.379.892-.128 1.592-.059 2.481.078.801.946.778.879.689 2.116-2.357 2.801-14.913 5.369-19.019 7.154-3.421 1.488-6.52 3.511-9.645 5.53"/><path d="M500.908 190.679c-2.732-.789-4.911-1.877-6.384-4.434-1.132-1.964-1.432-4.195-.782-6.374.825-2.767 2.777-4.128 5.233-5.379q.573.096 1.143.208c2.284.459 4.138 1.209 5.394 3.288 1.08 1.788 1.29 3.853.802 5.863-.779 3.205-2.676 5.154-5.406 6.828"/><path d="M465.069 195.172c.913-6.628-.782-14.07 1.355-20.402.796.112 1.908.052 2.479.651 3.122 3.28 1.711 16.273 1.589 20.899-.089.138-.174.277-.267.413-.153.224-.315.444-.471.667-1.878 2.68-4.462 4.719-6.9 6.873 1.735.194 3.691.331 5.354.857 1.445.457 1.967.873 2.676 2.177-.197 1.088-.301 1.781-1.004 2.655-.978.19-1.956.369-2.95.447-1.775.137-5.124-.732-6.382-2.088-1.109-1.195-1.542-2.507-1.414-4.13.344-4.37 2.896-6.332 5.935-9.019"/><path d="M442.658 189.718c-2.088.166-3.808-.069-5.471-1.463-1.353-1.133-2.063-2.754-2.185-4.497-.192-2.752.985-4.682 2.688-6.715q1.258-.12 2.522-.122c1.812.014 3.329.624 4.539 2.006a5.96 5.96 0 0 1 1.483 4.499c-.261 2.709-1.566 4.566-3.576 6.292"/><path d="M545.009 190.337c-1.307.179-2.838.542-4.003-.267a5.06 5.06 0 0 1-2.161-3.744c-.216-2.489.397-4.327 2.056-6.16.841.341 1.695.685 2.493 1.118 1.582.859 3.129 2.162 3.454 4.036.341 1.965-.767 3.519-1.839 5.017"/><path d="M319.805 253.012c-.7.367-1.2.678-2.013.702-.676.02-.81-.32-1.283-.743-.247-1.043-.132-1.795.292-2.784 5.156-12.015 26.313-30.321 37.104-36.745 5.225-3.11 10.799-5.262 16.481-7.353 1.299-.216 2.317-.274 3.647-.162.99.847 1.004.782 1.145 2.069-1.771 3.393-12.178 6.077-15.77 7.879-2.878 1.443-5.532 3.27-8.137 5.152-12.529 9.054-21.864 20.05-31.466 31.985"/><path d="M478.375 225.719q-1.154.031-2.309.027c-3.121-.004-7.158.264-9.489-2.089-.408-1.644-.01-2.036.635-3.56 3.285.471 6.768-.078 9.999.629 1.406.308 1.804.673 2.539 1.865-.194 1.419-.486 2.009-1.375 3.128"/><path d="M312.729 300.658c-1.089-.401-1.751-.73-2.606-1.52-1.224-3.486 2.129-9.715 3.5-13.187 11.005-27.874 36.998-51.184 64.282-63.03.926-.035 1.34.03 2.153.483.087 1.237-.028 1.659-.911 2.576-3.883 4.035-10.362 6.917-15.129 9.963-5.383 3.439-10.517 7.118-15.394 11.249-11.407 9.663-22.322 22.427-28.348 36.241-2.298 5.268-3.986 12.244-7.283 16.873-.085.119-.176.234-.264.352"/><path d="M654.298 271.7c-.761-.033-1.954-.115-2.501-.749-2.027-2.353-3.627-7.769-5.011-10.723-5.813-12.4-16.283-21.461-28.231-27.773-4.06-2.145-8.297-3.906-12.324-6.126-.741-1.36-.481-1.834-.277-3.335 5.131-.028 9.819 2.214 14.26 4.585 14.602 7.795 29.979 21.081 34.73 37.587.79 2.744.734 4.017-.646 6.534"/><path d="M645.754 308.95c-.826.231-1.675.404-2.511.6-1.03-.587-1.133-.712-1.513-1.897-.883-2.75-1.209-5.827-1.8-8.663-1.133-5.432-2.867-10.101-5.19-15.133-7.47-16.18-19.467-31.681-33.389-42.845-3.467-2.78-9.057-4.291-11.943-7.429-1.138-1.237-.849-2.153-.829-3.698 1.822.171 3.435.519 5.143 1.199 19.244 7.656 38.42 33.105 46.43 51.451 2.75 6.297 8.217 19.677 5.602 26.415"/><path fill="#FEFEFE" d="M345.678 311.35c5.761-5.042 10.63-11.07 16.486-16.121 17.077-14.727 43.085-30.6 65.625-34.079 1.32-.108.684-.222 1.903.359.108.676.23 1.353.329 2.031.791 5.382 3.273 9.68 7.154 13.453 11.928 11.597 29.785 13.724 45.683 13.53 12.082-.147 26.543-1.878 35.344-11.006 5.184-5.376 7.713-11.509 7.62-18.956 21.16 3.489 44.315 14.617 60.65 28.704 13.501 11.643 24.506 25.851 35.529 39.752-2.987 3.243-6.233 6.244-9.199 9.521-6.862 7.583-13.363 15.497-20.136 23.163a821 821 0 0 1-11.312-24.417c-2.028-4.653-3.749-9.959-6.258-14.344-.574-1.004-1.549-1.897-2.673-2.251-1.339-.42-1.74-.154-2.789.549-1.266 3.95 5.539 18.249 6.871 23.237 4.002 14.985 6.432 30.682 9.154 45.948-5.671-3.646-12.864-8.591-17.064-13.888-3.312-4.178-4.988-9.565-6.945-14.466-5.172-12.954-9.585-27.932-17.632-39.347-1.746-2.477-4.718-6.224-8.018-6.458-1.679-.119-2.922.389-4.143 1.498-1.912 1.738-2.712 4.082-2.758 6.626.075.914.117 1.73.007 2.642-1.13-.498-10.201-17.714-12.983-20.776-2.053-2.259-4.689-4.168-7.849-4.25-2.904-.076-6.596.909-8.713 2.993-2.047 2.016-2.125 4.312-2.215 7.04-1.265.778-7.109 5.923-7.543 5.988-.516.078-1.292-2.405-5.764-1.823-3.996-3.219-4.482-7.811-7.011-11.967-.658-1.082-1.623-2.093-2.954-2.22-4.701-.451-10.15 5.834-13.25 8.855-1.227-1.925-2.491-3.884-4.115-5.504-1.641-1.636-3.92-2.913-6.293-2.851-6.766.176-14.936 11.537-19.44 16.304-.799-2.064-1.697-4.105-3.099-5.841-1.265-1.565-2.843-2.961-4.944-3.092-12.334-.769-29.179 53.308-36.371 64.488-1.579 2.454-5.023 4.715-7.256 6.744 1.736-13.116 3.487-26.288 5.76-39.324 1.319-7.56 2.736-15.225 4.471-22.701.808-3.481 2.087-6.886 2.666-10.419.208-1.269.369-2.525-.024-3.774-.247-.783-.279-.553-1.154-.957-.354.124-.785.118-1.062.372-4.007 3.681-12.475 34.795-17.391 42.338-.104.16-.216.316-.324.475-4.568-5.557-8.589-11.523-12.968-17.225-4.603-5.993-10.078-11.848-13.602-18.553"/><path fill="#FEFEFE" d="M493.3 364.999c2.446 2.354 4.477 5.091 6.875 7.492 1.297 1.299 2.813 2.94 4.775 2.933l.248-.825c-2.06-5.691-6.773-10.731-10.301-15.594-1.493-2.056-5.574-6.827-5.197-9.243l.991-.377-.449-.87.244-.734.862.032c2.82 3.466 15.732 18.434 19.088 19.451.914.276.548.228 1.521-.247l.31-1.026c-3.958-9.664-13.417-18.466-19.747-26.777-1.742-2.287-.727-4.765-1.991-6.815-1.367-2.216-3.891-3.591-5.295-5.783-.637-.995-.616-1.603-.29-2.678 5.94-2.755 26.676 34.83 32.906 36.459l.825-.915c1.869-8.008-20.083-27.598-21.59-38.011-.147-1.014-.273-1.299.346-2.154 7.211 1.41 20.293 27.537 27.381 32.938 1.44.213 1.772.31 3.101-.23 2.578-6.836-24.802-33.296-24.447-41.74.058-1.401 1.607-2.091 2.61-2.856 1.349.132 2.607.406 3.684 1.271 8.088 6.5 15.774 33.133 23.677 41.295 1.049 1.083 1.872 1.506 3.364 1.499 4.089-4.097-3.707-22.214-.95-28.822l.691-.002c8.263 8.549 14.072 27.759 18.878 39.134 2.786 6.592 5.902 13.05 8.965 19.516 9.03 6.346 47.521 35.972 55.458 37.474 1.199-.69 1.127-.722 1.562-2.048-.167-1.067-.313-1.832-1.031-2.673-4.905-5.752-21.236-13.581-28.251-19.71q-.173-.154-.347-.31c-.265-2.221-.467-4.323-.402-6.566 3.79-4.992 6.851-10.503 10.41-15.66 6.716-9.735 14.361-19.648 22.394-28.348 6.028 8.619 16.394 31.636 20.085 41.838 6.983 19.303 17.089 53.88 7.6 73.217-2.757 5.617-7.348 9.609-13.279 11.592-13.905 4.648-27.852-1.496-40.148-7.667-18.156-8.83-31.467-24.631-46.392-37.659-15.918-13.895-33.197-27.227-47.345-42.958-4.529-5.035-8.212-10.888-11.399-16.843"/><path fill="#FEFEFE" d="M436.086 357.027c8.202-5.058 14.437-11.799 21.229-18.498 5.354-5.281 10.731-10.442 16.022-15.784 1.787-1.804 3.453-3.569 6.11-3.599l.9.989c-.023 1.457-.503 2.203-1.401 3.35-3.798 4.847-9.038 9.236-13.398 13.644-4.511 4.56-8.684 9.433-13.191 13.991-2.623 2.654-9.751 8.682-10.858 11.871l.729.615c8.21.93 30.806-29.416 39.609-31.463 1.526.354 1.53.398 2.503 1.635-.061.297-.055.615-.182.89-.723 1.567-4.316 3.757-5.752 5.091-8.264 7.678-25.496 23.622-31.497 32.51l.584 1.231-.832.111.473.1c7.627-2.69 25.402-19.778 31.99-25.992 1.923-2.14 4.324-5.538 7.178-6.292.483.902.224.99-.045 1.931-1.858 1.936-4.498 3.101-6.165 5.077a13 13 0 0 1-1.486 3.076c-4.516 6.99-10.82 13.407-16.628 19.313-15.189 15.448-31.31 28.886-47.962 42.692-19.004 15.755-36.827 31.919-58.667 43.883-4.991 2.734-10.582 4.816-16.17 5.913-10.238 2.01-23.62 1.105-32.427-4.991-6.015-4.163-9.611-10.37-10.832-17.497-3.282-19.172 8.11-50.162 17.019-67.333 8.227-15.854 18.588-30.961 28.968-45.463 9.767 11.95 20.848 23.487 31.647 34.497.127 8.209-.97 16.562-1.448 24.768-7.095 5.917-35.103 23.051-37.51 30.429-.393 1.204-.43 1.898.101 3.029.174.034.344.092.521.104 3.727.252 14.098-9.787 17.489-12.383 11.727-8.977 27.854-18.21 37.294-29.369 4.132-4.885 6.286-11.028 8.744-16.846 5.495-13.01 14.3-37.518 23.58-47.05.818 8.553-.413 14.561-3.617 22.469-.721 1.779-2.066 4.29-2.098 6.202-.016.949-.106.568.605 1.328 4.938-1.313 25.669-33.752 33.596-35.845 1.246.391 1.215.359 1.873 1.485-.046 8.591-20.604 29.946-24.887 39.547-.422.945-.601 1.139-.21 2.131 6.816-1.255 39.168-42.974 45.4-43.764 1.186.488 1.146.474 1.7 1.634-.151 1.417-.706 2.223-1.549 3.318-2.505 3.259-5.836 6.091-8.615 9.138-9.81 10.755-20.509 21.962-28.437 34.177"/><path fill="#FEFEFE" d="M376.826 450.826c6.393-5.072 13.201-9.619 19.587-14.779 21.375-17.27 42.058-35.541 62.747-53.611 8.252-7.208 17.608-13.57 24.585-22.059 1.39 1.491 2.513 4.31 3.527 6.145 2.981 5.394 5.928 11.125 10.032 15.77 14.06 15.911 31.166 29.34 47.027 43.406 14.202 12.593 27.172 25.861 42.855 36.708 1.038 6.05 1.919 12.089 3.805 17.947-20.228-7.429-89.424-10.043-112.944-8.871-29.187-.253-78.177 3.268-105.095 14.007-.155-10.936 1.034-24.077 3.874-34.663"/><path d="M317.694 508.052c-1.668-.468-3.047-1.164-4.558-1.992-24.31-13.316-42.112-33.505-49.856-60.431-2.233-7.765-5.539-21.455-1.418-28.871 1.334.656 1.71 1.043 2.067 2.53.634 2.64.168 5.85.402 8.589.441 5.16 1.811 10.339 3.338 15.27 5.75 18.571 17.455 37.617 33.306 49.311 5.995 4.422 12.915 7.543 18.059 13.043-.085 1.393-.482 1.507-1.34 2.551"/><path d="M652.171 528.34c-.544-.036-1.403-.027-1.94-.208-1.324-.448-1.519-.688-2.094-1.856.29-.885.634-1.391 1.366-1.946 1.873-1.42 4.283-2.257 6.359-3.355 4.826-2.553 9.205-6.152 12.802-10.251 6.024-6.863 9.966-16.057 12.529-24.734 1.618-5.48 2.879-11.403 2.864-17.141-.015-5.614-.484-11.773-1.498-17.289-.803-4.367-2.872-10.01-2.743-14.367.027-.915.505-1.699.929-2.48l2.221.724c1.734 1.587 2.544 4.032 3.261 6.218 6.563 20.007 3.668 42.821-6.017 61.25-5.637 10.726-16.19 21.799-28.039 25.435"/><path d="M277.641 500.087c-1.085-.251-2.215-.51-3.198-1.049-10.463-5.73-18.669-24.517-21.85-35.391-1.339-4.581-4.596-14.12-2.203-18.485 3.489 1.073 4.148 6.79 4.934 9.836 3.161 12.254 6.905 22.83 14.85 32.895 2.39 3.028 6.104 6.043 8.046 9.265.642 1.064-.133 1.953-.579 2.929"/><path d="M681.521 528.168c-1.564-.081-2.226-.378-3.373-1.344-.149-1.248-.194-1.57.623-2.651 1.358-1.797 4.168-3.426 5.879-5.026 4.962-4.639 8.913-10.777 11.738-16.917 3.223-7.006 4.667-14.563 5.024-22.237.255-5.478-1.489-11.839.982-16.854 1.136.272 2.119.479 2.841 1.444 2.944 3.933 1.143 22.273.156 27.272a56.58 56.58 0 0 1-23.87 36.313"/><path fill="#FEFEFE" d="M470.429 751.42c-.535-7.835.21-15.927.424-23.781.246-9.031.04-18.075.441-27.102.47-10.574 1.596-21.116 2.115-31.687.542-11.032.865-22.07 1.479-33.102.413-7.421 1.171-14.841 1.461-22.265.735-18.853.774-37.519 2.662-56.34.358-3.569.688-6.988 2.231-10.269.062.059.133.11.185.178 3.008 3.899 3.692 33.872 4.306 40.622.569 6.267 1.725 12.463 2.33 18.722a2700 2700 0 0 1 7.515 98.692c.832 15.517 1.914 31.226 1.919 46.762-4.138.059-8.255.156-12.383-.203-4.611.597-9.999-.102-14.685-.227"/><path fill="#FEFEFE" d="M812.397 696.616c8.709-1.048 18.186.2 27.053-.024 27.012-.685 53.799-1.153 80.708-3.865l.634.116c1.026 2.628 1.975 26.573 2.325 31.227a2256 2256 0 0 0 3.922 43.987c-8.225 4.84-16.044 10.497-24.109 15.614-20.496 13.003-42.849 27.851-64.055 39.295-5.347 2.886-11.061 5.161-16.533 7.809-7.786 3.768-15.518 8.057-24.065 9.804-9.008 1.841-17.948 1.747-25.817-3.501-1.59-.966-3.246-1.921-4.707-3.077-3.196-2.526-6.39-6.478-6.836-10.662-.167-1.57-.002-3.502.823-4.882 2.081-3.48 7.121-6.324 10.034-9.247 3.323-3.333 6.347-7.141 9.375-10.748 8.855-10.543 17.505-22.417 23.08-35.067 8.925-20.251 10.041-45.046 8.168-66.779"/><path fill="#FEFEFE" d="m198.115 864.238-1.846-.407c-.519-.873-.749-1.138-.592-2.196 1.483-9.957 19.528-23.817 27.329-29.302.19.018.383.013.569.055 1.225.272 1.453.393 2.064 1.405-1.649 3.041-12.824 11.927-16.501 15.761-4.313 4.496-6.448 10.363-11.023 14.684"/><path fill="#FEFEFE" d="M759.464 863.542c-4.541-.904-9.215-10.433-12.22-14.054-4.452-5.364-11.514-7.504-15.725-12.941-.322-1.733.113-1.87 1.069-3.283 4.11 1.068 8.889 4.459 12.427 6.772 6.386 4.176 14.465 12.77 15.476 20.58.209 1.614-.053 1.707-1.027 2.926"/><path fill="#FEFEFE" d="M743.574 870.154c-6.138-3.836-8.207-10.464-13.777-14.714-3.082-2.352-13.041-6.817-14.117-10.604l1.557-1.528c3.352.119 6.545 1.881 9.436 3.465 6.91 3.786 16.085 11.628 17.916 19.618.382 1.668-.231 2.385-1.015 3.763"/><path fill="#FEFEFE" d="M218.407 864.195c-.851 1.036-1.746 1.958-3.068 2.317-1.018.276-.573.292-1.543-.217-.135-.656-.178-1.201-.025-1.861 1.766-7.628 13.9-15.912 20.266-19.965l.68-.026c2.187-.069 4.438-.313 6.152 1.289-.098 1.737-2.153 2.027-3.651 2.782-7.06 3.558-14.063 9.357-18.811 15.681"/><path fill="#FEFEFE" d="M941.608 900.022c-13.337.683-26.464 2.194-39.86 2.395-30.456.458-60.856-1.152-91.297-1.484l-60.038-1.165c-13.558-.326-27.284-.361-40.791-1.678-10.745-1.048-37.941-4.068-44.367-12.823-1.584-2.158-.704-5.038-.289-7.443 38.902 22.925 124.805 14.092 170.097 14.543 34.245.34 71.568 6.34 104.965-2.233z"/></svg>