<svg xmlns="http://www.w3.org/2000/svg" width="1024" height="1024"><path fill="#FEFEFE" d="M0 0h1024v1024H0zm427.133 21.247c-4.903 7.333-8.355 16.52-12.048 24.546-2.485-6.393-5.031-12.81-11.719-15.86-4.908-2.237-8.845-2.458-13.927-.484-4.894 1.902-7.936 6.252-9.866 10.952-6.164 15.008-2.941 30.987-2.208 46.55.481 10.185.475 20.896-.096 31.074-.025 3.334-.731 8.406 1.577 11.116 2.863 3.362 9.468 3.046 13.471 3.008 7.699-.073 16.409-2.417 21.904-8.181 1.346-1.412 2.108-2.872 2.583-4.761 1.423-5.661.984-12.22 1.147-18.028.279-9.893.731-19.383.189-29.3-.305-5.57-.132-11.922-1.603-17.264l-.039-.147c3.817-6.037 14.174-23.838 13.061-31.066-.697-1.212-1.178-1.544-2.426-2.155m168.142.489c-1.735 3.892-.239 7.587 1.216 11.34 1.059 2.73 6.688 17.02 8.538 17.81 1.027.438 1.669.344 2.753.28 1.072 2.94-.902 9.003-1.16 12.223-.788 9.838-1.5 46.714 1.748 55.463 1.528 4.115 4.679 7.307 8.681 9.06 7.882 3.452 18.242 2.814 26.565 1.632l3.923-3.444q.056-7.453-.064-14.904c.858-17.259 5.208-64.745-6.324-76.93-2.649-2.798-6.213-4.57-9.702-6.082-6.339.46-12.255 1.372-16.652 6.517-3.6 4.213-5.297 10.044-6.723 15.3-.996-6.37-6.951-23.734-11.484-27.852zm-260.843 4.551c-6.392 9.745-11.53 20.06-17.212 30.205-10.472 18.697-20.936 37.291-31.024 56.201a6611 6611 0 0 0-75.743 144.791L82.495 505.055 18.632 629.536c-4.718 9.036-8.937 18.305-13.833 27.259l4.647 1.631c3.516-.55 7.063-.538 10.613-.608 6.632-7.358 14.841-25.583 19.893-35.182 6.907-13.126 14.087-26.205 21.274-39.182a6707 6707 0 0 0 159.75-310.691l84.299-178.935c4.241-8.868 8.734-17.709 13.296-26.417 4.247-8.106 17.405-31.316 18.71-39.035-.517-1.249-.715-1.454-2.085-1.924-.246-.085-.509-.11-.764-.165m353.906.879c-1.029 2.055-.972 3.392-.247 5.555 2.593 7.732 7.046 15.355 10.634 22.72l21.856 44.981 45.908 96.837c7.454 16.086 14.076 32.555 21.833 48.5a9553 9553 0 0 0 172.36 334.575l24.187 44.585c5.052 9.42 9.929 20.069 16.051 28.803a20.5 20.5 0 0 0 3.83 4.153c4.39.099 8.76.554 13-.785l.48-.943c-5.74-9.319-9.72-20.078-14.72-29.884l-40.796-80.532a23719 23719 0 0 0-198.875-384.158c-18.516-34.428-36.537-68.974-55.819-103-3.413-6.022-6.95-12.01-10.176-18.134-1.745-3.313-3.15-7.335-5.316-10.358-.923-1.289-2.127-2.418-3.699-2.829-.16-.042-.327-.057-.491-.086M510.901 120.23c-14.808 1.093-24.699 4.062-34.616 15.642-4.774 5.576-7.246 12.071-9.675 18.906-7.002 19.707-9.962 39.836-8.259 60.74 1.216 14.922 5.624 27.588 11.926 41.067-11.622 6.372-24.622 16.485-31.612 27.891-4.472 7.299-7.208 16.073-9.601 24.25-3.517 12.019-6.065 24.123-8.716 36.349-1.098 5.06-2.743 10.35-3.2 15.506-.224 2.516-.419 6.153.739 8.499.896 1.814 3.494 3.835 5.026 5.198-.61 11.952-1.99 23.8-2.919 35.722-1.855 23.798-3.602 47.556-5.814 71.327-1.691 18.173-5.683 45.255-3.957 62.536.695 6.95 3.298 14.866 8.149 20.041 2.567 2.739 6.271 4.828 10.093 4.902 1.977.038 3.991-.451 5.365-1.96 1.334-1.465 1.638-3.491 2.03-5.359.672-.573 1.048-.749 1.869-1.091 3.377-1.405 5.086-7.841 6.574-11.002.41 11.998 2.191 23.858 3.054 35.825a2928 2928 0 0 0 8.634 102.057c1.242 11.913 3.498 23.683 4.346 35.644-4.897 1.233-10.746 3.534-13.464 8.088-1.745 2.926-1.056 6.641-.13 9.719 3.607 11.994 13.68 24.457 24.785 30.274 5.336 2.795 13.593 4.988 19.414 2.894 2.025-.728 6.72-2.957 7.735-4.849 2.03-3.781 1.283-12.989 1.149-17.343 1.437-.784 2.827-1.27 3.716-2.685-.018-.209-.042-.418-.055-.628-.285-4.808 2.006-9.392 2.694-14.144.85-5.862.835-11.901.997-17.816.213-7.758-.322-15.429-.296-23.168.041-12.132.654-24.243.573-36.384-.094-14.02-2.903-103.466 3.42-110.473.989 1.271.942 2.88.984 4.426.337 12.597-.712 25.596-1.198 38.196-.439 11.383-.33 22.884-.276 34.278l.592 60.362c.008 8.686.796 18.164-.321 26.765l-.085.611c.165 6.216.078 12.436-.259 18.646-.633 10.911-3.962 28.969 1.684 38.714q-.114.223-.224.448c-2.415 5.009-3.379 11.166-3.742 16.677-.716 10.866.945 22.122 1.575 32.981.422 7.264.087 14.769.946 21.97.386 3.237 1.06 6.463 2.18 9.53 2.903 7.951 8.631 14.276 16.392 17.737 6.661 2.971 15.062 3.297 21.933.708 4.289-1.616 7.544-4.494 9.432-8.698 7.579-16.875-.28-42.129-2.305-59.843-.849-7.423-.365-14.853-.832-22.273-.138-2.208-1.634-4.154-1.654-6.287-.022-2.255.746-4.987 1.107-7.226.899-5.586 1.848-11.139 2.353-16.778l6.469-79.848c2.265-26.95 3.792-54.017 5.783-80.998.923-12.52.996-25.508 3.245-37.866 1.377 1.921 2.747 3.819 3.994 5.828.78 1.258 1.67 2.552 3.162 3.036 2.314.75 5.252-1.059 7.068-2.32 7.389-5.13 13.234-16.651 14.546-25.429 1.215-8.129-.341-16.936-.897-25.088a1442 1442 0 0 0-5.497-61.999c-1.191-11.828-1.703-23.795-2.602-35.658-.913-12.06-2.192-24.108-3.092-36.164 3.165-2.354 5.568-4.731 7.648-8.149-1.207-12.493-4.334-24.392-7.385-36.518-5.529-21.98-10.027-44.968-28.485-60.225a48.2 48.2 0 0 0-10.929-6.842c-8.129-14.961-14.072-29.19-17.284-46.022-.568-2.979-1.757-7.289-.916-10.268.253-.899.522-.976 1.18-1.571l1.134.058c1.997 2.825 1.75 8.844 2.5 12.261 2.989 13.607 9.315 34.221 18.469 44.669 4.855-1.684 19.776-5.225 22.127-9.184.132-1.752.182-2.593-1.014-4.025-1.914-2.289-4.265-4.177-6.122-6.506-7.589-9.521-14.589-22.372-17.587-34.145-6.488-25.479 7.933-54.03-16.189-74.859-6.516-5.626-14.262-8.738-22.883-9.335-1.558-.108-3.15-.162-4.699.048m152.288 13.952c-7.482 1.181-13.643 4.027-18.159 10.356-4.008 5.617-5.179 11.967-6.428 18.588-1.602-4.709-5.347-17.662-8.887-20.611l-1.012.184c-1.288 1.936-.98 3.754-.543 5.961.627 3.161 5.132 18.035 6.935 20.18 1.113.519 2.186.623 2.515 1.928.745 2.955-.046 9.887-.059 13.285a711 711 0 0 0 .844 40.972c.278 5.492.245 11.605 1.512 16.958.67 2.829 1.741 5.053 3.947 6.978 6.602 5.761 18.778 6.173 27.092 5.442 2.664-.235 5.282-.754 7.903-1.264.86 6.115 6.632 17.442 10.126 22.686-4.08 8.631-7.739 17.352-8.881 26.928-2.47-6.172-6.617-20.006-10.758-24.47l-.966-.056c-1.05 1.175-1.21 2.046-1.065 3.623.554 6.018 5.384 19.251 7.707 25.416 1.137 3.017 2.953 5.99 3.322 9.231.817 7.173.188 14.939.107 22.178-.112 9.943.043 19.867.106 29.808.042 6.525-.482 14.104 1.562 20.333.986 3.002 2.724 5.071 5.195 7.027 7.572 5.993 22.989 8.783 32.473 7.458 4.129-.576 8.425-2.292 11.688-4.92 2.896 7.954 5.715 15.929 7.909 24.11 3.975 14.826 6.933 29.981 12.372 44.383 2.426 6.423 5.756 13.217 9.195 19.158 2.585 4.466 5.532 8.74 7.752 13.405-17.279 17.52-20.441 44.753-20.306 68.376.038 6.622.337 13.25.047 19.869-.282 6.436-1.125 12.872-1.258 19.309-.117 5.631.605 11.266.541 16.909-.08 7.061-1.361 15.584.253 22.48.775 3.309 2.83 5.987 5.23 8.317 10.273 9.97 26.093 12.2 39.818 11.855 5.988-.15 12.08-.592 17.527-3.264 1.951-9.104 1.253-19.756 1.503-29.107 5.326 10.745 9.812 22.007 14.514 33.04l21.45 49.878c4.272 10.147 8.07 20.526 12.561 30.573-5.663-.234-11.296.771-16.932 1.21-17.692 1.378-33.39 2.587-49.438 11.018-4.1 2.154-8.331 4.486-11.715 7.694-2.108 1.999-3.911 4.438-4.916 7.18-2.199 5.995-2.085 20.924-2.133 27.563-.062 8.563.929 17.027 1.662 25.542.759 8.818 1.075 17.225 3.207 25.875 3.256 2.023 6.296 4.009 9.198 6.523-6.771 6.285-12.487 9.703-12.825 19.859-.498 14.929-.539 30.597.445 45.5.52 5.64.37 19.079 1.785 23.42.429 1.315 1.066 2.152 2.145 2.986 2.684 2.075 6.444 3.18 9.504 4.618 30.831 14.486 75.462 16.714 108.861 11.217 10.243-1.685 22.557-5.657 31.817-10.401 3.453-1.769 6.606-4.106 10.073-5.853 3.072-1.547 7.972-2.86 10.076-5.55 3.779-4.83 3.491-27.577 3.947-34.542.384-5.868 1.645-11.483 1.641-17.437-.005-7.751-.291-17.167-2.069-24.684-1.4-5.917-4.401-10.194-8.522-14.537 3.593-1.031 7.068-2.426 8.936-5.9 2.411-4.487 2.711-11.549 2.981-16.549.435-8.044-.705-16.29-.879-24.352-.169-7.875 1.595-27.069-.53-33.477-2.526-7.615-8.772-12.268-15.705-15.616-10.689-5.162-24.135-9.22-35.884-10.927a145 145 0 0 0-15.148-1.396c-5.36-.205-19.374 1.57-23.536-.729-2.129-1.176-7.062-16.101-8.292-19.337-9.828-25.859-21.991-50.812-33.01-76.155-2.663-6.127-8.041-21.602-11.822-26.375-.165-32.102 10.414-100.279-13.893-124.298-5.795-5.726-11.655-6.105-19.38-5.98-2.778.045-5.14 1.436-7.584 2.632-6.301-13.084-13.243-25.81-17.844-39.641-4.485-13.487-6.942-27.595-11.05-41.194-2.235-7.401-6.761-16.018-8.131-23.284-1.482-7.867.789-17.341 1.201-25.318.568-10.972-.63-21.856-.598-32.811.055-19.084 5.978-57.251-17.143-65.751-7.766-2.855-14.758-2.028-22.081 1.635-.577.288-1.112.611-1.66.95-2.071-3.352-10.104-16.851-9.606-19.993l.444-.546c.7-.87 1.742-1.981 2.14-3.029.792-2.086.517-5.891.618-8.212.319-7.33.76-14.657.719-21.998-.03-5.497-.493-10.984-.506-16.478-.012-5.482.489-10.942.31-16.428-.207-6.353-.621-12.805-1.345-19.121-1.041-9.082-3.752-20.656-11.195-26.67-3.473-2.807-7.308-4.143-11.722-4.343m-303.267 1.502c-5.447.665-10.6 2.376-14.17 6.839-3.429 4.287-5.198 10.208-6.176 15.523-3.562 19.361-2.286 46.649-1.506 66.518.3 7.65.239 15.742 1.507 23.284.089.525.219 1.042.312 1.567.853 4.824-7.552 17.035-10.036 21.661-6.218-3.287-12.024-5.737-19.152-3.58-5.58 1.688-13.122 6.837-15.8 12.095-2.575 5.056-4.03 11.129-4.745 16.73-1.283 10.046-.439 20.554-.525 30.678-.136 15.913-.823 31.69-.255 47.614.172 4.794 2.649 11.153 1.894 15.674-.568 3.4-2.902 7.228-4.228 10.468-1.537 3.754-2.88 7.629-4.105 11.495-4.369 13.793-6.6 28.208-11.172 41.892-2.331 6.978-5.899 13.685-8.989 20.357-3.363 7.266-6.472 14.647-9.823 21.917-6.455-2.698-12.044-3.298-18.733-.619-8.266 3.312-13.021 9.672-16.305 17.678-10.401 25.351-8.223 57.591-6.248 84.313.476 6.44 2.18 18.351.977 24.161-1.37 6.614-8.361 19.894-11.29 26.743l-27.092 62.258c-5.018 11.468-10.462 22.855-14.819 34.597-16.013-1.968-46.655 1.121-61.965 6.428-6.359 2.204-12.642 5.619-17.915 9.805-5.795 4.602-8.575 8.516-9.4 16.015-.717 6.529-.243 13.276-.44 19.844-.382 12.71-2.389 32.023.003 44.263.454 2.323 1.578 4.509 3.11 6.305 2.244 2.634 5.285 4.28 8.267 5.94-9.852 9.856-9.552 16.181-10.28 29.297-.283 5.077-.947 10.19-.96 15.275-.039 14.921 1.185 31.62 4.52 46.154 4.383 4.602 10.522 7.444 16.168 10.144 21.403 10.236 42.717 15.386 66.459 15.947 22.972.543 51.45-4.968 72.963-13.447 4.764-1.878 10.522-4.109 14.321-7.655.913-.852 1.684-1.778 2.056-2.992 2.061-6.723 2.498-28.448 2.673-36.749a89 89 0 0 0-.008-3.193c1.06-16.16 2.87-29.885-8.656-42.818-1.381-1.55-2.925-2.976-4.439-4.395 2.967-2.846 7.304-5.956 9.198-9.587 3.588-6.88 3.524-31.727 3.715-40.694.253-11.862 1.827-32.909-6.456-41.779-14.246-15.256-56.46-20.167-77.122-21.312 9.906-23.242 20.477-46.178 30.487-69.373 6.271-14.529 11.828-29.632 18.65-43.874.228 7.279-.395 25.919 2.573 31.649 2.716 2.34 22.335 1.789 26.826 1.433 11.02-.875 22.524-3.723 29.986-12.476 2.447-2.871 3.419-6.997 3.98-10.672 2.441-15.991.79-32.721.324-48.8-.481-16.601-.321-33-1.825-49.572-1.204-13.277-8.522-34.471-18.773-43.38l-.67-.589c5.094-8.588 8.773-18.244 12.793-27.383 2.931-6.663 6.269-13.199 8.493-20.146 3.189-9.959 5.041-20.355 7.826-30.433 2.294-8.301 5.433-16.395 8.242-24.534 7.487 5.856 15.699 6.374 24.828 5.218 6.684-.847 17.275-3.408 21.458-9.037 8.678-11.677 3.169-56.948 4.144-72.886.669-10.926 14.091-33.392 12.649-43.331-.102-.707-.425-1.21-.826-1.78l-.946-.212c-4.231 2.793-9.848 23.023-12.22 28.952-1.272-11.411-3.144-19.696-9.049-29.676 4.35-6.683 7.638-14.267 11.04-21.466 12.963 2.084 24.648 2.625 35.737-5.353 1.506-1.083 2.992-2.173 4.327-3.465 2.142-11.596 1.526-39.099 1.056-51.657-.2-5.338-1.162-11.562-.538-16.823.168-1.42 1.006-2.467 1.746-3.632 1.964-3.093 9.343-26.146 8.61-29.176-.299-1.237-.79-1.734-1.794-2.434-1.363.41-1.802 1.037-2.459 2.291-3.357 6.41-5.234 13.729-7.147 20.683-1.991-9.306-4.123-20.577-12.872-25.958-3.307-2.034-8.147-3.281-11.989-2.767m344.951 299.961c-.465 1.245-1.224 2.896-1.021 4.24.529 3.501 2.318 7.528 3.482 10.886a488 488 0 0 1 6.074 18.227 2187 2187 0 0 1 11.992 39.29c3.415 11.702 6.52 23.977 11.404 35.18.502 1.152.909 1.743 2.179 2.152.404.13 1.065.184 1.5.231.566-1.372 1.312-2.916 1.153-4.436-.642-6.152-5.335-18.627-7.268-25.117q-6.897-24.002-14.636-47.747c-2.672-8.402-5.073-17.092-8.429-25.246-.933-2.266-2.099-6.024-4.466-6.974a30 30 0 0 0-1.964-.686m-388.674 1.004c-1.01 1.228-1.649 2.357-2.227 3.825-6.642 16.872-11.571 34.86-17.059 52.149-3.859 12.157-9.524 27.247-12.266 39.417-.317 1.404-.296 2.7-.162 4.125.285 3.016.174 6.653 2.106 9.114l22.943-74.391c2.668-8.708 6.19-17.427 8.417-26.223.533-2.106 1.405-4.988.45-6.98-.723-.358-1.444-.758-2.202-1.036"/><path d="M415.085 45.793c3.693-8.026 7.145-17.213 12.048-24.546 1.248.611 1.729.943 2.426 2.155 1.113 7.228-9.244 25.03-13.061 31.066l.039.147c1.471 5.342 1.298 11.694 1.603 17.264.542 9.917.09 19.407-.189 29.3-.163 5.808.276 12.367-1.147 18.028-.475 1.889-1.237 3.349-2.583 4.761-5.495 5.764-14.205 8.108-21.904 8.181-4.003.038-10.608.354-13.471-3.008-2.308-2.71-1.602-7.782-1.577-11.116.571-10.178.577-20.89.096-31.074-.733-15.563-3.956-31.542 2.208-46.55 1.93-4.7 4.972-9.05 9.866-10.952 5.082-1.974 9.019-1.753 13.927.485 6.688 3.049 9.234 9.466 11.719 15.859m-21.673-11.741c-4.526 2.314-7.029 5.773-8.65 10.57-1.876 5.545-2.424 12.056-2.614 17.868-.315 9.62 1.617 19.138 1.844 28.693.155 6.565-2.171 28.555-.024 33.257 2.988 2.355 7.13 1.682 10.668 1.271 1.495-.174 2.963-.331 4.42-.724 3.679-1.272 10.087-3.542 11.766-7.319 2.214-4.98 1.247-13.092 1.28-18.545.098-16.316 1.239-41.567-5.309-56.588-1.549-3.553-3.386-6.26-7.118-7.749-2.132-.851-4.003-.922-6.263-.734"/><path d="M643.616 129.544c-8.323 1.182-18.683 1.82-26.565-1.632-4.002-1.753-7.153-4.945-8.681-9.06-3.248-8.749-2.536-45.625-1.748-55.463.258-3.22 2.232-9.284 1.16-12.224-1.084.065-1.726.159-2.753-.28-1.85-.79-7.479-15.078-8.538-17.809-1.455-3.753-2.951-7.448-1.216-11.34l1.315.413c4.533 4.118 10.488 21.483 11.484 27.851 1.426-5.255 3.123-11.086 6.723-15.3 4.397-5.144 10.313-6.055 16.652-6.516 3.489 1.512 7.053 3.284 9.702 6.082 11.532 12.185 7.182 59.671 6.324 76.93q.12 7.451.064 14.904zm-19.174-94.97c-4.569 2.282-7.366 5.97-8.933 10.819-1.821 5.634-2.425 12.271-2.86 18.151-.734 9.921-1.904 47.63 1.731 54.221 1.664 3.017 5.147 4.617 8.365 5.312 2.493.539 5.068.37 7.545.889 3.43.171 6.722.222 10.145-.079 1.132-7.466.447-15.477.675-23.046.453-14.99 4.654-50.207-4.254-62.097-2.107-2.812-5.396-3.976-8.785-4.318-1.22-.123-2.418-.002-3.629.148"/><path d="M4.799 656.795c4.896-8.954 9.115-18.223 13.833-27.259l63.863-124.481 127.958-247.571a6611 6611 0 0 1 75.743-144.791c10.088-18.91 20.552-37.504 31.024-56.201 5.682-10.145 10.82-20.46 17.212-30.205.255.055.518.08.764.165 1.37.47 1.568.675 2.085 1.924-1.305 7.719-14.463 30.93-18.71 39.035-4.562 8.708-9.055 17.549-13.296 26.417l-84.299 178.935a6707 6707 0 0 1-159.75 310.691c-7.187 12.977-14.367 26.056-21.274 39.182-5.052 9.599-13.261 27.824-19.893 35.182-3.55.07-7.097.058-10.613.608z"/><path d="M1004.75 657.875a20.5 20.5 0 0 1-3.83-4.153c-6.122-8.734-10.999-19.383-16.051-28.803l-24.187-44.585a9553 9553 0 0 1-172.36-334.575c-7.757-15.945-14.379-32.414-21.833-48.5l-45.908-96.837-21.856-44.981c-3.588-7.365-8.041-14.988-10.634-22.72-.725-2.163-.782-3.5.247-5.555.164.029.331.044.491.086 1.572.411 2.776 1.54 3.699 2.83 2.166 3.022 3.571 7.044 5.316 10.357 3.226 6.124 6.763 12.112 10.176 18.135 19.282 34.025 37.303 68.571 55.819 102.999a23719 23719 0 0 1 198.875 384.158l40.796 80.532c5 9.806 8.98 20.565 14.72 29.884l-.48.943c-4.24 1.339-8.61.884-13 .785"/><path fill="#FEFEFE" d="M399.056 124.987c-1.457.393-2.925.55-4.42.724-3.538.411-7.68 1.084-10.668-1.271-2.147-4.702.179-26.692.024-33.257-.227-9.555-2.159-19.073-1.844-28.693.19-5.812.738-12.323 2.614-17.869 1.621-4.796 4.124-8.255 8.65-10.569 2.26-.188 4.131-.117 6.263.734 3.732 1.49 5.569 4.196 7.118 7.749 6.548 15.021 5.407 40.272 5.309 56.588-.033 5.453.934 13.565-1.28 18.545-1.679 3.777-8.087 6.047-11.766 7.319"/><path fill="#FEFEFE" d="M630.29 123.966c-2.477-.519-5.052-.35-7.545-.889-3.218-.695-6.701-2.295-8.365-5.312-3.635-6.591-2.465-44.3-1.731-54.22.435-5.881 1.039-12.518 2.86-18.152 1.567-4.848 4.364-8.537 8.933-10.82 1.211-.149 2.409-.27 3.629-.147 3.389.342 6.678 1.505 8.785 4.318 8.908 11.89 4.707 47.107 4.254 62.097-.228 7.569.457 15.58-.675 23.046-3.423.301-6.715.25-10.145.079"/><path d="M470.277 256.585c-6.302-13.479-10.71-26.145-11.926-41.067-1.703-20.904 1.257-41.033 8.259-60.74 2.429-6.835 4.901-13.33 9.675-18.906 9.917-11.58 19.808-14.549 34.616-15.642 1.549-.21 3.141-.156 4.699-.048 8.621.597 16.367 3.709 22.883 9.335 24.122 20.829 9.701 49.38 16.189 74.859 2.998 11.773 9.998 24.624 17.587 34.145 1.857 2.329 4.208 4.217 6.122 6.506 1.196 1.432 1.146 2.273 1.014 4.025-2.351 3.959-17.272 7.5-22.127 9.184-9.154-10.448-15.48-31.062-18.469-44.669-.75-3.417-.503-9.436-2.5-12.261l-1.134-.058c-.658.595-.927.672-1.18 1.571-.841 2.979.348 7.289.916 10.268 3.212 16.832 9.155 31.061 17.284 46.022a48.2 48.2 0 0 1 10.929 6.842c18.458 15.257 22.956 38.245 28.485 60.225 3.051 12.126 6.178 24.025 7.385 36.518-2.08 3.418-4.483 5.795-7.648 8.149.9 12.056 2.179 24.104 3.092 36.164.899 11.863 1.411 23.83 2.602 35.658a1442 1442 0 0 1 5.497 61.999c.556 8.152 2.112 16.959.897 25.088-1.312 8.778-7.157 20.299-14.546 25.429-1.816 1.261-4.754 3.07-7.068 2.32-1.492-.484-2.382-1.778-3.162-3.036-1.247-2.009-2.617-3.907-3.994-5.828-2.249 12.358-2.322 25.346-3.245 37.866-1.991 26.981-3.518 54.048-5.783 80.998l-6.469 79.848c-.505 5.639-1.454 11.192-2.353 16.778-.361 2.239-1.129 4.971-1.107 7.226.02 2.133 1.516 4.079 1.654 6.287.467 7.42-.017 14.85.832 22.273 2.025 17.714 9.884 42.968 2.305 59.843-1.888 4.204-5.143 7.082-9.432 8.698-6.871 2.589-15.272 2.263-21.933-.708-7.761-3.461-13.489-9.786-16.392-17.737-1.12-3.067-1.794-6.293-2.18-9.53-.859-7.201-.524-14.706-.946-21.97-.63-10.859-2.291-22.115-1.575-32.981.363-5.511 1.327-11.668 3.742-16.677q.11-.225.224-.448c-5.646-9.745-2.317-27.803-1.684-38.714.337-6.21.424-12.43.259-18.646l.085-.611c1.117-8.601.329-18.079.321-26.765l-.592-60.362c-.054-11.394-.163-22.895.276-34.278.486-12.6 1.535-25.599 1.198-38.196-.042-1.546.005-3.155-.984-4.426-6.323 7.007-3.514 96.453-3.42 110.473.081 12.141-.532 24.252-.573 36.384-.026 7.739.509 15.41.296 23.168-.162 5.915-.147 11.954-.997 17.816-.688 4.752-2.979 9.336-2.694 14.144.013.21.037.419.055.628-.889 1.415-2.279 1.901-3.716 2.685.134 4.354.881 13.562-1.149 17.343-1.015 1.892-5.71 4.121-7.735 4.849-5.821 2.094-14.078-.099-19.414-2.894-11.105-5.817-21.178-18.28-24.785-30.274-.926-3.078-1.615-6.793.13-9.719 2.718-4.554 8.567-6.855 13.464-8.088-.848-11.961-3.104-23.731-4.346-35.644a2928 2928 0 0 1-8.634-102.057c-.863-11.967-2.644-23.827-3.054-35.825-1.488 3.161-3.197 9.597-6.574 11.002-.821.342-1.197.518-1.869 1.091-.392 1.868-.696 3.894-2.03 5.359-1.374 1.509-3.388 1.998-5.365 1.96-3.822-.074-7.526-2.163-10.093-4.902-4.851-5.175-7.454-13.091-8.149-20.041-1.726-17.281 2.266-44.363 3.957-62.536 2.212-23.771 3.959-47.529 5.814-71.327.929-11.922 2.309-23.77 2.919-35.722-1.532-1.363-4.13-3.384-5.026-5.198-1.158-2.346-.963-5.983-.739-8.499.457-5.156 2.102-10.446 3.2-15.506 2.651-12.226 5.199-24.33 8.716-36.349 2.393-8.177 5.129-16.951 9.601-24.25 6.99-11.406 19.99-21.519 31.612-27.891m22.827-92.89c-12.851 23.63-5.486 63.866 1.865 88.447q.529 1.785 1.098 3.557c-7.594 1.344-15.303 2.381-22.686 4.672 16.87 3.691 32.262 7.822 49.733 5.558 7.724-1.562 15.773-2.859 22.803-6.602-13.075-3.08-32.287-4.39-45.67-3.122l-.139-.872c-1.067-6.488-2.933-12.887-4.533-19.261-3.687-14.688-6.047-28.113-5.52-43.361.319-9.196 2.541-17.939 5.428-26.626.273-.824.278-.977-.464-1.553-.438-.341-1.438-.647-1.915-.837m-23.205 99.675c-9.164 6.109-17.96 12.575-24.517 21.573-10.6 14.546-18.107 54.065-21.91 72.811-.541 2.665-.99 5.33-1.031 8.055l.455.409c3.733 3.291 13.214 10.6 18.401 10.404.617-.024 1.325-.075 1.751-.581 1.661-1.974 6.118-46.204 6.785-52.111.559-4.949.558-10.74 2.038-15.488.421-1.349.874-2.202 2.116-2.959 1.127.101 1.206.082 2.043.83.901 3.511.386 7.987.091 11.581-.994 12.137-2.801 24.27-4.202 36.371-2.193 18.95-4.161 37.996-5.989 56.983-2.096 21.786-3.613 43.476-6.431 65.2-.901 6.945-1.315 14.722-3.184 21.463a166.05 166.05 0 0 0 113.302 10.77c6.509-2.045 22.077-8.01 26.749-13.07 1.525-4.549-1.526-26.153-2.114-32.679l-14.615-151.131c-.257-2.863-1.774-10.18.897-11.779 1.54.388 2.47 1.551 3.267 2.865.895 1.473 1.611 3.116 1.846 4.83.911 6.636.866 13.647 1.339 20.34 1.062 15.044 2.381 30.551 4.87 45.426 7.254-2.66 15.534-6.373 20.973-12.055-.957-10.479-3.669-20.666-6.195-30.853-5.283-21.313-10.129-45.666-27.97-60.379-3.066-2.529-6.332-4.282-9.842-6.104-6.562 2.548-13.089 5.201-19.989 6.706-18.041 3.932-39.669 1.147-56.496-6.353-.774-.345-1.619-.864-2.438-1.075m116.02 110.133c-4.576 2.144-9.156 4.09-13.946 5.709 1.404 11.538 3.038 23.107 4.097 34.681.963 10.529 1.328 21.117 2.354 31.636.699 7.172 6.65 53.323 4.432 56.109-.595.747-1.29 1.123-2.091 1.612a510 510 0 0 0-4.543 32.596c4.174-6.766 6.759-12.953 9.51-20.388 1.13-.225 1.629-.479 2.621.307 1.377 1.09 1.9 2.784 1.85 4.479-.252 8.434-11.657 21.104-10.881 23.312 1.239.07 1.74-.297 2.762-.955l.302-.814c3.776-4.95 6.89-9.009 8.424-15.213l4.223 1.686c-3.216 13.17-9.418 13.697-12.288 21.331.64.989.715 1.015 1.818 1.443 2.896-.517 4.948-3.497 6.534-5.789 3.669-5.302 6.559-11.771 7.081-18.267.607-7.562-1.682-25.481-2.443-33.623l-4.66-54.109-4.152-48.444c-.418-5.185.199-11.119-.688-16.172-.064-.363-.163-.799-.316-1.127m-157.391 4.196c-.031 13.689-2.242 28.826-3.403 42.581a5526 5526 0 0 1-6.594 80.063c-1.15 13.433-4.178 28.523-2.81 41.888.639 6.236 3.596 14.738 8.084 19.202 1.333 1.326 3.247 2.545 5.219 2.361.301-.028.588-.144.882-.216.397-.983.458-1.162.345-2.27-4.76-5.717-12.228-14.202-11.218-22.289.166-1.328.708-2.785 1.767-3.647.591-.481.852-.269 1.545-.187 3.443 4.409-1.207 14.466 11.425 21.043 1.202-.076 1.173.162 2.053-.779-2.324-6.218-8.923-7.843-10.044-16.985-.209-1.702-.336-3.528.258-5.167 1.23-.165 1.929-.53 3.016.152 2.009 6.749 4.387 12.481 9.993 17.073l-.234-.695c-1.469-4.264-4.188-7.83-5.759-11.99-1.382-3.662-1.244-7.543-2.012-11.315-.512-2.517-1.713-4.904-2.003-7.468-.138-1.226-.059-2.642.541-3.75.344-.637.689-.79 1.335-.982 1.873.783 2.548 1.978 3.3 3.828 2.172 5.337 2.193 11.006 3.529 16.525 1.113 4.604 3.324 8.435 5.702 12.474.646-12.376-1.233-16.541-3.937-28.133-1.121-4.805-1.747-9.808-2.512-14.685-2.088-.403-4.491-.562-6.194-1.91-1.343-5.476 4.16-34.102 5.053-42.42 1.325-12.35 2.095-24.734 3.274-37.092 1.287-13.47 2.992-26.996 3.719-40.508-4.86-.634-9.777-2.894-14.32-4.702m30.525 351.084c-.138.175-.273.353-.413.526-2.299 2.847-7.344 3.964-6.865 8.221.914 8.128 11.844 20.786 18.175 25.586 5.191 3.936 11.396 4.637 17.675 4.371 1.856-.171 3.713-.311 5.55-.635.948-4.544.621-8.96 1.064-13.53-8.817.293-20.125.941-26.955-5.782-5.351-5.266-5.293-17.982-6.433-18.517-.548-.257-1.199-.16-1.798-.24m67.731 21.251c-4.115 1.685-6.923 3.505-10.103 6.613-.519 1.49-.649 2.319-.526 3.891l.548.509c2.149-.372 3.572-1.328 5.427-2.423 6.22-3.671 11.148-3.161 17.515.037 3.842 1.942 7.379 3.786 10.6 6.691-1.004-4.968-2.323-9.215-6.807-12.187-4.535-3.007-11.312-3.588-16.654-3.131m2.844 12.669c-5.464 1.761-8.783 2.873-11.53 8.271-2.273 4.466-3.678 9.753-4.08 14.739-.837 10.372.891 21.389 1.467 31.787.391 7.044.138 14.183.907 21.194.352 3.208.909 6.524 1.959 9.584 2.106 6.136 7.211 10.651 12.983 13.298 1.842.845 3.73 1.412 5.683 1.942 3.551-.023 7.148.066 10.68-.309 1.508-5.073 2.618-10.717 2.462-16.033-.135-4.584-1.711-9.435-2.651-13.924a185 185 0 0 1-2.442-15.459c-.61-5.138-1.306-10.354-1.541-15.523-.322-7.094.019-13.958-1.052-21.033-.654-4.322-1.683-8.799-3.69-12.715-1.075-2.096-3.227-4.353-5.549-5.014-.612-.173-1.353-.175-1.985-.243-.653-.07-1.061-.226-1.621-.562m17.22 8.182c2.687 14.721 2.445 29.438 3.896 44.265.944 9.65 3.6 19.028 5.068 28.579.509 3.31-.391 7.369.533 10.446 1.349-3.943 1.398-7.808 1.417-11.929a104 104 0 0 0-2.256-22.733c-1.136-5.587-2.754-11.217-3.255-16.903-.76-8.627 1.763-19.796-1.986-27.763-.806-1.713-1.943-2.823-3.417-3.962"/><path d="M638.602 163.126c1.249-6.621 2.42-12.971 6.428-18.588 4.516-6.329 10.677-9.175 18.159-10.356 4.414.2 8.249 1.536 11.722 4.343 7.443 6.014 10.154 17.588 11.195 26.67.724 6.316 1.138 12.768 1.345 19.121.179 5.486-.322 10.946-.31 16.428.013 5.494.476 10.981.506 16.478.041 7.341-.4 14.668-.719 21.998-.101 2.321.174 6.126-.618 8.212-.398 1.048-1.44 2.159-2.14 3.029l-.444.546c-.498 3.142 7.535 16.641 9.606 19.993a21 21 0 0 1 1.66-.95c7.323-3.663 14.315-4.49 22.081-1.635 23.121 8.5 17.198 46.667 17.143 65.751-.032 10.955 1.166 21.839.598 32.811-.412 7.977-2.683 17.451-1.201 25.318 1.37 7.266 5.896 15.883 8.131 23.284 4.108 13.599 6.565 27.707 11.05 41.194 4.601 13.831 11.543 26.557 17.844 39.641 2.444-1.196 4.806-2.587 7.584-2.632 7.725-.125 13.585.254 19.38 5.98 24.307 24.019 13.728 92.196 13.893 124.298 3.781 4.773 9.159 20.248 11.822 26.375 11.019 25.343 23.182 50.296 33.01 76.155 1.23 3.236 6.163 18.161 8.292 19.337 4.162 2.299 18.176.524 23.536.729 5.028.193 10.171.673 15.148 1.396 11.749 1.707 25.195 5.765 35.884 10.927 6.933 3.348 13.179 8.001 15.705 15.616 2.125 6.408.361 25.602.53 33.477.174 8.062 1.314 16.308.879 24.352-.27 5-.57 12.062-2.981 16.549-1.868 3.474-5.343 4.869-8.936 5.9 4.121 4.343 7.122 8.62 8.522 14.537 1.778 7.517 2.064 16.933 2.069 24.684.004 5.954-1.257 11.569-1.641 17.437-.456 6.965-.168 29.712-3.947 34.542-2.104 2.69-7.004 4.003-10.076 5.55-3.467 1.747-6.62 4.084-10.073 5.853-9.26 4.744-21.574 8.716-31.817 10.401-33.399 5.497-78.03 3.269-108.861-11.217-3.06-1.438-6.82-2.543-9.504-4.618-1.079-.834-1.716-1.671-2.145-2.986-1.415-4.341-1.265-17.78-1.785-23.42-.984-14.903-.943-30.571-.445-45.5.338-10.156 6.054-13.574 12.825-19.859-2.902-2.514-5.942-4.5-9.198-6.523-2.132-8.65-2.448-17.057-3.207-25.875-.733-8.515-1.724-16.979-1.662-25.542.048-6.639-.066-21.568 2.133-27.563 1.005-2.742 2.808-5.181 4.916-7.18 3.384-3.208 7.615-5.54 11.715-7.694 16.048-8.431 31.746-9.64 49.438-11.018 5.636-.439 11.269-1.444 16.932-1.21-4.491-10.047-8.289-20.426-12.561-30.573l-21.45-49.878c-4.702-11.033-9.188-22.295-14.514-33.04-.25 9.351.448 20.003-1.503 29.107-5.447 2.672-11.539 3.114-17.527 3.264-13.725.345-29.545-1.885-39.818-11.855-2.4-2.33-4.455-5.008-5.23-8.317-1.614-6.896-.333-15.419-.253-22.48.064-5.643-.658-11.278-.541-16.909.133-6.437.976-12.873 1.258-19.309.29-6.619-.009-13.247-.047-19.869-.135-23.623 3.027-50.856 20.306-68.376-2.22-4.665-5.167-8.939-7.752-13.405-3.439-5.941-6.769-12.735-9.195-19.158-5.439-14.402-8.397-29.557-12.372-44.383-2.194-8.181-5.013-16.156-7.909-24.11-3.263 2.628-7.559 4.344-11.688 4.92-9.484 1.325-24.901-1.465-32.473-7.458-2.471-1.956-4.209-4.025-5.195-7.027-2.044-6.229-1.52-13.808-1.562-20.333-.063-9.941-.218-19.865-.106-29.808.081-7.239.71-15.005-.107-22.178-.369-3.241-2.185-6.214-3.322-9.231-2.323-6.165-7.153-19.398-7.707-25.416-.145-1.577.015-2.448 1.065-3.623l.966.056c4.141 4.464 8.288 18.298 10.758 24.47 1.142-9.576 4.801-18.297 8.881-26.928-3.494-5.244-9.266-16.571-10.126-22.686-2.621.51-5.239 1.029-7.903 1.264-8.314.731-20.49.319-27.092-5.442-2.206-1.925-3.277-4.149-3.947-6.978-1.267-5.353-1.234-11.466-1.512-16.958a711 711 0 0 1-.844-40.972c.013-3.398.804-10.33.059-13.285-.329-1.305-1.402-1.409-2.515-1.928-1.803-2.145-6.308-17.019-6.935-20.18-.437-2.207-.745-4.025.543-5.961l1.012-.184c3.54 2.949 7.285 15.902 8.887 20.611m24.309-23.036c-6.062 1.509-10.406 3.489-13.778 9.091-2.117 3.518-2.999 7.341-3.603 11.356-2.907 19.304-1.722 46.599-.834 66.239.217 4.814-.108 10.368 1.198 15.002.581 2.062 2.206 3.341 4.078 4.217 3.346 1.566 7.713 2.047 11.366 2.501 6.076-.005 12.849-.203 18.622-2.282.93-13.815.989-27.385 1.024-41.212.039-15.274.645-31.995-2.766-46.984-1.091-4.794-2.791-9.622-6.05-13.397-2.067-2.392-5.114-4.465-8.37-4.531-.295-.006-.591 0-.887 0m41.399 132.953c-6.293 2.062-9.96 5.581-12.993 11.481-6.346 12.347-5.12 24.618-5.663 37.969-.237 5.806-.913 11.587-1.089 17.395-.286 9.455-.001 19.042.052 28.51.035 6.371.883 12.699.823 19.082 4.029 5.92 9.894 7.934 16.643 9.277a83 83 0 0 0 4.292.706c5.409.112 13.793.482 18.014-3.533 3.832-3.645 3.793-29.638 3.691-35.929-.133-8.189-.534-16.35-.452-24.546.138-13.779 3.637-44.958-6.773-55.131-3.65-3.567-8.49-5.603-13.603-5.533-.984.014-1.967.127-2.942.252M783.7 499.26c-6.547.288-11.011 2.137-15.522 7.106-5.17 5.696-8.785 13.733-10.702 21.119-4.87 18.763-4.592 38.248-5.065 57.448-.162 6.579-.827 13.144-.979 19.722-.186 8.09.272 16.252.436 24.345.101 4.934-.45 10.084-.069 14.976.27 3.467 2.578 6.352 5.188 8.518 5.27 4.373 13.194 6.589 19.892 7.337 2.436-.128 4.868.353 7.29.586 6.528.627 12.627.097 18.855-1.961.177-18.155 1.744-36.33 2.797-54.453 1.513-26.022 6.472-79.729-12.575-99.869-2.301-2.433-5.672-5.022-9.204-4.938-.116.003-.228.043-.342.064m76.099 253.937c-5.5.479-10.924 1.49-16.422 1.952-21.294 1.791-45.734 2.63-60.576 20.463a24 24 0 0 0-1.513 2.03c8.12 11.141 21.368 16.682 34.757 18.786 11.191 1.759 23.16 3.015 34.506 3.337 6.763.192 13.586-.267 20.333.107 11.463-.632 22.453-1.751 33.817-3.308 12.917-1.77 31.287-2.918 40.437-13.67 1.62-1.903 2.659-4.185 2.464-6.724-.23-3.003-2.14-5.499-4.456-7.28-3.583-2.757-8.254-4.507-12.407-6.253-19.714-8.293-32.593-9.85-53.754-9.823-5.617.008-11.605-.237-17.186.383m77.725 107.27c-10.115 5.011-22.707 6.845-33.704 9.139-5.131 1.071-10.229 2.5-15.385 3.408-27.009 4.754-47.442 2.161-73.842-4.082-6.701-1.585-13.238-4.535-19.943-5.849-3.605 3.201-10.999 8.172-12.487 12.707.048 1.719.553 2.608 1.777 3.748 2.596 2.418 6.433 4.168 9.529 5.928 15.451 7.885 34.042 11.78 51.205 13.192 5.209.429 10.453.307 15.667.635 6.508.409 12.98 1.761 19.489 2 11.231.414 35.124-2.821 45.676-6.265 7.664-2.502 14.621-7.277 18.197-14.727 1.811-3.774 2.728-8.784 1.322-12.835-.962-2.771-3.109-5.222-5.778-6.47-.554-.259-1.131-.388-1.723-.529"/><path d="M329.853 271.076c2.484-4.626 10.889-16.837 10.036-21.661-.093-.525-.223-1.042-.312-1.567-1.268-7.542-1.207-15.634-1.507-23.284-.78-19.869-2.056-47.157 1.506-66.518.978-5.315 2.747-11.236 6.176-15.523 3.57-4.463 8.723-6.174 14.17-6.839 3.842-.514 8.682.733 11.989 2.767 8.749 5.381 10.881 16.652 12.872 25.958 1.913-6.954 3.79-14.273 7.147-20.683.657-1.254 1.096-1.881 2.459-2.291 1.004.7 1.495 1.197 1.794 2.434.733 3.03-6.646 26.083-8.61 29.176-.74 1.165-1.578 2.212-1.746 3.632-.624 5.261.338 11.485.538 16.823.47 12.558 1.086 40.061-1.056 51.657-1.335 1.292-2.821 2.382-4.327 3.465-11.089 7.978-22.774 7.437-35.737 5.353-3.402 7.199-6.69 14.783-11.04 21.466 5.905 9.98 7.777 18.265 9.049 29.676 2.372-5.929 7.989-26.159 12.22-28.952l.946.212c.401.57.724 1.073.826 1.78 1.442 9.939-11.98 32.405-12.649 43.331-.975 15.938 4.534 61.209-4.144 72.886-4.183 5.629-14.774 8.19-21.458 9.037-9.129 1.156-17.341.638-24.828-5.218-2.809 8.139-5.948 16.233-8.242 24.534-2.785 10.078-4.637 20.474-7.826 30.433-2.224 6.947-5.562 13.483-8.493 20.146-4.02 9.139-7.699 18.795-12.793 27.383l.67.589c10.251 8.909 17.569 30.103 18.773 43.38 1.504 16.572 1.344 32.971 1.825 49.572.466 16.079 2.117 32.809-.324 48.8-.561 3.675-1.533 7.801-3.98 10.672-7.462 8.753-18.966 11.601-29.986 12.476-4.491.356-24.11.907-26.826-1.433-2.968-5.73-2.345-24.37-2.573-31.649-6.822 14.242-12.379 29.345-18.65 43.874-10.01 23.195-20.581 46.131-30.487 69.373 20.662 1.145 62.876 6.056 77.122 21.312 8.283 8.87 6.709 29.917 6.456 41.779-.191 8.967-.127 33.814-3.715 40.694-1.894 3.631-6.231 6.741-9.198 9.587 1.514 1.419 3.058 2.845 4.439 4.395 11.526 12.933 9.716 26.658 8.656 42.818q.032 1.596.008 3.193c-.175 8.301-.612 30.026-2.673 36.749-.372 1.214-1.143 2.14-2.056 2.992-3.799 3.546-9.557 5.777-14.321 7.655-21.513 8.479-49.991 13.99-72.963 13.447-23.742-.561-45.056-5.711-66.459-15.947-5.646-2.7-11.785-5.542-16.168-10.144-3.335-14.534-4.559-31.233-4.52-46.154.013-5.085.677-10.198.96-15.275.728-13.116.428-19.441 10.28-29.297-2.982-1.66-6.023-3.306-8.268-5.94-1.531-1.796-2.655-3.982-3.11-6.305-2.39-12.24-.384-31.553-.002-44.263.197-6.568-.277-13.315.44-19.844.825-7.499 3.605-11.413 9.4-16.015 5.273-4.186 11.556-7.601 17.915-9.805 15.31-5.307 45.952-8.396 61.965-6.428 4.357-11.742 9.801-23.129 14.819-34.597l27.092-62.258c2.929-6.849 9.92-20.129 11.29-26.743 1.203-5.81-.501-17.721-.977-24.161-1.975-26.722-4.153-58.962 6.248-84.313 3.284-8.006 8.039-14.366 16.305-17.678 6.689-2.679 12.278-2.079 18.733.619 3.351-7.27 6.46-14.651 9.823-21.917 3.09-6.672 6.658-13.379 8.989-20.357 4.572-13.684 6.803-28.099 11.172-41.892 1.225-3.866 2.568-7.741 4.105-11.495 1.326-3.24 3.66-7.068 4.228-10.468.755-4.521-1.722-10.88-1.894-15.674-.568-15.924.119-31.701.255-47.614.086-10.124-.758-20.632.525-30.678.715-5.601 2.17-11.674 4.745-16.73 2.678-5.258 10.22-10.407 15.8-12.095 7.128-2.157 12.934.293 19.152 3.58m28.347-129.54c-5.458 2.469-8.65 5.145-10.815 10.939-6.608 17.69-2.772 71.952-2.896 93.453 6.094 3.63 13.552 4.484 20.495 3.3 5.489-1.256 9.453-2.804 14.105-5.974 1.357-18.244.97-37.005.636-55.292-.137-7.502.343-15.295-.762-22.711-.913-6.132-2.732-13.996-6.835-18.816a14.23 14.23 0 0 0-10.108-4.976c-.672-.028-1.341.006-2.013.026zm-43.695 130.971c-7.545 3.435-12.689 5.829-15.8 14.034-1.28 3.378-2.324 6.788-2.718 10.389-1.163 10.646-.438 22.044-.485 32.78-.063 14.436-.692 29.145.017 43.553.303 6.163.405 14.083 2.792 19.794.8 1.911 2.763 3.145 4.628 3.855 4.876 1.854 11.806 1.464 16.895.676 5.315-1.194 13.025-2.775 16.307-7.556 1.231-1.793 1.722-4.102 2.013-6.221 1.785-13.002.895-26.813.778-39.92-.087-9.753.305-19.56-.236-29.298-.352-6.331-.842-12.826-2.267-19.013-1.787-7.755-4.597-16.233-11.827-20.548-3.251-1.941-6.353-2.71-10.097-2.525m-74.247 227.588c-6.37 1.424-11.094 4.894-14.588 10.405-15.825 24.962-7.631 89.842-5.587 119.668.54 7.881-.344 20.478 1.182 27.597.3 1.402.505 2.206 1.657 3.076 6.617 1.028 17.646.253 24.201-1.049 7.608-1.027 16.682-3.503 21.578-9.899 2.054-2.682 3.004-6.178 3.464-9.483 2.282-16.4.294-37.65-.162-54.379-.412-15.108.086-30.94-2.349-45.886-1.948-11.955-8.231-29.656-18.436-37.055-3.594-2.606-6.567-3.235-10.96-2.995M138.459 751.792c-20.725 1.703-46.771 2.903-61.225 20.117-.151.18-.296.363-.444.545.327 3.023.655 5.993 1.31 8.967 3.01 3.24 6.63 6.344 10.737 8.079 12.881 5.441 27.294 5.332 40.928 6.905 10.708 1.235 21.401 2.81 32.189 3.262 5.634.236 11.562-.081 17.167-.748 23.905-2.647 40.996-1.801 61.833-15.724l.501-5.013c-3.538-8.291-11.658-12.649-19.725-15.879-17.707-7.09-63.653-12.542-83.271-10.511M85.876 859.395c-4.046 3.576-7.428 8.016-7.837 13.602-.365 4.997 2.429 11.392 5.845 15.029 7.895 8.407 43.78 12.233 55.394 12.163 9.019-.055 17.935-.857 26.926-1.449 6.966-.459 14.028-.453 20.96-1.223 14.313-1.591 30.414-5.719 43.462-11.716 3.207-1.47 8.677-3.2 10.331-6.48.72-1.427.308-3.158-.3-4.544-2.086-4.754-7.149-9.375-11.778-11.73-23.936 7.086-49.476 14.16-74.637 11.913-15.727-1.405-31.044-5.404-46.34-9.117-7.092-1.722-15.363-5.032-22.026-6.448"/><path fill="#FEFEFE" d="M661.338 248.496c-3.653-.454-8.02-.935-11.366-2.501-1.872-.876-3.497-2.155-4.078-4.217-1.306-4.634-.981-10.188-1.198-15.002-.888-19.64-2.073-46.935.834-66.239.604-4.015 1.486-7.838 3.603-11.356 3.372-5.602 7.716-7.582 13.778-9.091.296 0 .592-.006.887 0 3.256.066 6.303 2.139 8.37 4.531 3.259 3.775 4.959 8.603 6.05 13.397 3.411 14.989 2.805 31.71 2.766 46.984-.035 13.827-.094 27.397-1.024 41.212-5.773 2.079-12.546 2.277-18.622 2.282"/><path fill="#FEFEFE" d="M344.489 245.928c.124-21.501-3.712-75.763 2.896-93.453 2.165-5.794 5.357-8.47 10.815-10.939l1.807-.051c.672-.02 1.341-.054 2.013-.026a14.23 14.23 0 0 1 10.108 4.976c4.103 4.82 5.922 12.684 6.835 18.816 1.105 7.416.625 15.209.762 22.711.334 18.287.721 37.048-.636 55.292-4.652 3.17-8.616 4.718-14.105 5.974-6.943 1.184-14.401.33-20.495-3.3"/><path fill="#FEFEFE" d="M496.067 255.699a162 162 0 0 1-1.098-3.557c-7.351-24.581-14.716-64.817-1.865-88.447.477.19 1.477.496 1.915.837.742.576.737.729.464 1.553-2.887 8.687-5.109 17.43-5.428 26.626-.527 15.248 1.833 28.673 5.52 43.361 1.6 6.374 3.466 12.773 4.533 19.261l.139.872c13.383-1.268 32.595.042 45.67 3.122-7.03 3.743-15.079 5.04-22.803 6.602-17.471 2.264-32.863-1.867-49.733-5.558 7.383-2.291 15.092-3.328 22.686-4.672"/><path fill="#FEFEFE" d="M422.441 365.809c.041-2.725.49-5.39 1.031-8.055 3.803-18.746 11.31-58.265 21.91-72.811 6.557-8.998 15.353-15.464 24.517-21.573.819.211 1.664.73 2.438 1.075 16.827 7.5 38.455 10.285 56.496 6.353 6.9-1.505 13.427-4.158 19.989-6.706 3.51 1.822 6.776 3.575 9.842 6.104 17.841 14.713 22.687 39.066 27.97 60.379 2.526 10.187 5.238 20.374 6.195 30.853-5.439 5.682-13.719 9.395-20.973 12.055-2.489-14.875-3.808-30.382-4.87-45.426-.473-6.693-.428-13.704-1.339-20.34-.235-1.714-.951-3.357-1.846-4.83-.797-1.314-1.727-2.477-3.267-2.865-2.671 1.599-1.154 8.916-.897 11.779l14.615 151.131c.588 6.526 3.639 28.13 2.114 32.679-4.672 5.06-20.24 11.025-26.749 13.07a166.05 166.05 0 0 1-113.302-10.77c1.869-6.741 2.283-14.518 3.184-21.463 2.818-21.724 4.335-43.414 6.431-65.2 1.828-18.987 3.796-38.033 5.989-56.983 1.401-12.101 3.208-24.234 4.202-36.371.295-3.594.81-8.07-.091-11.581-.837-.748-.916-.729-2.043-.83-1.242.757-1.695 1.61-2.116 2.959-1.48 4.748-1.479 10.539-2.038 15.488-.667 5.907-5.124 50.137-6.785 52.111-.426.506-1.134.557-1.751.581-5.187.196-14.668-7.113-18.401-10.404z"/><path fill="#FEFEFE" d="M319.834 397.588c-5.089.788-12.019 1.178-16.895-.676-1.865-.71-3.828-1.944-4.628-3.855-2.387-5.711-2.489-13.631-2.792-19.794-.709-14.408-.08-29.117-.017-43.553.047-10.736-.678-22.134.485-32.78.394-3.601 1.438-7.011 2.718-10.389 3.111-8.205 8.255-10.599 15.8-14.034 3.744-.185 6.846.584 10.097 2.525 7.23 4.315 10.04 12.793 11.827 20.548 1.425 6.187 1.915 12.682 2.267 19.013.541 9.738.149 19.545.236 29.298.117 13.107 1.007 26.918-.778 39.92-.291 2.119-.782 4.428-2.013 6.221-3.282 4.781-10.992 6.362-16.307 7.556"/><path fill="#FEFEFE" d="M685.44 387.48c.06-6.383-.788-12.711-.823-19.082-.053-9.468-.338-19.055-.052-28.51.176-5.808.852-11.589 1.089-17.395.543-13.351-.683-25.622 5.663-37.969 3.033-5.9 6.7-9.419 12.993-11.481.975-.125 1.958-.238 2.942-.252 5.113-.07 9.953 1.966 13.603 5.533 10.41 10.173 6.911 41.352 6.773 55.131-.082 8.196.319 16.357.452 24.546.102 6.291.141 32.284-3.691 35.929-4.221 4.015-12.605 3.645-18.014 3.533a83 83 0 0 1-4.292-.706c-6.749-1.343-12.614-3.357-16.643-9.277"/><path fill="#FEFEFE" d="M571.973 379.212c4.79-1.619 9.37-3.565 13.946-5.709.153.328.252.764.316 1.127.887 5.053.27 10.987.688 16.172l4.152 48.444 4.66 54.109c.761 8.142 3.05 26.061 2.443 33.623-.522 6.496-3.412 12.965-7.081 18.267-1.586 2.292-3.638 5.272-6.534 5.789-1.103-.428-1.178-.454-1.818-1.443 2.87-7.634 9.072-8.161 12.288-21.331l-4.223-1.686c-1.534 6.204-4.648 10.263-8.424 15.213l-.302.814c-1.022.658-1.523 1.025-2.762.955-.776-2.208 10.629-14.878 10.881-23.312.05-1.695-.473-3.389-1.85-4.479-.992-.786-1.491-.532-2.621-.307-2.751 7.435-5.336 13.622-9.51 20.388a510 510 0 0 1 4.543-32.596c.801-.489 1.496-.865 2.091-1.612 2.218-2.786-3.733-48.937-4.432-56.109-1.026-10.519-1.391-21.107-2.354-31.636-1.059-11.574-2.693-23.143-4.097-34.681"/><path fill="#FEFEFE" d="M426.037 533.297c-.594 1.639-.467 3.465-.258 5.167 1.121 9.142 7.72 10.767 10.044 16.985-.88.941-.851.703-2.053.779-12.632-6.577-7.982-16.634-11.425-21.043-.693-.082-.954-.294-1.545.187-1.059.862-1.601 2.319-1.767 3.647-1.01 8.087 6.458 16.572 11.218 22.289.113 1.108.052 1.287-.345 2.27-.294.072-.581.188-.882.216-1.972.184-3.886-1.035-5.219-2.361-4.488-4.464-7.445-12.966-8.084-19.202-1.368-13.365 1.66-28.455 2.81-41.888q3.588-40.007 6.594-80.063c1.161-13.755 3.372-28.892 3.403-42.581 4.543 1.808 9.46 4.068 14.32 4.702-.727 13.512-2.432 27.038-3.719 40.508-1.179 12.358-1.949 24.742-3.274 37.092-.893 8.318-6.396 36.944-5.053 42.42 1.703 1.348 4.106 1.507 6.194 1.91.765 4.877 1.391 9.88 2.512 14.685 2.704 11.592 4.583 15.757 3.937 28.133-2.378-4.039-4.589-7.87-5.702-12.474-1.336-5.519-1.357-11.188-3.529-16.525-.752-1.85-1.427-3.045-3.3-3.828-.646.192-.991.345-1.335.982-.6 1.108-.679 2.524-.541 3.75.29 2.564 1.491 4.951 2.003 7.468.768 3.772.63 7.653 2.012 11.315 1.571 4.16 4.29 7.726 5.759 11.99l.234.695c-5.606-4.592-7.984-10.324-9.993-17.073-1.087-.682-1.786-.317-3.016-.152"/><path d="M740.483 545.851c-.435-.047-1.096-.101-1.5-.231-1.27-.409-1.677-1-2.179-2.152-4.884-11.203-7.989-23.478-11.404-35.18a2187 2187 0 0 0-11.992-39.29 488 488 0 0 0-6.074-18.227c-1.164-3.358-2.953-7.385-3.482-10.886-.203-1.344.556-2.995 1.021-4.24.661.213 1.319.428 1.964.686 2.367.95 3.533 4.708 4.466 6.974 3.356 8.154 5.757 16.844 8.429 25.246a1418 1418 0 0 1 14.636 47.747c1.933 6.49 6.626 18.965 7.268 25.117.159 1.52-.587 3.064-1.153 4.436"/><path d="M286.591 545.279c-1.932-2.461-1.821-6.098-2.106-9.114-.134-1.425-.155-2.721.162-4.125 2.742-12.17 8.407-27.26 12.266-39.417 5.488-17.289 10.417-35.277 17.059-52.149.578-1.468 1.217-2.597 2.227-3.825.758.278 1.479.678 2.202 1.036.955 1.992.083 4.874-.45 6.98-2.227 8.796-5.749 17.515-8.417 26.223z"/><path fill="#FEFEFE" d="M776.879 659.831c-6.698-.748-14.622-2.964-19.892-7.337-2.61-2.166-4.918-5.051-5.188-8.518-.381-4.892.17-10.042.069-14.976-.164-8.093-.622-16.255-.436-24.345.152-6.578.817-13.143.979-19.722.473-19.2.195-38.685 5.065-57.448 1.917-7.386 5.532-15.423 10.702-21.119 4.511-4.969 8.975-6.818 15.522-7.106.114-.021.226-.061.342-.064 3.532-.084 6.903 2.505 9.204 4.938 19.047 20.14 14.088 73.847 12.575 99.869-1.053 18.123-2.62 36.298-2.797 54.453-6.228 2.058-12.327 2.588-18.855 1.961-2.422-.233-4.854-.714-7.29-.586"/><path fill="#FEFEFE" d="M247.123 659.792c-6.555 1.302-17.584 2.077-24.201 1.049-1.152-.87-1.357-1.674-1.657-3.076-1.526-7.119-.642-19.716-1.182-27.597-2.044-29.826-10.238-94.706 5.587-119.668 3.494-5.511 8.218-8.981 14.588-10.405 4.393-.24 7.366.389 10.96 2.995 10.205 7.399 16.488 25.1 18.436 37.055 2.435 14.946 1.937 30.778 2.349 45.886.456 16.729 2.444 37.979.162 54.379-.46 3.305-1.41 6.801-3.464 9.483-4.896 6.396-13.97 8.872-21.578 9.899"/><path fill="#FEFEFE" d="M487.625 767.487c-6.279.266-12.484-.435-17.675-4.371-6.331-4.8-17.261-17.458-18.175-25.586-.479-4.257 4.566-5.374 6.865-8.221.14-.173.275-.351.413-.526.599.08 1.25-.017 1.798.24 1.14.535 1.082 13.251 6.433 18.517 6.83 6.723 18.138 6.075 26.955 5.782-.443 4.57-.116 8.986-1.064 13.53-1.837.324-3.694.464-5.55.635"/><path fill="#FEFEFE" d="M539.645 758.661c-6.367-3.198-11.295-3.708-17.515-.037-1.855 1.095-3.278 2.051-5.427 2.423l-.548-.509c-.123-1.572.007-2.401.526-3.891 3.18-3.108 5.988-4.928 10.103-6.613 5.342-.457 12.119.124 16.654 3.131 4.484 2.972 5.803 7.219 6.807 12.187-3.221-2.905-6.758-4.749-10.6-6.691"/><path fill="#FEFEFE" d="M76.79 772.454c.148-.182.293-.365.444-.545 14.454-17.214 40.5-18.414 61.225-20.117 19.618-2.031 65.564 3.421 83.271 10.511 8.067 3.23 16.187 7.588 19.725 15.879l-.501 5.013c-20.837 13.923-37.928 13.077-61.833 15.724-5.605.667-11.533.984-17.167.748-10.788-.452-21.481-2.027-32.189-3.262-13.634-1.573-28.047-1.464-40.928-6.905-4.106-1.735-7.726-4.839-10.737-8.079-.655-2.974-.983-5.944-1.31-8.967m79.709-11.296c-6.094 1.012-12.039 2.061-15.808 7.553-2.961 4.316-4.203 10.521-3.142 15.659q.23 1.087.518 2.158c7.596 6.708 17.312 6.436 26.809 5.937 5.702-.113 11.169-.014 15.52-4.338 2.802-2.784 4.244-6.571 4.153-10.507-.094-4.032-1.903-7.587-4.892-10.255-5.726-5.111-15.234-6.876-22.723-6.248q-.218.019-.435.041"/><path fill="#FEFEFE" d="M781.288 777.642c.473-.708.967-1.375 1.513-2.03 14.842-17.833 39.282-18.672 60.576-20.463 5.498-.462 10.922-1.473 16.422-1.952 5.581-.62 11.569-.375 17.186-.383 21.161-.027 34.04 1.53 53.754 9.823 4.153 1.746 8.824 3.496 12.407 6.253 2.316 1.781 4.226 4.277 4.456 7.28.195 2.539-.844 4.821-2.464 6.724-9.15 10.752-27.52 11.9-40.437 13.67-11.364 1.557-22.354 2.676-33.817 3.308-6.747-.374-13.57.085-20.333-.107-11.346-.322-23.315-1.578-34.506-3.337-13.389-2.104-26.637-7.645-34.757-18.786m75.021-14.463c-4.515.459-13.359 1.653-16.339 5.352-1.99 2.469-1.602 13.355-.833 16.395.578 2.283 2.466 3.911 4.482 4.97 6.4 3.363 16.481 3.603 23.433 2.324 7.738-1.739 13.232-3.156 18.981-9.121l-.064-8.711c-4.604-6.154-10.966-9.905-18.554-11.042-3.657-.549-7.427-.361-11.106-.167"/><path d="M138.067 786.528a41 41 0 0 1-.518-2.158c-1.061-5.138.181-11.343 3.142-15.659 3.769-5.492 9.714-6.541 15.808-7.553q.218-.022.435-.041c7.489-.628 16.997 1.137 22.723 6.248 2.989 2.668 4.798 6.223 4.892 10.255.091 3.936-1.351 7.723-4.153 10.507-4.351 4.324-9.818 4.225-15.52 4.338-9.497.499-19.213.771-26.809-5.937"/><path fill="#FEFEFE" d="M537.017 863.518c-1.953-.53-3.841-1.097-5.683-1.942-5.772-2.647-10.877-7.162-12.983-13.298-1.05-3.06-1.607-6.376-1.959-9.584-.769-7.011-.516-14.15-.907-21.194-.576-10.398-2.304-21.415-1.467-31.787.402-4.986 1.807-10.273 4.08-14.739 2.747-5.398 6.066-6.51 11.53-8.271.56.336.968.492 1.621.562.632.068 1.373.07 1.985.243 2.322.661 4.474 2.918 5.549 5.014 2.007 3.916 3.036 8.393 3.69 12.715 1.071 7.075.73 13.939 1.052 21.033.235 5.169.931 10.385 1.541 15.523a185 185 0 0 0 2.442 15.459c.94 4.489 2.516 9.34 2.651 13.924.156 5.316-.954 10.96-2.462 16.033-3.532.375-7.129.286-10.68.309"/><path d="M867.052 792.22c-6.952 1.279-17.033 1.039-23.433-2.324-2.016-1.059-3.904-2.687-4.482-4.97-.769-3.04-1.157-13.926.833-16.395 2.98-3.699 11.824-4.893 16.339-5.352 3.679-.194 7.449-.382 11.106.167 7.588 1.137 13.95 4.888 18.554 11.042l.064 8.711c-5.749 5.965-11.243 7.382-18.981 9.121"/><path fill="#FEFEFE" d="M556.345 854.175c-.924-3.077-.024-7.136-.533-10.446-1.468-9.551-4.124-18.929-5.068-28.579-1.451-14.827-1.209-29.544-3.896-44.265 1.474 1.139 2.611 2.249 3.417 3.962 3.749 7.967 1.226 19.136 1.986 27.763.501 5.686 2.119 11.316 3.255 16.903a104 104 0 0 1 2.256 22.733c-.019 4.121-.068 7.986-1.417 11.929"/><path fill="#FEFEFE" d="M230.626 885.801c-13.048 5.997-29.149 10.125-43.462 11.716-6.932.77-13.994.764-20.96 1.223-8.991.592-17.907 1.394-26.926 1.449-11.614.07-47.5-3.756-55.394-12.163-3.416-3.637-6.21-10.032-5.844-15.029.408-5.586 3.79-10.026 7.835-13.602 6.664 1.416 14.935 4.726 22.027 6.448 15.296 3.713 30.613 7.712 46.34 9.117 25.161 2.247 50.701-4.827 74.637-11.913 4.629 2.355 9.692 6.976 11.778 11.73.608 1.386 1.02 3.117.3 4.544-1.654 3.28-7.124 5.01-10.331 6.48"/><path fill="#FEFEFE" d="M794.65 863.083c6.705 1.314 13.242 4.264 19.943 5.849 26.4 6.243 46.833 8.836 73.842 4.082 5.156-.908 10.254-2.337 15.385-3.408 10.997-2.294 23.589-4.128 33.704-9.139.592.141 1.169.27 1.723.529 2.669 1.248 4.816 3.699 5.778 6.47 1.406 4.051.489 9.061-1.322 12.835-3.576 7.45-10.533 12.225-18.197 14.727-10.552 3.444-34.445 6.679-45.676 6.265-6.509-.239-12.981-1.591-19.489-2-5.214-.328-10.458-.206-15.667-.635-17.163-1.412-35.754-5.307-51.205-13.192-3.096-1.76-6.933-3.51-9.529-5.928-1.224-1.14-1.729-2.029-1.777-3.748 1.488-4.535 8.882-9.506 12.487-12.707"/></svg>