<svg xmlns="http://www.w3.org/2000/svg" width="1024" height="1024"><path fill="#FEFEFE" d="M0 0h1024v1024H0zm144 210.623c-1.723.444-2.881.724-4.19 1.964-2.27 4.334-5.201 60.837-6.414 71.617l-39.377-1.379c-6.904-.268-14.472-1.195-21.341-.59-2 .177-4.512.474-6.13 1.773-1.148.921-1.291 3.836-1.435 5.227-.867 8.372-1.114 16.884-1.673 25.287l-3.786 56.982-13.361 189.721-8.104 117.354-2.827 40.732c-.456 6.467-1.377 13.151-1.408 19.619-.013 2.528.188 4.408 2.043 6.277 1.5 1.513 6.777 1.729 8.929 1.898 7.85.616 15.773.754 23.64 1.2l64.935 3.608 197.808 11.636 27.16 1.719c5.904.36 12.002.448 17.839 1.422-6.472 10.778-9.542 22.014-6.415 34.495 4.226 16.861 18.423 29.643 32.923 38.128 21.409 12.527 54.221 21.355 78.966 23.879 10.101 1.031 20.209.998 30.348.977 14.107-.028 27.672-.616 41.409-4.245 7.053-1.863 14.012-4.261 20.957-6.499 21.012-6.77 35.803-13.548 47.42-33.413 6.86-11.73 7.857-22.315 5.818-35.528 22.094 1.021 44.151 3.165 66.226 4.541 34.275 2.137 68.72 3.755 102.918 6.849a6314 6314 0 0 1 80.056 5.1c16.504 1.117 37.637 3.851 53.701 1.913 6.389-.771 12.765-2.649 17.619-7.081 7.941-7.253 9.316-20.271 10.756-30.322 3.282-22.924 3.506-46.613 4.948-69.736l7.766-123.206 8.95-142.982a6170 6170 0 0 0 5.038-80.41c.946-15.558 2.313-31.136 2.734-46.719.24-8.879-.591-19.259-7.264-25.917-6.072-6.058-14.789-8.524-23.018-9.85-9.558-1.54-19.386-1.849-29.039-2.478l-40.598-2.779-135.962-9.799-377.567-26.021-151.111-9.74-52.869-3.362c-8.988-.586-18.063-.913-27.018-1.862"/><path d="M133.396 284.204c1.213-10.78 4.144-67.283 6.414-71.617 1.309-1.24 2.467-1.52 4.19-1.964 8.955.949 18.03 1.276 27.018 1.862l52.869 3.362 151.111 9.74 377.567 26.021 135.962 9.799 40.598 2.779c9.653.629 19.481.938 29.039 2.478 8.229 1.326 16.946 3.792 23.018 9.85 6.673 6.658 7.504 17.038 7.264 25.917-.421 15.583-1.788 31.161-2.734 46.719a6170 6170 0 0 1-5.038 80.41l-8.95 142.982-7.766 123.206c-1.442 23.123-1.666 46.812-4.948 69.736-1.44 10.051-2.815 23.069-10.756 30.322-4.854 4.432-11.23 6.31-17.619 7.081-16.064 1.938-37.197-.796-53.701-1.913a6314 6314 0 0 0-80.056-5.1c-34.198-3.094-68.643-4.712-102.918-6.849-22.075-1.376-44.132-3.52-66.226-4.541 2.039 13.213 1.042 23.798-5.818 35.528-11.617 19.865-26.408 26.643-47.42 33.413-6.945 2.238-13.904 4.636-20.957 6.499-13.737 3.629-27.302 4.217-41.409 4.245-10.139.021-20.247.054-30.348-.977-24.745-2.524-57.557-11.352-78.966-23.879-14.5-8.485-28.697-21.267-32.923-38.128-3.127-12.481-.057-23.717 6.415-34.495-5.837-.974-11.935-1.062-17.839-1.422l-27.16-1.719-197.808-11.636-64.936-3.608c-7.866-.446-15.789-.584-23.64-1.2-2.151-.169-7.427-.385-8.928-1.898-1.855-1.869-2.056-3.749-2.043-6.277.031-6.468.952-13.152 1.408-19.619l2.827-40.732 8.104-117.354 13.361-189.721 3.786-56.982c.559-8.403.806-16.915 1.673-25.287.144-1.391.287-4.306 1.434-5.227 1.62-1.299 4.13-1.596 6.13-1.773 6.87-.605 14.438.322 21.341.59zm11.939-66.93c-1.85 15.838-2.542 31.947-3.771 47.85-.483 6.261-.534 12.958-1.722 19.111-.407 2.113-.981 4.057-2.504 5.632-5.525 2.096-54.288-1.752-65.407-1.431-2.984 33.633-4.706 67.389-7.14 101.064L50.463 595.615 43.4 695.765c-1.01 14.649-2.784 29.562-2.952 44.219a8321 8321 0 0 0 117.918 6.843l159.979 9.081 98.914 6.376c15.005.96 30.13 2.505 45.157 2.796 7.088-9.792 12.939-25.242 10.969-37.522-.339-2.116-1.171-4.369-.796-6.5 1.384-1.479 3.599-1.753 5.513-2.177 4.299 16.654.181 31.852-8.077 46.536 8.801.82 17.656 1.268 26.438 2.216 8.18-9.669 12.122-24.29 11.031-36.805-.258-2.963-.809-5.928-1.313-8.857 1.889-.685 3.779-1.442 5.715-1.984 4.994 13.426 1.784 29.537-4.029 42.204-.937 2.041-2.052 4.026-2.936 6.086a835 835 0 0 0 25.003 1.606c7.693-12.298 13.391-27.378 9.992-42.114-.389-1.688-.908-3.354-1.415-5.01 2.208-.624 4.411-1.283 6.645-1.807 3.949 17.673 1.206 33.659-7.344 49.502 23.548 3.061 47.496 4.072 71.174 5.902A15044 15044 0 0 0 764.77 787.04l103.866 6.841c17.95 1.115 36.25 3.12 54.217 2.739 6.796-.144 14.777-.9 20.427-5.089 6.829-5.062 7.918-19.026 8.805-26.795 3.319-29.044 4.946-58.301 6.84-87.471l9.51-153.91 8.552-134.296a3349 3349 0 0 0 3.47-57.788c.562-10.147 1.659-20.424 1.506-30.587-.097-6.401-.817-13.447-5.05-18.55-8.68-10.465-34.317-10.457-47.038-11.328L666.55 252.073a5563 5563 0 0 1-59.562-4.118c-9.847-.715-19.899-1.98-29.76-2.073 3.557 22.659-1.04 43.482-6.135 65.443a14483 14483 0 0 0 236.097 2.138l72.555.536c13.317.059 27.364-.795 40.616.332 2.423.206 3.479.569 5.166 2.341 1.834 7.257-.093 17.915-.425 25.586a3420 3420 0 0 1-3.929 73.693c-1.146 20.712-1.29 41.651-3.213 62.298-.204 2.195-.504 5.816-1.83 7.572-1.059 1.402-3.492 1.636-5.092 1.665-13.693.251-27.683-.881-41.394-1.217l-97.012-2.579c-14.411-.412-28.85-.237-43.267-.461l-114.99-1.987-341.874-5.89-120.706-2.598c-9.306-.243-18.66-.46-27.958-.833-12.465-.499-25.563-1.362-37.987-.067-.478 5.708-1.011 11.417-1.43 17.129l430.901 8.029c143.314.446 286.617 2.8 429.869 7.061 1.383.837 2.738 1.437 3.43 2.979.932 10.442-.608 21.642-1.353 32.079a2766 2766 0 0 0-2.608 41.603l-4.778 85.13c-.78 14.141-1.076 28.482-2.385 42.57-.268 2.893-.713 6.146-2.478 8.519-6.888 1.281-14.555.593-21.562.48l-35.325-.747-112.685-1.566-543.643-8.352c-13.815-.129-153.63-.635-156.497-2.321-1.261-.741-2.263-2.263-2.485-3.68-.845-5.381 1.603-25.285 2.117-32.008l3.84-55.549L85.45 393.907c.759-10.135 5.735-85.334 7.4-87.6.77-1.047 1.752-1.209 2.982-1.336 9.063-.936 18.899-.121 28.052-.029 22.835.228 45.646 1.046 68.474 1.487l179.374 2.441q23.207.694 46.423.9c8.218.065 16.434-.239 24.65-.044 17.705.419 36.085 2.001 53.752.858 5.321-17.148 9.635-34.302 9.781-52.389.047-5.76-.709-11.456-.928-17.199-32.82-2.924-65.839-4.588-98.721-6.763l-175.715-11.459c-28.512-1.806-57.181-3.018-85.64-5.5m366.593 24.114c.785 18.078 1.234 29.399-2.835 47.549-1.63 7.27-4.244 14.541-5.47 21.845 9.278-.064 18.557.69 27.819.568 3.705-12.976 7-26.257 8.167-39.744.382-4.41-1.124-17.927.25-20.825.182-.384.619-.581.928-.871 1.21-.236 2.724-.375 3.829.365 1.224.822 1.421 1.573 1.497 2.969.351 6.444.289 13.734-.525 20.134-.95 12.497-3.528 25.613-7.155 37.598q12.695.36 25.391.064c6.574-21.003 11.176-44 6.918-65.888l-38.79-2.617c-6.589-.426-13.428-1.208-20.024-1.147m-162.823 92.698c-.996 1.156-1.496 1.977-1.763 3.496-.992 5.653-.956 11.694-1.222 17.43l-1.289 27.444a3639 3639 0 0 0-1.828 40.849c-.299 7.614-.99 15.528-.511 23.138.104 1.652.255 3.203 1.716 4.261 2.528 1.83 9.759 1.365 12.811.685 1.149-.256 2.094-.788 2.785-1.747 2.571-3.567 2.586-32.949 2.791-39.298 5.78.364 11.597 1.031 17.38 1.218q5.91 12.236 12.121 24.323c3.052 5.898 6.47 11.761 8.934 17.932.902 1.615 1.85 3.839 3.85 4.278 2.753.605 5.869-1.792 7.799-3.434 2.447-2.082 4.916-4.371 7.087-6.741-3.879-12.245-16.657-26.116-22.686-38.474 9.245-3.363 16.371-7.059 20.824-16.428 5.019-10.561 5.734-28.593 1.588-39.443-2.726-7.134-8.153-11.741-15.049-14.614-11.799-4.915-42.19-5.345-55.338-4.875m-73.272.362c-2.701 6.474-4.529 13.474-6.62 20.18l-11.761 38.196c-2.768 8.968-16.018 47.03-16.035 53.651 2.716 2.588 12.726 2.481 16.395 2.393l.62-.019c2.687-5.77 4.713-11.77 6.686-17.813q13.762.579 27.505 1.467c.748.053 1.993-.085 2.529.469 4.401 4.545 2.671 21.008 7.788 24.282.842.538 2.282.682 3.253.775 2.9.275 8.192.888 10.525-1.106 1.276-1.091 1.566-2.575 1.562-4.163-.01-4.453-1.612-9.332-2.45-13.724l-7.216-36.21c-3.353-16.133-6.609-32.243-10.251-48.316-1.439-6.351-2.458-13.463-4.656-19.575-5.865-.641-11.978-.683-17.874-.487m-96.689 1.197c-13.727 2.292-25.078 10.021-33.17 21.299a64.36 64.36 0 0 0-10.843 48.506c2.288 13.468 8.751 26.222 20.09 34.22 9.691 6.835 22.31 9.786 34.029 7.716 10.952-1.935 22.381-8.904 28.709-18.095 5.517-8.014 9.983-27.604 8.241-37.002-.129-.695-.348-1.742-.984-2.124-3.331-2-33.233-.769-38.841-.717l-.681-.001c-1.688.012-2.877-.009-4.387.777-1.368 1.601-1.359 2.913-1.188 4.909.317 3.694.038 9.186 2.674 11.993 6.121 3.014 18.647-2.569 22.75 2.724.771 2.51.47 5.823-.745 8.171-2.701 5.221-10.882 9.041-16.362 10.569a27.45 27.45 0 0 1-21.054-2.598c-7.371-4.231-12.355-11.268-14.535-19.414a46.02 46.02 0 0 1 4.79-35.304c5.09-8.661 12.737-15.321 22.629-17.772 7.831-1.94 15.637-.077 22.425 4.048 2.162 1.313 4.233 2.84 6.274 4.331 4.019-3.02 7.15-6.112 10.218-10.086-6.465-8.831-16.85-14.193-27.553-15.824-3.987-.608-8.489-.84-12.486-.326m298.34 2.879c-7.243 17.644-12.68 41.75-18.187 60.443l-9.611 32.188c-1.733 5.927-4.046 12.307-4.737 18.45 2.472 3.343 11.665 3.925 15.648 4.522 2.88-6.395 5.01-13.2 7.054-19.902 9.762.555 19.698.94 29.474.905.802.071 2.11-.053 2.678.545 3.349 3.527 4.67 17.086 6.633 22.412 6.101.505 12.243.355 18.36.337-4.556-25.739-11.73-51.188-17.835-76.606l-6.447-26.835c-1.277-5.23-2.298-10.881-4.349-15.856-6.084-.441-12.611-1.254-18.681-.603m143.197.598c-.802.859-1.402 1.488-1.821 2.61-1.146 3.067-.771 8.041-.867 11.338l-.935 33.662c-.152 4.814.341 11.011-.932 15.579-.37 1.327-.704 1.819-1.814 2.602-1.512-.271-2.048-.689-3.121-1.785-6.161-6.294-11.162-14.409-16.502-21.43-7.458-9.806-15.339-19.301-23.029-28.926-2.995-3.749-6.885-10.024-10.887-12.62-1.261-.819-3.276-.953-4.617-.14-1.373.832-1.588 3.029-1.762 4.486-.964 8.05-.914 16.442-1.266 24.546a3250 3250 0 0 0-1.684 40.214l-.783 27.508c-.084 2.992-.626 6.128-.456 9.103.064 1.114.354 2.364 1.103 3.22 2.447 2.796 7.678 2.09 11.039 2.147 1.741-.086 4.271.095 5.453-1.472 2.918-3.871 2.472-35.793 2.594-42.599.086-4.764-.535-11.135 1.188-15.586.553-1.428 1.146-1.8 2.488-2.238 1.206.206 2.11.526 3.027 1.341 3.279 2.92 6.263 7.626 9.038 11.081a2944 2944 0 0 1 27.662 35.513c2.974 3.832 7.112 10.477 11.13 13.129 1.662 1.098 3.637.908 5.404.291 1.253-1.367 1.342-2.022 1.587-3.88.745-5.647.553-11.718.737-17.43l1.08-31.439 1.348-38.208c.173-4.91.883-10.004.764-14.891-.037-1.526-.384-3.375-1.612-4.409-2.748-2.313-10.198-1.479-13.554-1.317m36.77.5c-1.854 2.892-2.562 10.555-1.86 13.833.34 1.588 1.143 2.932 2.594 3.738 5.763 3.2 25.606-3.091 27.521 3.63 1.489 5.223.239 13.069.054 18.531a2774 2774 0 0 1-1.731 44.86c-.353 7.857-1.296 16.126-.954 23.968.053 1.199.083 3.135 1.191 3.851 2.986 1.928 9.965 1.094 13.359.284 1.165-.278 1.786-.88 2.565-1.74 1.788-6.009 1.147-19.337 1.34-26.202.54-10.483 1.586-61.102 3.586-65.023 5.291-3.979 24.254 1.197 27.335-1.849 1.243-1.23 1.739-4.433 1.965-6.074.383-2.781.592-6.809-1.387-9.105-.906-1.051-2.355-1.644-3.699-1.847-5.13-.776-15.176-.092-20.78-.212-15.944-.341-32.267-1.53-48.189-.816q-1.457.065-2.91.173m103.571-.172c-1.022 1.348-1.835 2.342-2.05 4.078-.836 6.773-.577 13.983-.782 20.815l-1.254 39.411-1.115 31.523c-.199 5.125-1.013 11.245-.316 16.316.184 1.341.608 1.918 1.733 2.671 3.104 2.076 10.641 1.643 14.074.725.133-.036.265-.078.398-.117 1.746-4.435 6.717-108.266 5.184-112.875-.267-.803-1.373-1.479-2.137-1.784-3.879-1.547-9.573-.752-13.735-.763m44.265.632c-.955 1.172-1.401 1.978-1.63 3.484-2.337 15.369-1.985 35.406-2.774 51.264l-1.665 37.59c-.283 6.723-1.139 13.922-.463 20.598.099.977.269 1.782.574 2.709 1.489 1.029 2.925 1.326 4.715 1.532 10.37 1.192 21.495.556 31.954.835 8.215.22 21.994 1.764 29.426.517 1.443-.243 2.145-.658 3.1-1.794 1.363-3.842 1.639-9.812.465-13.725-6.513-5.828-41.446.182-47.963-4.349-1.352-.939-1.677-2.399-1.799-3.949-.259-3.277.282-6.656.368-9.942.223-3.416-.238-10.58 2.153-13.029 7.492-2.335 27.794.511 37.389-.427.726-4.395 2.251-11.403.135-15.494-6.167-5.028-31.75.291-37.227-4.256-1.066-.886-1.319-2.949-1.462-4.233-.461-4.135.4-23.53 1.971-26.732 1.992-1.883 5.036-1.707 7.614-1.633 6.74.193 33.381 2.813 37.945.482 2.081-2.563 2.338-10.504 1.791-13.784-.185-1.104-.581-2.115-1.626-2.656-2.329-1.207-56.985-3.307-62.991-3.008M84.405 494.983c-1.631 9.188-1.988 18.745-2.683 28.045l-3.24 44.391a5855 5855 0 0 0-9.136 131.383l607.751 8.741q125.754 2.564 251.527 3.722c1.284-.208 1.403.035 2.261-1.034 1.528-11.555 1.303-23.707 1.965-35.392l4.065-70.902 3.491-61.644c.473-8.534 2.488-23.656.887-31.569-9.407-1.2-19.037-.85-28.511-1.037l-51.196-1.005a13668 13668 0 0 0-210.814-3.306l-376.082-6.641-131.698-2.574c-19.5-.37-39.093-1.18-58.587-1.178M397.02 768.981c-4.793 6.914-6.963 14.875-5.356 23.26 2.46 12.833 14.326 22.526 24.648 29.293a138.26 138.26 0 0 0 68.677 22.137c4.612.213 10.22.587 14.725-.51a13 13 0 0 0 1.752-.586c-.228-1.661-.148-2.044-1.309-3.324-1.681-.629-21.795-.628-26.017-1.12-23.145-2.696-66.006-19.52-76.433-41.887-2.359-5.06-2.922-11.243-.942-16.535 1.257-3.361 4.108-6.027 4.916-9.555-.418-.67-.346-.901-1.181-1.093-1.174-.27-2.293-.157-3.48-.08m181.362 54.945c-5.385 2.271-10.553 5.177-16.01 7.242-3.668 1.388-7.617 2.189-11.402 3.212-2.325.628-5.197.974-6.508 3.15.219 1.067.257 1.679 1.387 2.183.241.108.516.116.774.174 7.475-1.111 27.979-7.443 33.113-12.674.269-.823.628-1.111.165-1.914-.437-.758-.784-.957-1.519-1.373"/><path fill="#FEFEFE" d="M71.931 288.436c11.119-.321 59.882 3.527 65.407 1.431 1.523-1.575 2.097-3.519 2.504-5.632 1.188-6.153 1.239-12.85 1.722-19.111 1.229-15.903 1.921-32.012 3.771-47.85 28.459 2.482 57.128 3.694 85.64 5.5l175.715 11.459c32.882 2.175 65.901 3.839 98.721 6.763.219 5.743.975 11.439.928 17.199-.146 18.087-4.46 35.241-9.781 52.389-17.667 1.143-36.047-.439-53.752-.858-8.216-.195-16.432.109-24.65.044a2204 2204 0 0 1-46.423-.9l-179.374-2.441c-22.828-.441-45.639-1.259-68.474-1.487-9.153-.092-18.989-.907-28.052.029-1.23.127-2.213.289-2.982 1.336-1.665 2.266-6.641 77.465-7.4 87.6L68.778 613.21l-3.84 55.549c-.514 6.723-2.962 26.627-2.117 32.008.222 1.417 1.224 2.939 2.485 3.68 2.868 1.686 142.682 2.192 156.497 2.321l543.643 8.352 112.685 1.566 35.325.747c7.007.113 14.674.801 21.562-.48 1.765-2.373 2.21-5.626 2.478-8.519 1.309-14.088 1.605-28.429 2.385-42.57l4.778-85.13a2766 2766 0 0 1 2.608-41.603c.745-10.437 2.285-21.637 1.353-32.079-.692-1.542-2.047-2.142-3.43-2.979a16149 16149 0 0 0-429.869-7.061L84.42 488.983c.419-5.712.952-11.421 1.43-17.129 12.424-1.295 25.522-.432 37.987.067 9.298.373 18.652.59 27.958.833l120.706 2.598 341.874 5.89 114.99 1.987c14.417.224 28.856.049 43.267.461l97.012 2.579c13.711.336 27.701 1.468 41.394 1.217 1.6-.029 4.033-.263 5.092-1.665 1.326-1.756 1.626-5.377 1.83-7.572 1.923-20.647 2.067-41.586 3.213-62.298a3420 3420 0 0 0 3.929-73.693c.332-7.671 2.259-18.329.425-25.586-1.687-1.772-2.743-2.135-5.166-2.341-13.252-1.127-27.299-.273-40.616-.332l-72.555-.536c-78.703-.071-157.405-.784-236.097-2.138 5.095-21.961 9.692-42.784 6.135-65.443 9.861.093 19.913 1.358 29.76 2.073q29.769 2.219 59.562 4.118l263.325 18.733c12.721.871 38.358.863 47.038 11.328 4.233 5.103 4.953 12.149 5.05 18.55.153 10.163-.944 20.44-1.506 30.587a3349 3349 0 0 1-3.47 57.788l-8.552 134.296-9.51 153.91c-1.894 29.17-3.521 58.427-6.84 87.471-.887 7.769-1.976 21.733-8.805 26.795-5.65 4.189-13.631 4.945-20.427 5.089-17.967.381-36.267-1.624-54.217-2.739L764.77 787.04a15044 15044 0 0 1-155.784-10.684c-23.678-1.83-47.626-2.841-71.174-5.902 8.55-15.843 11.293-31.829 7.344-49.502-2.234.524-4.437 1.183-6.645 1.807.507 1.656 1.026 3.322 1.415 5.01 3.399 14.736-2.299 29.816-9.992 42.114a835 835 0 0 1-25.003-1.606c.884-2.06 1.999-4.045 2.936-6.086 5.813-12.667 9.023-28.778 4.029-42.204-1.936.542-3.826 1.299-5.715 1.984.504 2.929 1.055 5.894 1.313 8.857 1.091 12.515-2.851 27.136-11.031 36.805-8.782-.948-17.637-1.396-26.438-2.216 8.258-14.684 12.376-29.882 8.077-46.536-1.914.424-4.129.698-5.513 2.177-.375 2.131.457 4.384.796 6.5 1.97 12.28-3.881 27.73-10.969 37.522-15.027-.291-30.152-1.836-45.157-2.796l-98.914-6.376-159.979-9.081a8321 8321 0 0 1-117.918-6.843c.168-14.657 1.941-29.57 2.952-44.219l7.063-100.15L64.791 389.5c2.434-33.675 4.156-67.431 7.14-101.064"/><path fill="#FEFEFE" d="M503.623 310.782c1.226-7.304 3.84-14.575 5.47-21.845 4.069-18.15 3.62-29.471 2.835-47.549 6.596-.061 13.435.721 20.024 1.147l38.79 2.617c4.258 21.888-.344 44.885-6.918 65.888q-12.696.296-25.391-.064c3.627-11.985 6.205-25.101 7.155-37.598.814-6.4.876-13.69.525-20.134-.076-1.396-.273-2.147-1.497-2.969-1.105-.74-2.619-.601-3.829-.365-.309.29-.746.487-.928.871-1.374 2.898.132 16.415-.25 20.825-1.167 13.487-4.462 26.768-8.167 39.744-9.262.122-18.541-.632-27.819-.568"/><path fill="#FEFEFE" d="M362.595 410.344c-.205 6.349-.22 35.731-2.791 39.298-.691.959-1.636 1.491-2.785 1.747-3.052.68-10.283 1.145-12.811-.685-1.461-1.058-1.612-2.609-1.716-4.261-.479-7.61.212-15.524.511-23.138q.8-20.43 1.828-40.849l1.289-27.444c.266-5.736.23-11.777 1.222-17.43.267-1.519.767-2.34 1.763-3.496 13.148-.47 43.539-.04 55.338 4.875 6.896 2.873 12.323 7.48 15.049 14.614 4.146 10.85 3.431 28.882-1.588 39.443-4.453 9.369-11.579 13.065-20.824 16.428 6.029 12.358 18.807 26.229 22.686 38.474-2.171 2.37-4.64 4.659-7.087 6.741-1.93 1.642-5.046 4.039-7.799 3.434-2-.439-2.948-2.663-3.85-4.278-2.464-6.171-5.882-12.034-8.934-17.932a1103 1103 0 0 1-12.121-24.323c-5.783-.187-11.6-.854-17.38-1.218m1.92-57.217c-.717 5.501-.591 11.213-.745 16.763q-.346 11.833-.907 23.659c11.39.259 26.786 3.23 36.421-4.02 4.767-5.828 7.076-14.776 6.179-22.294-.43-3.602-1.942-6.879-4.852-9.133-6.958-5.392-27.075-4.971-36.096-4.975"/><path fill="#FEFEFE" d="m258.432 448.849-.62.019c-3.669.088-13.679.195-16.395-2.393.017-6.621 13.267-44.683 16.035-53.651l11.761-38.196c2.091-6.706 3.919-13.706 6.62-20.18 5.896-.196 12.009-.154 17.874.487 2.198 6.112 3.217 13.224 4.656 19.575 3.642 16.073 6.898 32.183 10.251 48.316l7.216 36.21c.838 4.392 2.44 9.271 2.45 13.724.004 1.588-.286 3.072-1.562 4.163-2.333 1.994-7.625 1.381-10.525 1.106-.971-.093-2.411-.237-3.253-.775-5.117-3.274-3.387-19.737-7.788-24.282-.536-.554-1.781-.416-2.529-.469a1226 1226 0 0 0-27.505-1.467c-1.973 6.043-3.999 12.043-6.686 17.813m24.789-72.541c-5.773 11.65-7.865 25.259-13.017 37.293 3.644.214 7.27.407 10.921.421 3.739.105 7.54.357 11.275.224-1.168-5.441-6.872-35.825-9.179-37.938"/><path fill="#FEFEFE" d="M186.375 389.448c5.608-.052 35.51-1.283 38.841.717.636.382.855 1.429.984 2.124 1.742 9.398-2.724 28.988-8.241 37.002-6.328 9.191-17.757 16.16-28.709 18.095-11.719 2.07-24.338-.881-34.029-7.716-11.339-7.998-17.802-20.752-20.09-34.22a64.36 64.36 0 0 1 10.843-48.506c8.092-11.278 19.443-19.007 33.17-21.299 3.997-.514 8.499-.282 12.486.326 10.703 1.631 21.088 6.993 27.553 15.824-3.068 3.974-6.199 7.066-10.218 10.086-2.041-1.491-4.112-3.018-6.274-4.331-6.788-4.125-14.594-5.988-22.425-4.048-9.892 2.451-17.539 9.111-22.629 17.772a46.02 46.02 0 0 0-4.79 35.304c2.18 8.146 7.164 15.183 14.535 19.414a27.45 27.45 0 0 0 21.054 2.598c5.48-1.528 13.661-5.348 16.362-10.569 1.215-2.348 1.516-5.661.745-8.171-4.103-5.293-16.629.29-22.75-2.724-2.636-2.807-2.357-8.299-2.674-11.993-.171-1.996-.18-3.308 1.188-4.909 1.51-.786 2.699-.765 4.387-.777z"/><path fill="#FEFEFE" d="M460.597 454.127c-3.983-.597-13.176-1.179-15.648-4.522.691-6.143 3.004-12.523 4.737-18.45l9.611-32.188c5.507-18.693 10.944-42.799 18.187-60.443 6.07-.651 12.597.162 18.681.603 2.051 4.975 3.072 10.626 4.349 15.856l6.447 26.835c6.105 25.418 13.279 50.867 17.835 76.606-6.117.018-12.259.168-18.36-.337-1.963-5.326-3.284-18.885-6.633-22.412-.568-.598-1.876-.474-2.678-.545-9.776.035-19.712-.35-29.474-.905-2.044 6.702-4.174 13.507-7.054 19.902m24.774-75.811c-4.348 12.21-9.676 25.336-12.294 38.022l11.303.135q5.936.264 11.875.455c-1.301-6.344-7.898-35.847-10.884-38.612"/><path fill="#FEFEFE" d="M562.347 451.236c-3.361-.057-8.592.649-11.039-2.147-.749-.856-1.039-2.106-1.103-3.22-.17-2.975.372-6.111.456-9.103l.783-27.508q.717-20.112 1.684-40.214c.352-8.104.302-16.496 1.266-24.546.174-1.457.389-3.654 1.762-4.486 1.341-.813 3.356-.679 4.617.14 4.002 2.596 7.892 8.871 10.887 12.62 7.69 9.625 15.571 19.12 23.029 28.926 5.34 7.021 10.341 15.136 16.502 21.43 1.073 1.096 1.609 1.514 3.121 1.785 1.11-.783 1.444-1.275 1.814-2.602 1.273-4.568.78-10.765.932-15.579l.935-33.662c.096-3.297-.279-8.271.867-11.338.419-1.122 1.019-1.751 1.821-2.61 3.356-.162 10.806-.996 13.554 1.317 1.228 1.034 1.575 2.883 1.612 4.409.119 4.887-.591 9.981-.764 14.891l-1.348 38.208-1.08 31.439c-.184 5.712.008 11.783-.737 17.43-.245 1.858-.334 2.513-1.587 3.88-1.767.617-3.742.807-5.404-.291-4.018-2.652-8.156-9.297-11.13-13.129a2944 2944 0 0 0-27.662-35.513c-2.775-3.455-5.759-8.161-9.038-11.081-.917-.815-1.821-1.135-3.027-1.341-1.342.438-1.935.81-2.488 2.238-1.723 4.451-1.102 10.822-1.188 15.586-.122 6.806.324 38.728-2.594 42.599-1.182 1.567-3.712 1.386-5.453 1.472"/><path fill="#FEFEFE" d="M701.53 424.375c-.193 6.865.448 20.193-1.34 26.202-.779.86-1.4 1.462-2.565 1.74-3.394.81-10.373 1.644-13.359-.284-1.108-.716-1.138-2.652-1.191-3.851-.342-7.842.601-16.111.954-23.968a2774 2774 0 0 0 1.731-44.86c.185-5.462 1.435-13.308-.054-18.531-1.915-6.721-21.758-.43-27.521-3.63-1.451-.806-2.254-2.15-2.594-3.738-.702-3.278.006-10.941 1.86-13.833q1.454-.108 2.91-.173c15.922-.714 32.245.475 48.189.816 5.604.12 15.65-.564 20.78.212 1.344.203 2.793.796 3.699 1.847 1.979 2.296 1.77 6.324 1.387 9.105-.226 1.641-.722 4.844-1.965 6.074-3.081 3.046-22.044-2.13-27.335 1.849-2 3.921-3.046 54.54-3.586 65.023"/><path fill="#FEFEFE" d="M771.71 454.872c-.133.039-.265.081-.398.117-3.433.918-10.97 1.351-14.074-.725-1.125-.753-1.549-1.33-1.733-2.671-.697-5.071.117-11.191.316-16.316l1.115-31.523 1.254-39.411c.205-6.832-.054-14.042.782-20.815.215-1.736 1.028-2.73 2.05-4.078 4.162.011 9.856-.784 13.735.763.764.305 1.87.981 2.137 1.784 1.533 4.609-3.438 108.44-5.184 112.875"/><path fill="#FEFEFE" d="M819.595 424.852c-.086 3.286-.627 6.665-.368 9.942.122 1.55.447 3.01 1.799 3.949 6.517 4.531 41.45-1.479 47.963 4.349 1.174 3.913.898 9.883-.465 13.725-.955 1.136-1.657 1.551-3.1 1.794-7.432 1.247-21.211-.297-29.426-.517-10.459-.279-21.584.357-31.954-.835-1.79-.206-3.226-.503-4.715-1.532a12 12 0 0 1-.574-2.709c-.676-6.676.18-13.875.463-20.598l1.665-37.59c.789-15.858.437-35.895 2.774-51.264.229-1.506.675-2.312 1.63-3.484 6.006-.299 60.662 1.801 62.991 3.008 1.045.541 1.441 1.552 1.626 2.656.547 3.28.29 11.221-1.791 13.784-4.564 2.331-31.205-.289-37.945-.482-2.578-.074-5.622-.25-7.614 1.633-1.571 3.202-2.432 22.597-1.971 26.732.143 1.284.396 3.347 1.462 4.233 5.477 4.547 31.06-.772 37.227 4.256 2.116 4.091.591 11.099-.135 15.494-9.595.938-29.897-1.908-37.389.427-2.391 2.449-1.93 9.613-2.153 13.029"/><path d="M362.863 393.549q.56-11.826.907-23.659c.154-5.55.028-11.262.745-16.763 9.021.004 29.138-.417 36.096 4.975 2.91 2.254 4.422 5.531 4.852 9.133.897 7.518-1.412 16.466-6.179 22.294-9.635 7.25-25.031 4.279-36.421 4.02"/><path d="M270.204 413.601c5.152-12.034 7.244-25.643 13.017-37.293 2.307 2.113 8.011 32.497 9.179 37.938-3.735.133-7.536-.119-11.275-.224-3.651-.014-7.277-.207-10.921-.421"/><path d="M473.077 416.338c2.618-12.686 7.946-25.812 12.294-38.022 2.986 2.765 9.583 32.268 10.884 38.612a960 960 0 0 1-11.875-.455z"/><path fill="#FEFEFE" d="M69.346 698.802a5855 5855 0 0 1 9.136-131.383l3.24-44.391c.695-9.3 1.052-18.857 2.683-28.045 19.494-.002 39.087.808 58.587 1.178l131.698 2.574 376.082 6.641a13668 13668 0 0 1 210.814 3.306l51.196 1.005c9.474.187 19.104-.163 28.511 1.037 1.601 7.913-.414 23.035-.887 31.569l-3.491 61.644-4.065 70.902c-.662 11.685-.437 23.837-1.965 35.392-.858 1.069-.977.826-2.261 1.034a22510 22510 0 0 1-251.527-3.722zm201.34-179.155c-1.782.229-3.446.232-4.855 1.47-.834 1.473-.851 3.142-.966 4.794-.463 6.603-.442 13.258-.765 19.872l-2.811 62.802c-.718 18.171-2.187 36.484-2.418 54.65-.034 2.93.181 5.858.645 8.751 2.203 1.033 4.587 1.318 6.99 1.523 16.577 1.417 33.662.998 50.323 1.329 10.367.205 21.402 1.347 31.684.576 1.029-3.903 2.227-19.434.255-22.545-.92-1.452-3.836-1.888-5.384-2.067-8.615-.995-52.583 1.192-56.205-2.988-2.485-2.869-1.315-9.875-1.125-13.438.276-5.962-.696-15.52 1.853-20.698 5.776-4.788 42.8 1.49 46.966-1.881.904-.731 1.253-2.883 1.366-3.945.436-4.124 1.423-13.994-1.394-17.128-3.58-3.983-35.672.061-43.583-2.872-2.316-.858-4.065-2.704-4.277-5.254-.396-4.749.605-30.087 2.847-32.8 1.166-1.411 4.621-1.414 6.311-1.416 9.611-.011 46.402 2.201 52.049.342 2.915-3.045 1.973-14.524 1.85-18.799-.061-2.12-.196-4.151-.983-6.144-1.462-1.342-2.743-1.769-4.712-2.02-7.914-1.007-16.798-.393-24.823-.599zm151.202 4.453c-1.365.403-2.031.379-2.761 1.709-2.245 4.092-7.177 23.127-9.043 29.184a5076 5076 0 0 0-27.33 89.336c-2.178 7.416-7.695 22.428-7.839 29.37 2.798 1.976 17.54 1.783 21.273 1.233 2.476-.365 4.593-1.364 6.11-3.402 3.895-5.229 3.914-14.264 7.513-20.4 11.439-.139 22.878 1.003 34.314.768 1.618.163 2.608.077 3.802 1.353 5.297 5.659 2.748 23.981 8.711 28.233 1.449 1.033 3.123 1.337 4.864 1.494 3.558.321 7.151-.223 10.716-.118 2.406.07 4.869.581 7.263.496 1.013-.036 1.802-.175 2.603-.81.433-2.02.135-3.963-.259-5.966-3.594-18.281-9.214-36.375-13.671-54.487a4485 4485 0 0 0-14.304-56.413c-3.51-13.679-6.855-27.619-11.051-41.099-6.904-.454-14.008-1.25-20.911-.481m-237.661 1.602c-13.501 1.284-28.348 6.504-37.305 17.23-7.21 8.633-9.689 19.646-8.598 30.693 1.007 10.194 5.469 19.373 13.506 25.834 5.07 4.076 11.041 6.887 17.189 8.923 10.656 3.529 35.788 6.258 37.773 19.806.444 3.035-.576 6.003-2.487 8.353-5.04 6.201-14.412 8.965-22.092 9.58-4.537.363-9.681.212-13.974-1.403-10.281-3.868-18.742-16.674-29.077-4.462a8.7 8.7 0 0 0-1.995 6.96c.173 1.11.462 2.211.738 3.299 11.79 12.278 24.566 20.702 42.113 21.041 1.951.037 4.178.057 6.106-.239 13.926-1.923 30.992-8.215 39.647-19.955 5.743-7.791 7.558-18.446 5.913-27.861-1.795-10.276-7.029-20.001-15.712-25.996-9.161-6.326-21.804-8.454-32.44-11.2-4.196-1.083-8.651-2.019-12.375-4.341-3.351-2.089-5.559-5.037-6.325-8.929-.832-4.222-.149-8.599 2.363-12.148 3.63-5.129 11.332-8.541 17.409-9.326 13.279-1.716 31.072 12.586 35.84 11.523 2.729-.608 4.735-3.564 6.37-5.601 1.99-2.481 7.24-7.523 7.032-10.84-.144-2.296-2.647-4.151-4.354-5.365-13.016-9.262-28.969-16.9-45.265-15.576m600.395.411c-1.582 1.212-2.264 1.807-2.562 3.901-.888 6.231-.727 12.92-.962 19.218q-.577 17.325-1.36 34.642l-2.567 55.46c-.529 10.574-1.419 21.235-1.555 31.816-.023 1.761-.241 4.585.995 5.958 1.194 1.326 2.798 1.412 4.476 1.608 11.986 1.393 27.83.793 40.3 1.056 12.752.27 29.62 1.509 42.02.682 1.713-.114 3.234-.644 4.26-2.125 1.634-2.358 1.707-15.964.908-18.703-.384-1.314-.875-2.046-2.115-2.685-7.5-3.86-60.259 1.512-62.64-4.326-1.514-3.715-.322-12.193.087-16.284.198-5.131-.571-13.584 1.88-18.106 6.975-5.54 42.358 3.184 47.746-2.803.82-.911 1.024-3.105 1.16-4.241.425-3.572 1.366-12.555-.154-15.608-5.533-5.086-42.541.351-48.24-3.991-1.34-1.021-1.461-2.746-1.532-4.329-.174-3.894.638-29.787 2.602-31.617 4.308-4.014 54.447 2.638 60.509-.988 1.479-.885 1.931-4.377 2.113-5.859.51-4.153 1.798-15.023-.945-18.268-.786-.929-3.034-1.192-4.195-1.322-10.666-1.197-21.751-.947-32.491-1.482-14.702-.731-29.765-2.341-44.458-1.824a42 42 0 0 0-3.28.22m-187.258 2.417-.142.861c-1.225 7.696-.847 15.928-.996 23.728a2484 2484 0 0 1-.903 38.013c-.144 4.897.433 10.743-.418 15.481-.183 1.018-.566 1.93-1.373 2.624a4.62 4.62 0 0 1-3.501 1.118c-1.774-.178-3.317-1.991-4.41-3.251-4.402-5.072-7.883-11.18-11.874-16.599l-31.009-42.145c-3.894-5.309-9.312-14.391-14.465-18.065-1.993-1.421-5.882-1.712-8.053-.549-1.53.819-2.18 2.53-2.504 4.134-.924 4.569-.231 9.717-.32 14.379-.176 9.152-.816 18.355-1.133 27.513l-2.845 79.244c-.15 4.574-.728 9.142-.836 13.705-.036 1.489.114 3.257 1.081 4.463 2.466 3.076 11.081 2.253 14.667 2.271l6.049.019c1.49-.871 2.202-1.588 2.672-3.29 1.354-4.907 1.01-10.941 1.192-16.024l1.346-34.999c.211-5.564-.214-11.789.85-17.227.428-2.186 1.239-4.802 3.278-6.003 1.082-.637 2.168-.638 3.347-.25 2.252.74 4.237 2.453 5.842 4.148 5.506 5.819 10.181 12.787 15.016 19.191a4092 4092 0 0 1 28.18 37.754c2.664 3.583 8.365 12.75 12.036 14.703 2.06 1.096 4.423.989 6.501-.009 1.494-.718 2.827-1.94 3.329-3.56 1.657-5.35.941-20.312 1.203-26.737a7438 7438 0 0 0 2.691-75.258c.42-10.988 1.572-22.151 1.665-33.118.01-1.187-.062-2.692-.64-3.769-.819-1.525-2.092-2.195-3.727-2.523-5.598-1.122-15.918-.468-21.796.027m105.978 5.15a60.1 60.1 0 0 0-40.667 23.384c-13.418 17.573-17.616 41.359-14.566 62.937 2.389 16.908 10.226 33.954 24.189 44.341a52.12 52.12 0 0 0 39.447 9.564c16.298-2.537 30.557-12.349 39.807-25.908.928-1.361 1.436-3.236.881-4.85-1.157-3.366-9.356-8.07-12.569-9.263-1.762-.655-3.475-.734-5.241-.084-8.788 9.097-17.285 16.162-30.601 16.346-8.211.113-15.629-2.89-21.425-8.7-9.226-9.249-12.311-22.781-12.143-35.463.189-14.234 4.689-29.505 15.169-39.612 6.465-6.235 14.193-9.678 23.283-9.399 6.274.193 13.729 2.243 18.902 5.876 2.905 2.04 6.214 6.158 9.735 6.839 4.086.79 12.307-3.648 15.241-6.333 1.264-1.157 2.323-2.571 2.513-4.331.271-2.503-1.31-4.701-3.009-6.359-2.298-2.244-5.156-4.145-7.746-6.042-11.345-8.31-23.153-13.637-37.437-13.214a44 44 0 0 0-3.763.271"/><path d="M348.513 675.414c-10.282.771-21.317-.371-31.684-.576-16.661-.331-33.746.088-50.323-1.329-2.403-.205-4.787-.49-6.99-1.523a51.5 51.5 0 0 1-.645-8.751c.231-18.166 1.7-36.479 2.418-54.65l2.811-62.802c.323-6.614.302-13.269.765-19.872.115-1.652.132-3.321.966-4.794 1.409-1.238 3.073-1.241 4.855-1.47l48.838 1.515c8.025.206 16.909-.408 24.823.599 1.969.251 3.25.678 4.712 2.02.787 1.993.922 4.024.983 6.144.123 4.275 1.065 15.754-1.85 18.799-5.647 1.859-42.438-.353-52.049-.342-1.69.002-5.145.005-6.311 1.416-2.242 2.713-3.243 28.051-2.847 32.8.212 2.55 1.961 4.396 4.277 5.254 7.911 2.933 40.003-1.111 43.583 2.872 2.817 3.134 1.83 13.004 1.394 17.128-.113 1.062-.462 3.214-1.366 3.945-4.166 3.371-41.19-2.907-46.966 1.881-2.549 5.178-1.577 14.736-1.853 20.698-.19 3.563-1.36 10.569 1.125 13.438 3.622 4.18 47.59 1.993 56.205 2.988 1.548.179 4.464.615 5.384 2.067 1.972 3.111.774 18.642-.255 22.545"/><path d="M409.811 651.13c-3.599 6.136-3.618 15.171-7.513 20.4-1.517 2.038-3.634 3.037-6.11 3.402-3.733.55-18.475.743-21.273-1.233.144-6.942 5.661-21.954 7.839-29.37a5076 5076 0 0 1 27.33-89.336c1.866-6.057 6.798-25.092 9.043-29.184.73-1.33 1.396-1.306 2.761-1.709 6.903-.769 14.007.027 20.911.481 4.196 13.48 7.541 27.42 11.051 41.099a4485 4485 0 0 1 14.304 56.413c4.457 18.112 10.077 36.206 13.671 54.487.394 2.003.692 3.946.259 5.966-.801.635-1.59.774-2.603.81-2.394.085-4.857-.426-7.263-.496-3.565-.105-7.158.439-10.716.118-1.741-.157-3.415-.461-4.864-1.494-5.963-4.252-3.414-22.574-8.711-28.233-1.194-1.276-2.184-1.19-3.802-1.353-11.436.235-22.875-.907-34.314-.768m17.833-64.205c-.722.749-1.295 1.406-1.719 2.37-2.026 4.606-10.4 32.534-10.284 36.561.02.695-.108.693.423 1.075 2.727 1.962 11.196 1.144 14.56 1.179 3.578.313 7.369 1.104 10.685-.599.916-1.3.651-2.092.358-3.622-.878-4.589-2.536-9.062-3.72-13.581-1.695-6.473-2.781-13.556-5.453-19.702-.583-1.34-1.101-2.15-2.255-3.041z"/><path d="M137.905 650.515c-.276-1.088-.565-2.189-.738-3.299a8.7 8.7 0 0 1 1.995-6.96c10.335-12.212 18.796.594 29.077 4.462 4.293 1.615 9.437 1.766 13.974 1.403 7.68-.615 17.052-3.379 22.092-9.58 1.911-2.35 2.931-5.318 2.487-8.353-1.985-13.548-27.117-16.277-37.773-19.806-6.148-2.036-12.119-4.847-17.189-8.923-8.037-6.461-12.499-15.64-13.506-25.834-1.091-11.047 1.388-22.06 8.598-30.693 8.957-10.726 23.804-15.946 37.305-17.23 16.296-1.324 32.249 6.314 45.265 15.576 1.707 1.214 4.21 3.069 4.354 5.365.208 3.317-5.042 8.359-7.032 10.84-1.635 2.037-3.641 4.993-6.37 5.601-4.768 1.063-22.561-13.239-35.84-11.523-6.077.785-13.779 4.197-17.409 9.326-2.512 3.549-3.195 7.926-2.363 12.148.766 3.892 2.974 6.84 6.325 8.929 3.724 2.322 8.179 3.258 12.375 4.341 10.636 2.746 23.279 4.874 32.44 11.2 8.683 5.995 13.917 15.72 15.712 25.996 1.645 9.415-.17 20.07-5.913 27.861-8.655 11.74-25.721 18.032-39.647 19.955-1.928.296-4.155.276-6.106.239-17.547-.339-30.323-8.763-42.113-21.041"/><path d="M803.907 636.331c-.409 4.091-1.601 12.569-.087 16.284 2.381 5.838 55.14.466 62.64 4.326 1.24.639 1.731 1.371 2.115 2.685.799 2.739.726 16.345-.908 18.703-1.026 1.481-2.547 2.011-4.26 2.125-12.4.827-29.268-.412-42.02-.682-12.47-.263-28.314.337-40.3-1.056-1.678-.196-3.282-.282-4.476-1.608-1.236-1.373-1.018-4.197-.995-5.958.136-10.581 1.026-21.242 1.555-31.816l2.567-55.46q.784-17.317 1.36-34.642c.235-6.298.074-12.987.962-19.218.298-2.094.98-2.689 2.562-3.901a42 42 0 0 1 3.28-.22c14.693-.517 29.756 1.093 44.458 1.824 10.74.535 21.825.285 32.491 1.482 1.161.13 3.409.393 4.195 1.322 2.743 3.245 1.455 14.115.945 18.268-.182 1.482-.634 4.974-2.113 5.859-6.062 3.626-56.201-3.026-60.509.988-1.964 1.83-2.776 27.723-2.602 31.617.071 1.583.192 3.308 1.532 4.329 5.699 4.342 42.707-1.095 48.24 3.991 1.52 3.053.579 12.036.154 15.608-.136 1.136-.34 3.33-1.16 4.241-5.388 5.987-40.771-2.737-47.746 2.803-2.451 4.522-1.682 12.975-1.88 18.106"/><path d="m534.379 675.474-6.049-.019c-3.586-.018-12.201.805-14.667-2.271-.967-1.206-1.117-2.974-1.081-4.463.108-4.563.686-9.131.836-13.705l2.845-79.244c.317-9.158.957-18.361 1.133-27.513.089-4.662-.604-9.81.32-14.379.324-1.604.974-3.315 2.504-4.134 2.171-1.163 6.06-.872 8.053.549 5.153 3.674 10.571 12.756 14.465 18.065l31.009 42.145c3.991 5.419 7.472 11.527 11.874 16.599 1.093 1.26 2.636 3.073 4.41 3.251a4.62 4.62 0 0 0 3.501-1.118c.807-.694 1.19-1.606 1.373-2.624.851-4.738.274-10.584.418-15.481q.597-19.003.903-38.013c.149-7.8-.229-16.032.996-23.728l.142-.861c5.878-.495 16.198-1.149 21.796-.027 1.635.328 2.908.998 3.727 2.523.578 1.077.65 2.582.64 3.769-.093 10.967-1.245 22.13-1.665 33.118q-1.155 37.636-2.691 75.258c-.262 6.425.454 21.387-1.203 26.737-.502 1.62-1.835 2.842-3.329 3.56-2.078.998-4.441 1.105-6.501.009-3.671-1.953-9.372-11.12-12.036-14.703a4092 4092 0 0 0-28.18-37.754c-4.835-6.404-9.51-13.372-15.016-19.191-1.605-1.695-3.59-3.408-5.842-4.148-1.179-.388-2.265-.387-3.347.25-2.039 1.201-2.85 3.817-3.278 6.003-1.064 5.438-.639 11.663-.85 17.227l-1.346 34.999c-.182 5.083.162 11.117-1.192 16.024-.47 1.702-1.182 2.419-2.672 3.29"/><path d="M734.623 633.801c1.766-.65 3.479-.571 5.241.084 3.213 1.193 11.412 5.897 12.569 9.263.555 1.614.047 3.489-.881 4.85-9.25 13.559-23.509 23.371-39.807 25.908a52.12 52.12 0 0 1-39.447-9.564c-13.963-10.387-21.8-27.433-24.189-44.341-3.05-21.578 1.148-45.364 14.566-62.937a60.1 60.1 0 0 1 40.667-23.384 44 44 0 0 1 3.763-.271c14.284-.423 26.092 4.904 37.437 13.214 2.59 1.897 5.448 3.798 7.746 6.042 1.699 1.658 3.28 3.856 3.009 6.359-.19 1.76-1.249 3.174-2.513 4.331-2.934 2.685-11.155 7.123-15.241 6.333-3.521-.681-6.83-4.799-9.735-6.839-5.173-3.633-12.628-5.683-18.902-5.876-9.09-.279-16.818 3.164-23.283 9.399-10.48 10.107-14.98 25.378-15.169 39.612-.168 12.682 2.917 26.214 12.143 35.463 5.796 5.81 13.214 8.813 21.425 8.7 13.316-.184 21.813-7.249 30.601-16.346"/><path fill="#FEFEFE" d="M430.624 628.11c-3.364-.035-11.833.783-14.56-1.179-.531-.382-.403-.38-.423-1.075-.116-4.027 8.258-31.955 10.284-36.561.424-.964.997-1.621 1.719-2.37l2.595.64c1.154.891 1.672 1.701 2.255 3.041 2.672 6.146 3.758 13.229 5.453 19.702 1.184 4.519 2.842 8.992 3.72 13.581.293 1.53.558 2.322-.358 3.622-3.316 1.703-7.107.912-10.685.599"/><path fill="#FEFEFE" d="M501.466 842.575a13 13 0 0 1-1.752.586c-4.505 1.097-10.113.723-14.725.51a138.26 138.26 0 0 1-68.677-22.137c-10.322-6.767-22.188-16.46-24.648-29.293-1.607-8.385.563-16.346 5.356-23.26 1.187-.077 2.306-.19 3.48.08.835.192.763.423 1.181 1.093-.808 3.528-3.659 6.194-4.916 9.555-1.98 5.292-1.417 11.475.942 16.535 10.427 22.367 53.288 39.191 76.433 41.887 4.222.492 24.336.491 26.017 1.12 1.161 1.28 1.081 1.663 1.309 3.324"/><path fill="#FEFEFE" d="M546.623 839.887c-.258-.058-.533-.066-.774-.174-1.13-.504-1.168-1.116-1.387-2.183 1.311-2.176 4.183-2.522 6.508-3.15 3.785-1.023 7.734-1.824 11.402-3.212 5.457-2.065 10.625-4.971 16.01-7.242.735.416 1.082.615 1.519 1.373.463.803.104 1.091-.165 1.914-5.134 5.231-25.638 11.563-33.113 12.674"/></svg>