<svg xmlns="http://www.w3.org/2000/svg" width="1024" height="1024"><path fill="#FEFEFE" d="M0 0h1024v1024H0zm725.341 124.216c-17.741 1.463-31.092 6.121-45.335 16.975-4.083 3.111-8.049 7.092-12.444 9.676-5.19-3.14-9.892-7.045-15.147-10.063-14.816-8.507-33.057-10.317-49.506-6.26-11.612 2.863-23.658 8.225-32.999 15.777-3.81 3.081-7.654 7.335-12.101 9.454-2.299 1.096-3.441 1.385-5.637.071-4.554-2.726-7.917-6.892-12.865-9.12-18.665-8.404-36.835-7.156-55.841-.191-20.2 7.402-23.025 12.305-37.741 26.376a54.77 54.77 0 0 0-38.257-14.42c-16.617.477-38.215 8.479-49.685 20.797-3.2 3.436-5.511 7.019-7.092 11.461-5.357-20.312-14.694-40.59-33.486-51.644-8.684-5.109-19.329-7.773-29.245-4.947-7.878 2.244-13.802 8.024-17.669 15.065-11.411 20.784-7.421 53.159-6.564 76.267l2.073 49.652c-7.045-1.447-14.519-1.818-21.683-2.516l-41.4-3.74c-32.1-2.903-64.157-6.663-96.278-9.261-4.987-.404-40.915-3.922-43.625-2.571-2.222 1.108-3.691 10.766-4.654 13.394-2.128.389-4.748.599-6.12 2.508-1.64 2.285-1.068 6.428-1.434 9.154-2.66.244-5.011.35-6.83 2.53-3.145 3.768 2.326 7.96-4.906 9.575-1.731.387-2.718.706-3.666 2.321-4.183 7.132-14.716 156.163-16.184 176.21-.608 8.305-1.108 16.628-1.819 24.923-.569 6.639-2.485 15.053-1.064 21.6 4.32 2.576 24.192-.146 30.473-.299.96 1.99 1.868 4.034 2.94 5.967-.287 4.058-1.418 9.78-.323 13.612.974 1.096 1.4 1.428 2.89 1.585 2.61.275 6.16-1.347 8.64-2.149.045 3.12-.469 6.669.513 9.615l.851.789c5.45-.429 11.211-2.671 16.593-3.895 13.157-2.992 26.495-6.056 39.835-8.103 20.546-3.153 41.3-5.298 61.972-7.439a1737 1737 0 0 1 104.862-7.8c13.053-.494 26.661-2.195 39.679-1.546.387 19.848 6.551 56.303 17.609 72.155-5.032 32.184 4.834 66.099 20.454 94.054-5.256 23.084-1.862 49.675 10.878 69.938 5.868 9.334 13.797 16.061 22.481 22.632.636 5.291 2.515 10.695 3.645 15.929 2.153 9.975 3.981 20.013 5.99 30.017 3.198 15.923 6.007 31.881 9.017 47.834 4.723 25.035 9.376 49.851 12.049 75.211q1.16 11.26 2.117 22.538c.288 3.371.135 7.337.986 10.571.289 1.096.844 1.825 1.649 2.589 1.423.456 1.526.447 2.952-.007 1.427-1.353 2.01-2.536 2.096-4.53.245-5.741-.955-12.242-1.453-17.984-1.922-22.138-4.594-43.79-8.891-65.608a2620 2620 0 0 0-14.222-76.059c-2.428-12.16-4.241-24.955-7.956-36.777 7.82 3.055 15.473 5.758 23.76 7.315 28.703 5.394 70.213.597 99.063-5.6 7.028-1.509 13.746-4.491 20.707-5.885 6.017-1.204 12.416-1.527 18.516-2.325 14.672-1.919 30.632-4.972 44.248-10.899 4.115-1.791 8.203-3.81 11.964-6.27 4.308-2.819 8.734-6.67 13.553-8.505 6.705-2.555 17.433-1.123 24.017 1.394 6.462 2.469 13.292 7.317 16.19 13.764 3.313 7.37 5.313 26.193 6.694 35.095a1496 1496 0 0 1 8.305 61.849c2.321 21.485 3.998 43.026 6.216 64.521l3.645 35.05c.638 6.017.913 12.476 2.213 18.373.389 1.766.555 2.706 2.348 3.394.745.286 1.346.211 2.117.115 1.281-.968 1.851-1.758 2.139-3.37.814-4.562-3.744-42.378-4.515-49.486-3.512-32.408-6.125-64.941-10.171-97.282-2.505-20.024-5.827-40.105-9.443-59.958-2.252-12.361-4.429-24.838-7.406-37.046 6.791-3.199 13.724-6.379 20.161-10.253 3.837-2.31 7.377-5.072 11.167-7.449 3.072-1.927 6.661-2.804 9.78-4.604 8.379-4.836 14.69-15.767 17.897-24.64 8.067-22.323 1.655-48.635-8.136-69.389-2.469-5.235-5.277-9.856-8.869-14.394 6.34-19.803 1.684-42.133-7.623-60.368-5.116-10.022-12.658-18.189-20.407-26.22 9.696-.141 19.466-.556 29.156-.397 15.863.26 31.776 1.228 47.617 2.093 48.056 2.621 95.9 7.078 143.841 11.218 10.017.865 55.253 7.069 60.418 5.188 3.175-3.316 2.734-10.901 3.046-15.375 3.526-1.778 4.707-2.72 5.905-6.534 2.186-6.957 2.337-14.788 3.736-21.95 2.244-.718 5.149-1.421 6.171-3.829 1.776-4.185 2.856-30.662 3.22-36.693a7936 7936 0 0 0 5.967-117.737l1.6-29.948c.29-5.315 1-10.965.6-16.268-.73-1.173-1.42-1.786-2.47-2.642-.94-3.663 1.49-9.13-2.427-11.367a41 41 0 0 0-2.154-1.123c-2.012-2.73-2.302-5.918-4.516-8.742q-.229-.296-.455-.596c.462-1.786 1.563-4.647.767-6.415-.559-1.242-1.418-1.775-2.697-2.08-2.508-.596-6.314.384-8.874.733.235-3.344.911-6.959-.098-10.195-.848-.899-.877-1.136-2.172-1.123-5.904.06-12.702 2.022-18.581 3.074l-44.574 8.098c-39.115 6.746-79.158 12.017-118.81 13.915-1.918-27.204-4.602-54.016-8.264-81.039-1.507-11.119-2.23-23.762-6.426-34.233-3.205-7.997-9.111-15.454-15.582-21.071-11.102-9.634-26.562-14.742-41.196-13.782M299.246 723.87c-2.772 4.275-.631 9.47.422 14.398 2.188 10.236 18.44 67.65 23.342 73.189 1.234.522 1.934.566 3.264.456 1.123-1.087 1.967-1.769 2.258-3.385-1.483-7.052-4.731-14.2-7.127-21.028-4.337-12.356-8.603-25.139-11.793-37.832-1.296-5.16-3.685-21.786-6.289-24.87-1.425-.759-2.511-.841-4.077-.928m452.139 16.122c-1.336 1.004-2.267 1.703-2.491 3.501-.514 4.128 1.802 13.792 4.377 17.088 1.046 1.339 2.108 1.555 3.704 1.883 1.148-1.023 2.059-1.565 2.221-3.223.391-3.998-1.795-15.385-4.825-18.063-.861-.76-1.899-.959-2.986-1.186m12.941 50.329c-.81 1.379-1.762 2.829-1.679 4.486.404 7.992 3.306 18.161 4.572 26.429a851 851 0 0 1 2.915 21.224c.379 2.951.448 6.736 1.304 9.525.402 1.308.858 1.757 2.155 2.26.665.258 1.625.276 2.341.346 1.808-2.056 2.121-2.585 1.944-5.383-.374-5.918-6.578-55.193-9.685-57.811-1.059-.892-2.53-.987-3.867-1.076m-428.46 50.613c-1.536 2.157-1.536 3.161-1.102 5.72.682 4.028 2.253 12.098 5.521 14.689.722.573 1.832.529 2.699.352.15-.031.296-.079.443-.118.951-1.123 1.824-1.748 1.816-3.334-.02-3.789-3.201-14.417-6.011-16.884-.791-.695-2.362-.512-3.366-.425m441.545 46.98c-1.219 1.121-1.936 1.556-2.068 3.33-.31 4.175 1.599 22.148 4.089 24.98.725.824 1.922 1.148 2.93 1.48 1.494-1.433 2.077-2.38 2.166-4.484.175-4.149-1.096-21.221-3.581-24.181-.988-1.178-2.146-.999-3.536-1.125m-424.832 13.092c-1.56.857-2.256 1.029-3.135 2.615.349 8.085 2.508 16.603 3.792 24.622 1.483 9.26 2.407 18.585 3.831 27.842.144.938.314 2.589 1.014 3.245.953.893 2.366 1.178 3.6 1.51 1.106-.855 2.477-1.707 2.595-3.226.502-6.461-6.63-52.503-8.722-56.07-1.052-.631-1.788-.545-2.975-.538"/><path d="M667.562 150.867c4.395-2.584 8.361-6.565 12.444-9.676 14.243-10.854 27.594-15.512 45.335-16.975 14.634-.96 30.094 4.148 41.196 13.782 6.471 5.617 12.377 13.074 15.582 21.071 4.196 10.471 4.919 23.114 6.426 34.233 3.662 27.023 6.346 53.835 8.264 81.039 39.652-1.898 79.695-7.169 118.81-13.915l44.574-8.098c5.879-1.052 12.677-3.014 18.581-3.074 1.295-.013 1.324.224 2.172 1.123 1.009 3.236.333 6.851.098 10.195 2.56-.349 6.366-1.329 8.874-.733 1.279.305 2.138.838 2.697 2.08.796 1.768-.305 4.629-.767 6.415q.226.3.455.596c2.214 2.824 2.504 6.012 4.516 8.742q1.094.53 2.154 1.123c3.917 2.237 1.487 7.704 2.427 11.367 1.05.856 1.74 1.469 2.47 2.642.4 5.303-.31 10.953-.6 16.268l-1.6 29.948a7936 7936 0 0 1-5.967 117.737c-.364 6.031-1.444 32.508-3.22 36.693-1.022 2.408-3.927 3.111-6.171 3.829-1.399 7.162-1.55 14.993-3.736 21.95-1.198 3.814-2.379 4.756-5.905 6.534-.312 4.474.129 12.059-3.046 15.375-5.165 1.881-50.401-4.323-60.418-5.188-47.941-4.14-95.785-8.597-143.841-11.218-15.841-.865-31.754-1.833-47.617-2.093-9.69-.159-19.46.256-29.156.397 7.749 8.031 15.291 16.198 20.407 26.22 9.307 18.235 13.963 40.565 7.623 60.368 3.592 4.538 6.4 9.159 8.869 14.394 9.791 20.754 16.203 47.066 8.136 69.389-3.207 8.873-9.518 19.804-17.897 24.64-3.119 1.8-6.708 2.677-9.78 4.604-3.79 2.377-7.33 5.139-11.167 7.449-6.437 3.874-13.37 7.054-20.161 10.253 2.977 12.208 5.154 24.685 7.406 37.046 3.616 19.853 6.938 39.934 9.443 59.958 4.046 32.341 6.659 64.874 10.171 97.282.771 7.108 5.329 44.924 4.515 49.486-.288 1.612-.858 2.402-2.139 3.37-.771.096-1.372.171-2.117-.115-1.793-.688-1.959-1.628-2.348-3.394-1.3-5.897-1.575-12.356-2.213-18.373l-3.645-35.05c-2.218-21.495-3.895-43.036-6.216-64.521a1496 1496 0 0 0-8.305-61.849c-1.381-8.902-3.381-27.725-6.694-35.095-2.898-6.447-9.728-11.295-16.19-13.764-6.584-2.517-17.312-3.949-24.017-1.394-4.819 1.835-9.245 5.686-13.553 8.505-3.761 2.46-7.849 4.479-11.964 6.27-13.616 5.927-29.576 8.98-44.248 10.899-6.1.798-12.499 1.121-18.516 2.325-6.961 1.394-13.679 4.376-20.707 5.885-28.85 6.197-70.36 10.994-99.063 5.6-8.287-1.557-15.94-4.26-23.76-7.315 3.715 11.822 5.528 24.617 7.956 36.777a2620 2620 0 0 1 14.222 76.059c4.297 21.818 6.969 43.47 8.891 65.608.498 5.742 1.698 12.243 1.453 17.984-.086 1.994-.669 3.177-2.096 4.53-1.426.454-1.529.463-2.952.007-.805-.764-1.36-1.493-1.649-2.589-.851-3.234-.698-7.2-.986-10.571a1250 1250 0 0 0-2.117-22.538c-2.673-25.36-7.326-50.176-12.049-75.211-3.01-15.953-5.819-31.911-9.017-47.834-2.009-10.004-3.837-20.042-5.99-30.017-1.13-5.234-3.009-10.638-3.645-15.929-8.684-6.571-16.613-13.298-22.481-22.632-12.74-20.263-16.134-46.854-10.878-69.938-15.62-27.955-25.486-61.87-20.454-94.054-11.058-15.852-17.222-52.307-17.609-72.155-13.018-.649-26.626 1.052-39.679 1.546a1737 1737 0 0 0-104.862 7.8c-20.672 2.141-41.426 4.286-61.972 7.439-13.34 2.047-26.678 5.111-39.835 8.103-5.382 1.224-11.144 3.466-16.593 3.895l-.851-.789c-.982-2.946-.468-6.495-.513-9.615-2.48.802-6.03 2.424-8.64 2.149-1.49-.157-1.916-.489-2.89-1.585-1.095-3.832.036-9.554.322-13.612-1.071-1.933-1.979-3.977-2.94-5.967-6.28.153-26.153 2.875-30.472.299-1.42-6.547.495-14.961 1.064-21.6.71-8.295 1.21-16.618 1.819-24.923 1.468-20.047 12.001-169.078 16.184-176.21.948-1.615 1.935-1.934 3.666-2.321 7.232-1.615 1.762-5.807 4.906-9.575 1.819-2.18 4.17-2.286 6.83-2.53.366-2.726-.207-6.869 1.435-9.154 1.371-1.909 3.99-2.119 6.12-2.508.962-2.628 2.431-12.286 4.653-13.394 2.71-1.351 38.638 2.167 43.625 2.571 32.121 2.598 64.178 6.358 96.278 9.261l41.4 3.74c7.164.698 14.638 1.069 21.683 2.516l-2.073-49.652c-.857-23.108-4.847-55.483 6.564-76.267 3.867-7.041 9.791-12.821 17.669-15.065 9.916-2.826 20.561-.162 29.245 4.947 18.792 11.054 28.129 31.332 33.486 51.644 1.581-4.442 3.892-8.025 7.092-11.461 11.47-12.318 33.068-20.32 49.685-20.797a54.77 54.77 0 0 1 38.257 14.42c14.716-14.071 17.541-18.974 37.741-26.376 19.006-6.965 37.176-8.213 55.841.191 4.948 2.228 8.311 6.394 12.865 9.12 2.196 1.314 3.338 1.025 5.637-.071 4.447-2.119 8.291-6.373 12.101-9.454 9.341-7.552 21.387-12.914 32.999-15.777 16.449-4.057 34.69-2.247 49.506 6.26 5.255 3.018 9.957 6.923 15.147 10.063m190.195 128.316c-2.688.208-5.562.226-8.192.804l-.292.7-.988-.204.545-.317-.385.416.665-.477-.842.443.651.185-.089-.498.256-.059.759.639c3.002-.047 5.966-.265 8.956-.513 9.869-1.103 20.074-1.137 30.001-1.877a2042 2042 0 0 0 62.295-5.628c11.852-1.212 24.045-2.012 35.65-4.773-5.959-.21-11.962-.867-17.924-.63-14.606.582-29.214 3.445-43.767 4.868-22.432 2.193-44.955 3.913-67.299 6.921M821.4 300.997c-3.954-.02-7.881-.122-11.8.498 2.293.763 6.508.948 8.963.894 12.365 1.395 25.158.711 37.571.373 37.273-1.016 74.038-4.651 111.025-9.24 6.368-.79 20.148-1.351 25.521-4.041.93-1.192.862-1.116.676-2.624-3.339-1.555-36.244 2.988-42.87 3.839a1148 1148 0 0 1-83.204 8.133c-15.21 1.059-30.631 2.271-45.882 2.168M93.633 527.928c-1.413-.836-31.44 1.103-34.636 1.902-1.115.278-1.751.865-2.459 1.726-.433 1.281-.498 1.799-.104 3.099 1.185.839 2.758.41 4.165.182 11.14-1.81 22.187-4.102 33.356-5.841l12.172-1.654c-3.772-.298-9.02-1.252-12.494.586m628.256-395.729c-21.982 1.877-33.284 11.836-49.8 24.91 3.67 9.115 13.857 44.897 10.678 53.18-.27.701-.722 1.161-1.252 1.668-1.199.304-1.979.514-3.164-.147-1.354-.755-1.538-1.975-1.9-3.337-3.706-13.904-3.356-35.34-11.695-47.784-4.96-7.402-13.097-12.656-21.196-16.025a61.1 61.1 0 0 0-28.863-4.547c-20.851 1.822-38.281 13.139-53.217 27.064 3.201 10.09 15.476 43.819 11.345 52.667-1.02.81-1.436 1.187-2.847.935-1.293-.23-1.839-1.364-2.323-2.453-2.063-4.649-2.467-10.466-3.388-15.461-4.095-22.218-8.876-37.324-30.818-46.921-16.295-7.128-34.755-3.713-50.716 2.728-11.867 4.788-24.834 13.027-31.613 24.222 4.655 9.192 14.374 37.679 10.808 47.309-.483 1.302-1.078 2.329-2.256 3.103-1.168-.169-1.342-.164-2.088-1.165-2.118-2.838-2.672-8.137-3.299-11.59-3.379-18.592-4.886-36.947-24.174-45.842-4.026-1.856-8.231-3.371-12.607-4.141-16.156-2.845-35.955 3.875-49.064 13.174-7.188 5.098-12.839 12.589-14.152 21.514-.655 4.45 7.03 92.292 8.859 94.582 1.299 1.626 4.68 2.074 6.626 2.499 15.785 2.011 76.096 3.988 87.643-5.149 1.669-1.321 2.129-2.964 2.269-5.017.53-7.762-2.395-24.564-.998-30.586.363-1.562.942-2.345 2.096-3.429l1.154-.321c1.706.963 2.376 2.323 2.933 4.203 2.832 9.563 1.412 27.498 1.662 38.033 15.219 5.343 59.15 5.938 75.727 4.002 7.647-.894 15.7-2.456 22.688-5.803 2.436-1.168 4.616-2.704 6.732-4.374-.532-7.371.005-14.826-.365-22.228-.374-7.495-1.688-15.315-1.59-22.78.015-1.126.323-2.397 1.085-3.269.649-.742 1.671-1.192 2.664-1.087 1.058.112 1.898.633 2.402 1.562 3.289 6.073 2.924 41.453 2.907 49.985 17.748 11.96 58.046 9.446 78.645 5.378 8.736-1.726 17.65-4.606 24.583-10.407.428-9.948-3.157-49.906-1.659-54.033 1.02-.711 1.544-1.094 2.887-.854 1.261.226 2.176.975 2.73 2.103 3.06 6.231 3.283 50.472 3.481 60.627 17.828 10.33 78.45 6.575 98.052 1.587a29 29 0 0 0 3.022-.957l-.127-.763c-1.442-9.002-1.05-18.616-1.674-27.734a1185 1185 0 0 0-6.638-66.772c-1.654-13.775-2.242-29.632-7.475-42.544-3.147-7.763-8.911-15.151-15.665-20.105-10.272-7.536-23.767-11.274-36.453-9.515-.202.028-.401.07-.602.105M293.633 144.64c-6.012.9-10.677 3.356-14.369 8.328-14.056 18.929-7.977 63.05-7.339 86.006.411 14.78.929 29.261 2.118 44.008.351 4.355.261 8.98 1.032 13.264.173.957.337 1.631.945 2.409 8.698 3.248 45.347 2.72 55.856 2.028 8.141-.315 15.413-1.092 23.146-3.781-1.116-13.572-2.533-27.105-3.784-40.664-2.373-25.713-3.734-55.506-14.341-79.22a65.1 65.1 0 0 0-17.471-23.181c-7.387-6.226-15.477-10.1-25.343-9.239zm678.934 113.014c-3.195 1.471-6.627 1.237-9.799 2.603l.393.656.596-.15c2.754-.674 7.504-.251 9.248-2.496zM67.639 267.883c-.164 2.424-1.034 4.881-.62 7.258 2.548 1.523 73.411 5.405 82.271 6.115 23.884 1.914 47.709 4.469 71.579 6.526a3776 3776 0 0 0 44.975 3.204c.692-.944.795-1.722 1.015-2.846-.326-1.143-.322-1.5-1.423-2.132-2.604-1.491-185.233-18.292-197.797-18.125m916.112 8.311c-32.978 3.709-66.169 7.445-99.274 9.765-25.131 1.76-50.346 2.124-75.465 4.238-3.111.262-9.235.089-11.477 2.222.394 1.018.444 1 1.422 1.398.904.367 1.946.383 2.911.449 52.155.911 104.816-5.182 156.522-11.404 6.753-.813 23.439-1.776 28.731-4.03l.78-.865c-.189-1.184-.21-1.119-1.165-1.857-1.056-.076-1.942-.105-2.985.084M59.15 281.985c-.195 1.565-.604 2.699.063 4.15 5.45 2.164 121.502 6.983 133.672 6.2-7.113-1.54-14.74-1.848-21.989-2.499a2260 2260 0 0 0-43.114-3.289L88.2 283.911c-9.643-.715-19.38-1.804-29.05-1.926m-7.708 11.268.154 2.744c2.488 1.749 30.828.559 35.638.257l.04-.993c-10.186-1.629-25.377-2.064-35.832-2.008m940.901 3.943c-29.804 3.407-59.394 8.182-89.334 10.465-20.44 1.559-41.029 2.33-61.511 3.183a3766 3766 0 0 1-169.336 2.836 10256 10256 0 0 1-301.969-4.25 10265 10265 0 0 0-220.331-5.772c-5.913-.081-11.805-.714-17.726-.737-12.182-.049-24.45-.141-36.625.196-5.717.158-11.42.696-17.14.779-12.412.178-24.652-.283-37.015 1.183-3.356 18.267-4.512 36.959-6.214 55.435a3698 3698 0 0 0-8.476 108.08l-2.152 28.563c-.5 5.984-1.965 13.052-1.108 18.967.732.985.741.88 1.97 1.068 17.523-.916 34.937-2.955 52.417-4.415 21-1.753 42.393-2.918 63.472-2.942 30.048-.035 60.152 1.382 90.182 2.418l118.194 3.495a6581 6581 0 0 0 318.092-1.161c23.665-.535 47.412 1.243 71.094.671a2091 2091 0 0 0 182.962-13.411c8.314-.931 58.815-7.688 62.851-11.584 1.779-1.718 2.358-12.471 2.595-15.321 3.563-42.845 4.726-85.963 7.027-128.894.361-6.74 3.104-45.251 2.364-48.045-.078-.295-.266-.549-.398-.824-1.448-.251-2.453-.181-3.885.017M949.951 512.7c-11.563 1.321-23.431 1.5-34.868 3.568 9.969.731 20.512.619 30.359 2.152 6.722.201 23.946 3.068 29.267.767.738-1.524 1.007-3.684.473-5.323-.057-.177-.154-.339-.231-.509-5.827-.987-18.924-1.228-25-.655m-819.158 4.05a947 947 0 0 0-55.542 3.303c-5.732.482-13.3.433-18.67 2.163l-.403.621c2.576 1.775 18.408-1.083 22.501-1.317a797 797 0 0 1 87.801-.092c24.429.183 54.335 1.744 78.319-1.721-14.98-1.411-30.383-.957-45.427-1.447-22.504-.732-46.138-2.132-68.579-1.51m718.061 3.966q-6.413.337-12.828.603c14.036 3.061 28.93 3.503 43.228 4.72l54.717 5.055c8.719.785 18.071.902 26.645 2.629 2.848-.252 5.569.479 8.391.712l.446-7.345a3521 3521 0 0 0-90.982-5.431c-9.786-.369-19.84-1.762-29.617-.943m-305.127 7.573c-23.462 1.543-46.856 2.896-70.308 4.782-28.882 2.324-109.239 7.52-127.803 29.535-2.799 3.319-4.534 7.198-4.125 11.599.648 6.955 5.268 14.646 8.677 20.6-4.526 24.188.674 53.007 10.786 75.421 3.032 6.722 7.414 12.8 10.37 19.477-7.276 16.699-3.379 38.801 3.009 55.231 6.624 17.034 19.31 28.645 35.928 35.851 33.746 14.635 85.225 6.359 120.506-1.177 5.237-1.118 9.943-3.913 15.12-4.869 8.012-1.48 16.29-2.11 24.362-3.272 12.499-1.8 25.481-4.926 37.192-9.696 5.772-2.352 12.454-5.451 17.162-9.623 3.048-2.701 5.366-7.669 9.203-9.231 4.463-1.818 10.983-1.346 15.804-1.872 6.018-.657 12.398-1.748 18.234-3.375 12.259-3.655 27.593-9.379 34.204-21.265 6.412-11.526 7.288-39.754 3.346-52.218-1.585-5.012-4.231-9.536-9.065-11.992-11.427-5.806-27.483-1.493-38.812 2.487-7.275 2.555-14.186 6.076-21.327 8.976-10.367 4.21-20.625 7.153-31.499 9.713-4.649 1.094-11.094 3.37-15.635.851-.793-.44-1.092-.689-1.524-1.451.152-1.4.656-2.14 1.781-3.01 3.549-2.745 13.867-3.304 18.565-4.516 20.954-5.408 58.503-19.259 72.303-35.703 4.872-5.805 8.04-13.849 9.314-21.267 2.687-15.633-.708-32.785-10.018-45.705-6.74-9.353-16.932-16.907-28.528-18.655-5.456-.823-11.187-.209-16.569.837-13.795 2.683-55.039 16.385-66.195 14.933-1.518-.198-2.339-.675-3.275-1.851-.15-1.272-.093-2.197.723-3.266.704-.923 1.942-1.385 3.041-1.629 4.541-1.008 9.355-1.218 13.968-2.154 9.225-1.872 50.472-11.271 55.51-16.323 1.002-1.006.828-1.595.882-2.941-1.917-2.157-8.246-1.856-11.131-2.026-13.356-.79-26.922-.859-40.307-1.203-14.506-.373-29.4-1.099-43.869-.003m-420.635 3.542c-7.387.913-51.395 6.363-54.89 8.616-.08 1.416.103 1.625.807 2.881 18.208-3.281 36.784-6.799 54.76-11.154zm560.108 2.643c-2.684 1.628-5.41 3.009-6.337 6.259-.939 3.292.342 6.817 2.067 9.609 2.704 4.378 6.331 8.152 9.075 12.539 8.058 12.884 11.613 31.036 8.582 46.038-.695 3.439-2.572 7.915-2.316 11.364 1.717.951 3.41.473 5.264-.038 1.619-.447 2.984-1.099 4.429-1.938 7.067-5.204 10.882-12.465 12.15-21.054 2.263-15.33-5.273-40.939-14.514-53.248-3.545-4.72-8.864-8.674-14.855-9.437-1.161-.148-2.375-.142-3.545-.094m39.06 92.059c-5.937 2.527-12.179 5.445-14.624 11.932-3.755 9.966 3.912 19.248 6.019 28.718 1.673 7.522 1.879 15.914 1.187 23.568-.341 3.768-3.747 18.936-2.313 21.749.07.138.177.254.266.381.69-.039 1.342-.048 2.017-.207 9.856-6.918 16.44-19.208 18.443-30.936 2.444-14.313-1.13-29.344-5.514-42.922-1.159-3.587-2.406-7.938-4.508-11.098a7.5 7.5 0 0 0-.973-1.185"/><path fill="#FEFEFE" d="M672.089 157.109c16.516-13.074 27.818-23.033 49.8-24.91.201-.035.4-.077.602-.105 12.686-1.759 26.181 1.979 36.453 9.515 6.754 4.954 12.518 12.342 15.665 20.105 5.233 12.912 5.821 28.769 7.475 42.544a1185 1185 0 0 1 6.638 66.772c.624 9.118.232 18.732 1.674 27.734l.127.763q-1.485.561-3.022.957c-19.602 4.988-80.224 8.743-98.052-1.587-.198-10.155-.421-54.396-3.481-60.627-.554-1.128-1.469-1.877-2.73-2.103-1.343-.24-1.867.143-2.887.854-1.498 4.127 2.087 44.085 1.659 54.033-6.933 5.801-15.847 8.681-24.583 10.407-20.599 4.068-60.897 6.582-78.645-5.378.017-8.532.382-43.912-2.907-49.985-.504-.929-1.344-1.45-2.402-1.562-.993-.105-2.015.345-2.664 1.087-.762.872-1.07 2.143-1.085 3.269-.098 7.465 1.216 15.285 1.59 22.78.37 7.402-.167 14.857.365 22.228-2.116 1.67-4.296 3.206-6.732 4.374-6.988 3.347-15.041 4.909-22.688 5.803-16.577 1.936-60.508 1.341-75.727-4.002-.25-10.535 1.17-28.47-1.662-38.033-.557-1.88-1.227-3.24-2.933-4.203l-1.154.321c-1.154 1.084-1.733 1.867-2.096 3.429-1.397 6.022 1.528 22.824.998 30.586-.14 2.053-.6 3.696-2.269 5.017-11.547 9.137-71.858 7.16-87.643 5.149-1.946-.425-5.327-.873-6.626-2.499-1.829-2.29-9.514-90.132-8.859-94.582 1.313-8.925 6.964-16.416 14.152-21.514 13.109-9.299 32.908-16.019 49.064-13.174 4.376.77 8.581 2.285 12.607 4.141 19.288 8.895 20.795 27.25 24.174 45.842.627 3.453 1.181 8.752 3.299 11.59.746 1.001.92.996 2.088 1.165 1.178-.774 1.773-1.801 2.256-3.103 3.566-9.63-6.153-38.117-10.808-47.309 6.779-11.195 19.746-19.434 31.613-24.222 15.961-6.441 34.421-9.856 50.716-2.728 21.942 9.597 26.723 24.703 30.818 46.921.921 4.995 1.325 10.812 3.388 15.461.484 1.089 1.03 2.223 2.323 2.453 1.411.252 1.827-.125 2.847-.935 4.131-8.848-8.144-42.577-11.345-52.667 14.936-13.925 32.366-25.242 53.217-27.064a61.1 61.1 0 0 1 28.863 4.547c8.099 3.369 16.236 8.623 21.196 16.025 8.339 12.444 7.989 33.88 11.695 47.784.362 1.362.546 2.582 1.9 3.337 1.185.661 1.965.451 3.164.147.53-.507.982-.967 1.252-1.668 3.179-8.283-7.008-44.065-10.678-53.18"/><path fill="#FEFEFE" d="M331.876 300.683c-10.509.692-47.158 1.22-55.856-2.028-.608-.778-.772-1.452-.945-2.409-.771-4.284-.681-8.909-1.032-13.264-1.189-14.747-1.707-29.228-2.118-44.008-.638-22.956-6.717-67.077 7.339-86.006 3.692-4.972 8.357-7.428 14.369-8.328l.45-.042c9.866-.861 17.956 3.013 25.343 9.239a65.1 65.1 0 0 1 17.471 23.181c10.607 23.714 11.968 53.507 14.341 79.22 1.251 13.559 2.668 27.092 3.784 40.664-7.733 2.689-15.005 3.466-23.146 3.781"/><path fill="#FEFEFE" d="m963.161 260.913-.393-.656c3.172-1.366 6.604-1.132 9.799-2.603l.438.613c-1.744 2.245-6.494 1.822-9.248 2.496z"/><path fill="#FEFEFE" d="M857.757 279.183c22.344-3.008 44.867-4.728 67.299-6.921 14.553-1.423 29.161-4.286 43.767-4.868 5.962-.237 11.965.42 17.924.63-11.605 2.761-23.798 3.561-35.65 4.773a2042 2042 0 0 1-62.295 5.628c-9.927.74-20.132.774-30.001 1.877z"/><path fill="#FEFEFE" d="M265.844 290.986a3776 3776 0 0 1-44.975-3.204c-23.87-2.057-47.695-4.612-71.579-6.526-8.86-.71-79.723-4.592-82.272-6.115-.413-2.377.457-4.834.62-7.258 12.564-.167 195.194 16.634 197.798 18.125 1.101.632 1.097.989 1.423 2.132-.22 1.124-.323 1.902-1.015 2.846"/><path fill="#FEFEFE" d="M801.868 294.266c-.965-.066-2.007-.082-2.911-.449-.978-.398-1.028-.38-1.422-1.398 2.242-2.133 8.366-1.96 11.477-2.222 25.119-2.114 50.334-2.478 75.465-4.238 33.105-2.32 66.296-6.056 99.274-9.765 1.043-.189 1.929-.16 2.985-.084.955.738.976.673 1.165 1.857l-.78.865c-5.292 2.254-21.978 3.217-28.731 4.03-51.706 6.222-104.367 12.315-156.522 11.404"/><path fill="#B1B1B1" d="M858.801 280.302c-2.99.248-5.954.466-8.956.513l-.759-.639-.256.059.089.498-.651-.185.842-.443-.665.477.385-.416-.545.317.988.204.292-.7c2.63-.578 5.504-.596 8.192-.804z"/><path fill="#FEFEFE" d="M192.885 292.335c-12.17.783-128.222-4.036-133.672-6.2-.667-1.451-.258-2.585-.063-4.15 9.67.122 19.407 1.211 29.05 1.926l39.582 2.636a2260 2260 0 0 1 43.114 3.289c7.249.651 14.876.959 21.989 2.499"/><path fill="#FEFEFE" d="M821.4 300.997c15.251.103 30.672-1.109 45.882-2.168 27.824-1.7 55.577-4.413 83.204-8.133 6.626-.851 39.531-5.394 42.87-3.839.186 1.508.254 1.432-.676 2.624-5.373 2.69-19.153 3.251-25.521 4.041-36.987 4.589-73.752 8.224-111.025 9.24-12.413.338-25.206 1.022-37.571-.373l.442-.827z"/><path fill="#FEFEFE" d="M87.234 296.254c-4.81.302-33.15 1.492-35.638-.257l-.154-2.744c10.455-.056 25.646.379 35.832 2.008z"/><path fill="#FEFEFE" d="M41.356 305.079c12.363-1.466 24.603-1.005 37.016-1.183 5.718-.083 11.422-.621 17.14-.779 12.174-.337 24.442-.245 36.624-.196 5.921.023 11.813.656 17.726.737 73.462 1.135 146.91 3.06 220.331 5.772a10256 10256 0 0 0 301.969 4.25c56.46.324 112.919-.621 169.336-2.836 20.482-.853 41.071-1.624 61.511-3.183 29.94-2.283 59.53-7.058 89.334-10.465 1.432-.198 2.437-.268 3.885-.017.132.275.32.529.398.824.74 2.794-2.003 41.305-2.364 48.045-2.301 42.931-3.464 86.049-7.027 128.894-.237 2.85-.816 13.603-2.595 15.321-4.036 3.896-54.537 10.653-62.851 11.584a2091 2091 0 0 1-182.962 13.411c-23.682.572-47.429-1.206-71.094-.671a6581 6581 0 0 1-318.092 1.161l-118.194-3.495c-30.03-1.036-60.134-2.453-90.182-2.418-21.079.024-42.473 1.189-63.472 2.942-17.48 1.46-34.894 3.499-52.418 4.415-1.228-.188-1.237-.083-1.97-1.068-.856-5.915.608-12.983 1.109-18.967l2.152-28.563a3698 3698 0 0 1 8.476-108.08c1.702-18.476 2.858-37.168 6.214-55.435m913.812 46.671c-6.797.4-16.04-.36-22.305 2.191-1.242 1.494-1.564 3.138-1.783 5.028-.523 4.497.157 9.413.339 13.944.228 5.66.19 11.289.077 16.95-2.636-2.82-5.168-5.667-7.521-8.73-3.462-4.507-16.717-24.125-19.715-26.094-1.474-.968-4.155-.97-5.93-1.023-6.679-.199-19.222-.718-25.178 1.843-.801 1.244-.648 2.737-.662 4.196-.056 5.864.555 11.845.802 17.712l1.184 33.74 1.012 26.808c.223 5.634-.061 11.686 1.125 17.209.167.78.187 1.54.884 2.032 2.837 2.002 9.464.779 12.832.483 5.024.022 13.774 1.238 18.072-1.194 2.755-5.408.132-33.026-.156-40.662 8.874 8.476 16.134 18.648 23.597 28.366 2.923 3.807 5.697 8.111 9.159 11.429 6.014-.017 22.778.977 26.993-2.78 1.172-7.13.448-14.765.223-21.964-.458-14.727-1.475-29.412-2.043-44.128-.43-11.123.612-23.078-1.226-34.017-.772-.985-1.401-1.272-2.657-1.471-2.258-.358-4.844-.043-7.123.132m-700.144.385c-1.467.934-2.184 1.683-2.533 3.439-1.435 7.223.362 17.499.544 25.035.321 13.324-.926 30.425 1.274 43.184.931 5.397 2.723 10.697 5.968 15.157 6.999 9.624 17.933 15.108 29.523 16.847 13.574 2.036 29.058.061 40.297-8.33 8.27-6.174 13.402-14.495 14.838-24.746 1.735-12.38.267-25.817.461-38.346.109-5.455 1.759-27.517-1.216-31.014-1.59-1.869-4.58-1.596-6.844-1.594-4.778.003-21.239-.46-24.535.953-5.589 6.367 3.313 59.205-3.565 69.148-1.907 2.758-5.566 3.774-8.748 3.991-3.407.231-7.922-.543-10.527-2.92-1.335-1.217-2.291-2.9-2.777-4.631-1.864-6.634-1.026-24.249-1.068-31.806-.032-5.616 1.298-29.73-1.765-33.324-1.84-2.159-24.833-1.188-28.906-1.059zm113.249.008c-2.448.446-4.931.717-6.588 2.756-1.797 7.021-.672 33.538-.652 42.252.038 16.014-.566 32.263.083 48.244.111 2.714.446 5.467 1.284 8.058 2.429 2.003 21.28 2.033 25.29 1.621 1.661-.171 3.425-.713 4.573-1.997 3.132-3.505 1.18-15.798 1.323-20.543 4.083-.083 8.141-.17 12.222.06 5.259 7.044 7.62 15.874 13.339 22.726 6.204.812 12.657.697 18.912.728 3.678.055 11.401 1.116 14.307-1.013.906-2.503.017-4.834-1.065-7.148-3.821-8.181-9.327-15.632-13.014-23.843 8.64-9.788 14.405-19.736 13.574-33.202-.651-10.573-4.952-20.385-12.958-27.424-13.518-11.886-32.451-11.461-49.402-11.397-7.068.026-14.164-.059-21.228.122m-143.079 1.134-44.395 1.064c-6.159.205-12.686-.06-18.761.808-1.514.216-3.349.533-4.427 1.707-.685.746-.658 2.684-.676 3.681-.299 15.973 1.124 32.154 1.589 48.135l.945 26.081c.168 5.99-.081 12.225.841 18.157.133.853.281 3.053 1.014 3.459 1.54.853 4.493.867 6.285.92 8.71.259 69.799-1.113 74.347-2.744.894-.321 1.292-.896 1.668-1.749 1.479-3.357.401-9.348.174-12.92-.083-2.884.509-9.137-1.648-11.257-3.275-3.217-31.237-1.055-37.078-.783-3.409.158-8.716 1.2-11.843-.084-.681-.279-.872-1.192-.982-1.87-.313-1.935-.268-3.799.241-5.683 4.722-4.453 30.03.919 33.689-3.596 1.075-1.328 1.039-3.854 1.082-5.496.12-4.647.447-15.197-1.551-19.167-3.486-1.952-28.057-.117-34.69-.712l.028-7.361c9.264-.605 18.577-.75 27.859-.882 5.077-.072 10.397.191 15.42-.44 2.138-.268 3.886-.595 5.685-1.813 2.055-3.344 1.721-19.451.726-23.547-.372-1.532-1.058-2.936-2.534-3.684-3.098-1.57-9.461-.426-13.008-.224m578.032 1.426c-15.736 1.245-30.874 6.486-41.351 18.799-9.473 11.134-14.24 24.537-12.979 39.222a53.71 53.71 0 0 0 19.108 37.031c11.827 9.883 27.054 12.921 42.117 12.204 16.343-1.862 31.64-7.678 42.164-20.936 9.027-11.373 11.946-26.739 10.177-40.962-1.663-13.37-8.691-25.081-19.337-33.282-10.733-8.269-26.278-13.51-39.899-12.076m-270.633 1.376c-3.494 4.799-32.805 95.725-32.099 100.279.024.156.08.306.12.459 1.359.765 2.605.994 4.148 1.187 2.992.375 22.549 1.055 24.62.463 1.509-.431 2.784-1.241 3.534-2.678 1.177-2.258 1.783-5.411 2.708-7.872 4.406-.069 26.538-.498 29.193 1.557.478 1.162.834 2.201 1.102 3.437.677 2.255 1.17 5.061 3.259 6.455 2.923 1.95 24.676 1.775 28.489.724 1.1-.303 1.788-.516 2.445-1.488-.605-10.716-8.16-28.869-11.594-39.921-5.832-18.766-10.968-37.995-17.589-56.486-.674-1.885-1.494-3.551-2.616-5.217-8.143-.69-28.284-1.889-35.72-.899m59.638.852c-.816 1.374-1.721 2.304-1.452 3.996.77 4.843 6.985 19.385 9.005 24.995 8.101 22.508 15.395 45.857 24.891 67.803.815 1.884 2.69 6.319 4.445 7.226 1.693.874 26.498.594 28.342-.234 3.607-1.621 20.748-53.742 23.338-61.083 2.533-6.634 13.064-34.078 13.091-39.321-.847-1.21-2.004-1.546-3.399-1.775-3.828-.63-7.933.11-11.817.029-4.396-.091-8.868-.812-13.257-.583-1.327.069-2.443.326-3.698.748-6.628 6.136-13.301 44.985-18.075 48.567-3.528-1.692-6.491-13.147-7.827-16.953-1.979-5.637-8.04-29.669-12.234-32.004-5.136-2.858-24.632-1.198-31.353-1.411m-495.958.785c-6.923.364-30.195-.29-34.842 2.538-.659 2.377-.866 4.768-.892 7.227-.11 10.35 2.921 89.009 4.487 92.801 3.473 1.967 24.338 1.22 28.46.227 1.551-.374 2.722-1.356 3.498-2.726 1.845-3.257.516-11.184.297-14.907-.043-1.935-.16-3.896-.095-5.828 15.891-.455 32.444-.208 44.143-12.761 7.492-8.038 9.953-18.923 9.55-29.662-.376-10.036-4.032-19.662-11.562-26.498-11.852-10.758-27.33-11.345-42.524-10.459-.174.01-.347.032-.52.048m628.466.07c-5.466.162-17.55-1.292-21.667 2.557-2.062 14.322-.084 35.84.162 50.859.183 11.199.239 22.392.57 33.588.144 4.862-.094 10.151.867 14.919.96 1.061 1.878 1.431 3.282 1.544 2.125.172 4.423-.077 6.56-.145 6.425-.089 15.581 1.22 21.388-1.122 1.156-1.293 1.106-4.264 1.18-6.022.765-18.289-.554-37.045-1.045-55.34-.312-11.63.316-23.494-.406-35.068-.118-1.901-.2-3.135-1.78-4.394-2.287-1.824-6.386-1.645-9.111-1.376"/><path fill="#B1B1B1" d="M818.563 302.389c-2.455.054-6.67-.131-8.963-.894 3.919-.62 7.846-.518 11.8-.498l-2.395.565z"/><path d="M931.496 389.863c.113-5.661.151-11.29-.077-16.95-.182-4.531-.862-9.447-.339-13.944.219-1.89.541-3.534 1.783-5.028 6.265-2.551 15.508-1.791 22.305-2.191 2.279-.175 4.865-.49 7.123-.132 1.256.199 1.885.486 2.657 1.471 1.838 10.939.796 22.894 1.226 34.017.568 14.716 1.585 29.401 2.043 44.128.225 7.199.949 14.834-.223 21.964-4.215 3.757-20.979 2.763-26.993 2.78-3.462-3.318-6.236-7.622-9.159-11.429-7.463-9.718-14.723-19.89-23.597-28.366.288 7.636 2.911 35.254.156 40.662-4.298 2.432-13.048 1.216-18.072 1.194-3.368.296-9.995 1.519-12.832-.483-.697-.492-.717-1.252-.884-2.032-1.186-5.523-.902-11.575-1.125-17.209l-1.012-26.808-1.184-33.74c-.247-5.867-.858-11.848-.802-17.712.014-1.459-.139-2.952.662-4.196 5.956-2.561 18.499-2.042 25.178-1.843 1.775.053 4.456.055 5.93 1.023 2.998 1.969 16.253 21.587 19.715 26.094 2.353 3.063 4.885 5.91 7.521 8.73"/><path d="M345.396 384.375c-.194 12.529 1.274 25.966-.461 38.346-1.436 10.251-6.568 18.572-14.838 24.746-11.239 8.391-26.723 10.366-40.297 8.33-11.59-1.739-22.524-7.223-29.523-16.847-3.245-4.46-5.037-9.76-5.968-15.157-2.2-12.759-.953-29.86-1.274-43.184-.182-7.536-1.979-17.812-.544-25.035.349-1.756 1.066-2.505 2.533-3.439l.421-.016c4.073-.129 27.066-1.1 28.906 1.059 3.063 3.594 1.733 27.708 1.765 33.324.042 7.557-.796 25.172 1.068 31.806.486 1.731 1.442 3.414 2.777 4.631 2.605 2.377 7.12 3.151 10.527 2.92 3.182-.217 6.841-1.233 8.748-3.991 6.878-9.943-2.024-62.781 3.565-69.148 3.296-1.413 19.757-.95 24.535-.953 2.264-.002 5.254-.275 6.844 1.594 2.975 3.497 1.325 25.559 1.216 31.014"/><path d="M393.586 432.534c-.143 4.745 1.809 17.038-1.323 20.543-1.148 1.284-2.912 1.826-4.573 1.997-4.01.412-22.861.382-25.29-1.621-.838-2.591-1.173-5.344-1.284-8.058-.649-15.981-.045-32.23-.083-48.244-.02-8.714-1.145-35.231.652-42.252 1.657-2.039 4.14-2.31 6.588-2.756 7.064-.181 14.16-.096 21.228-.122 16.951-.064 35.884-.489 49.402 11.397 8.006 7.039 12.307 16.851 12.958 27.424.831 13.466-4.934 23.414-13.574 33.202 3.687 8.211 9.193 15.662 13.014 23.843 1.082 2.314 1.971 4.645 1.065 7.148-2.906 2.129-10.629 1.068-14.307 1.013-6.255-.031-12.708.084-18.912-.728-5.719-6.852-8.08-15.682-13.339-22.726-4.081-.23-8.139-.143-12.222-.06m.032-51.15c.071 7.085.051 14.188.316 21.269 7.115.042 15.744 1.224 21.896-2.963 1.909-2.272 4.164-6.16 3.785-9.287-.311-2.563-1.902-4.482-3.972-5.922-5.937-4.13-15.09-3.107-22.025-3.097"/><path d="M243.798 439.876c.227 3.572 1.305 9.563-.174 12.92-.376.853-.774 1.428-1.668 1.749-4.548 1.631-65.637 3.003-74.347 2.744-1.792-.053-4.745-.067-6.285-.92-.733-.406-.881-2.606-1.014-3.459-.922-5.932-.673-12.167-.841-18.157l-.945-26.081c-.465-15.981-1.888-32.162-1.589-48.135.018-.997-.009-2.935.676-3.681 1.078-1.174 2.913-1.491 4.427-1.707 6.075-.868 12.602-.603 18.761-.808l44.395-1.064c3.547-.202 9.91-1.346 13.008.224 1.476.748 2.162 2.152 2.534 3.684.995 4.096 1.329 20.203-.726 23.547-1.799 1.218-3.547 1.545-5.685 1.813-5.023.631-10.343.368-15.42.44-9.282.132-18.595.277-27.859.882l-.028 7.361c6.633.595 31.204-1.24 34.69.712 1.998 3.97 1.671 14.52 1.551 19.167-.043 1.642-.007 4.168-1.082 5.496-3.659 4.515-28.967-.857-33.689 3.596-.509 1.884-.554 3.748-.241 5.683.11.678.301 1.591.982 1.87 3.127 1.284 8.434.242 11.843.084 5.841-.272 33.803-2.434 37.078.783 2.157 2.12 1.565 8.373 1.648 11.257"/><path d="M810.121 461.959c-15.063.717-30.29-2.321-42.117-12.204a53.71 53.71 0 0 1-19.108-37.031c-1.261-14.685 3.506-28.088 12.979-39.222 10.477-12.313 25.615-17.554 41.351-18.799 13.621-1.434 29.166 3.807 39.899 12.076 10.646 8.201 17.674 19.912 19.337 33.282 1.769 14.223-1.15 29.589-10.177 40.962-10.524 13.258-25.821 19.074-42.164 20.936m-5.158-76.029c-12.583.427-22.414 11.015-21.908 23.595s11.154 22.344 23.731 21.76c12.466-.579 22.126-11.114 21.624-23.583-.501-12.47-10.975-22.195-23.447-21.772"/><path d="M535.624 447.917c-.925 2.461-1.531 5.614-2.708 7.872-.75 1.437-2.025 2.247-3.534 2.678-2.071.592-21.628-.088-24.62-.463-1.543-.193-2.789-.422-4.148-1.187-.04-.153-.096-.303-.12-.459-.706-4.554 28.605-95.48 32.099-100.279 7.436-.99 27.577.209 35.72.899 1.122 1.666 1.942 3.332 2.616 5.217 6.621 18.491 11.757 37.72 17.589 56.486 3.434 11.052 10.989 29.205 11.594 39.921-.657.972-1.345 1.185-2.445 1.488-3.813 1.051-25.566 1.226-28.489-.724-2.089-1.394-2.582-4.2-3.259-6.455-.268-1.236-.624-2.275-1.102-3.437-2.655-2.055-24.787-1.626-29.193-1.557m14.569-49.065c-2.972 6.861-4.913 14.113-6.538 21.398l7.97-.119 5.305-.218c-1.204-4.332-4.113-18.1-6.737-21.061"/><path d="M680.8 399.634c-2.59 7.341-19.731 59.462-23.338 61.083-1.844.828-26.649 1.108-28.342.234-1.755-.907-3.63-5.342-4.445-7.226-9.496-21.946-16.79-45.295-24.891-67.803-2.02-5.61-8.235-20.152-9.005-24.995-.269-1.692.636-2.622 1.452-3.996 6.721.213 26.217-1.447 31.353 1.411 4.194 2.335 10.255 26.367 12.234 32.004 1.336 3.806 4.299 15.261 7.827 16.953 4.774-3.582 11.447-42.431 18.075-48.567 1.255-.422 2.371-.679 3.698-.748 4.389-.229 8.861.492 13.257.583 3.884.081 7.989-.659 11.817-.029 1.395.229 2.552.565 3.399 1.775-.027 5.243-10.558 32.687-13.091 39.321"/><path d="M97.282 442.876c.218 3.723 1.547 11.65-.298 14.907-.776 1.37-1.947 2.352-3.498 2.726-4.122.993-24.987 1.74-28.46-.227-1.566-3.792-4.596-82.451-4.487-92.801.026-2.459.233-4.85.892-7.227 4.647-2.828 27.92-2.174 34.842-2.538.173-.016.346-.038.52-.048 15.194-.886 30.672-.299 42.524 10.459 7.53 6.836 11.186 16.462 11.562 26.498.403 10.739-2.058 21.624-9.55 29.662-11.699 12.553-28.252 12.306-44.143 12.761-.065 1.932.052 3.893.095 5.828m6.845-56.647c-3.446.147-7.097.077-10.496.614l1.177 22.178c4.683-.523 9.414-.606 14.077-1.226 4.003-1.285 7.702-2.587 9.891-6.502 1.306-2.336 1.507-5.024.636-7.544-1.039-3.009-3.463-5.067-6.314-6.321-2.685-1.181-6.069-1.281-8.971-1.199"/><path d="M714.513 461.108c-2.137.068-4.435.317-6.56.145-1.404-.113-2.322-.483-3.282-1.544-.961-4.768-.723-10.057-.867-14.919-.331-11.196-.387-22.389-.57-33.588-.246-15.019-2.224-36.537-.162-50.859 4.117-3.849 16.201-2.395 21.667-2.557 2.725-.269 6.824-.448 9.111 1.376 1.58 1.259 1.662 2.493 1.78 4.394.722 11.574.094 23.438.406 35.068.491 18.295 1.81 37.051 1.045 55.34-.074 1.758-.024 4.729-1.18 6.022-5.807 2.342-14.963 1.033-21.388 1.122"/><path fill="#FEFEFE" d="M393.934 402.653c-.265-7.081-.245-14.184-.316-21.269 6.935-.01 16.088-1.033 22.025 3.097 2.07 1.44 3.661 3.359 3.972 5.922.379 3.127-1.876 7.015-3.785 9.287-6.152 4.187-14.781 3.005-21.896 2.963"/><path fill="#FEFEFE" d="M93.631 386.843c3.4-.537 7.05-.467 10.496-.614 2.902-.082 6.286.018 8.971 1.199 2.851 1.254 5.275 3.312 6.314 6.321.871 2.52.67 5.208-.636 7.544-2.189 3.915-5.888 5.217-9.891 6.502-4.663.62-9.394.703-14.077 1.226z"/><path fill="#FEFEFE" d="M806.786 431.285c-12.577.584-23.225-9.18-23.731-21.76s9.325-23.168 21.908-23.595c12.472-.423 22.946 9.302 23.447 21.772.502 12.469-9.158 23.004-21.624 23.583"/><path fill="#FEFEFE" d="M543.655 420.25c1.625-7.285 3.566-14.537 6.538-21.398 2.624 2.961 5.533 16.729 6.737 21.061l-5.305.218z"/><path fill="#FEFEFE" d="M915.083 516.268c11.437-2.068 23.305-2.247 34.868-3.568 6.076-.573 19.173-.332 25 .655.077.17.174.332.231.509.534 1.639.265 3.799-.473 5.323-5.321 2.301-22.545-.566-29.267-.767-9.847-1.533-20.39-1.421-30.359-2.152"/><path fill="#FEFEFE" d="M166.48 521.428a797 797 0 0 0-87.8.092c-4.094.234-19.926 3.092-22.502 1.317l.403-.621c5.37-1.73 12.938-1.681 18.67-2.163 18.478-1.645 37-2.746 55.542-3.303 22.441-.622 46.075.778 68.579 1.51 15.044.49 30.447.036 45.427 1.447-23.984 3.465-53.89 1.904-78.319 1.721"/><path fill="#FEFEFE" d="M836.026 521.319q6.416-.266 12.828-.603c9.777-.819 19.831.574 29.617.943q45.527 2.127 90.982 5.431l-.446 7.345c-2.822-.233-5.543-.964-8.391-.712-8.574-1.727-17.926-1.844-26.645-2.629l-54.717-5.055c-14.298-1.217-29.192-1.659-43.228-4.72"/><path fill="#FEFEFE" d="M93.633 527.928c3.473-1.838 8.722-.884 12.494-.586l-12.172 1.654z"/><path fill="#FEFEFE" d="M93.955 528.996c-11.17 1.739-22.217 4.031-33.356 5.841-1.407.228-2.98.657-4.165-.182-.394-1.3-.329-1.818.104-3.099.708-.861 1.344-1.448 2.459-1.726 3.196-.799 33.223-2.738 34.636-1.902z"/><path fill="#FEFEFE" d="M350.168 594.805c-3.409-5.954-8.029-13.645-8.677-20.6-.409-4.401 1.326-8.28 4.125-11.599 18.564-22.015 98.921-27.211 127.803-29.535 23.452-1.886 46.846-3.239 70.308-4.782 14.469-1.096 29.363-.37 43.869.003 13.385.344 26.951.413 40.307 1.203 2.885.17 9.214-.131 11.131 2.026-.054 1.346.12 1.935-.882 2.941-5.038 5.052-46.285 14.451-55.51 16.323-4.613.936-9.427 1.146-13.968 2.154-1.099.244-2.337.706-3.041 1.629-.816 1.069-.873 1.994-.723 3.266.936 1.176 1.757 1.653 3.275 1.851 11.156 1.452 52.4-12.25 66.195-14.933 5.382-1.046 11.113-1.66 16.569-.837 11.596 1.748 21.788 9.302 28.528 18.655 9.31 12.92 12.705 30.072 10.018 45.705-1.274 7.418-4.442 15.462-9.314 21.267-13.8 16.444-51.349 30.295-72.303 35.703-4.698 1.212-15.016 1.771-18.565 4.516-1.125.87-1.629 1.61-1.781 3.01.432.762.731 1.011 1.524 1.451 4.541 2.519 10.986.243 15.635-.851 10.874-2.56 21.132-5.503 31.499-9.713 7.141-2.9 14.052-6.421 21.327-8.976 11.329-3.98 27.385-8.293 38.812-2.487 4.834 2.456 7.48 6.98 9.065 11.992 3.942 12.464 3.066 40.692-3.346 52.218-6.611 11.886-21.945 17.61-34.204 21.265-5.836 1.627-12.216 2.718-18.234 3.375-4.821.526-11.341.054-15.804 1.872-3.837 1.562-6.155 6.53-9.203 9.231-4.708 4.172-11.39 7.271-17.162 9.623-11.711 4.77-24.693 7.896-37.192 9.696-8.072 1.162-16.35 1.792-24.362 3.272-5.177.956-9.883 3.751-15.12 4.869-35.281 7.536-86.76 15.812-120.506 1.177-16.618-7.206-29.304-18.817-35.928-35.851-6.388-16.43-10.285-38.532-3.009-55.231-2.956-6.677-7.338-12.755-10.37-19.477-10.112-22.414-15.312-51.233-10.786-75.421m177.736-35.624c-7.779 1.064-17.861 3.536-22.904 10.102-.941 1.226-1.381 2.295-1.532 3.844.366.729.335 1.128 1.172 1.413 1.991.678 4.242-.189 5.996-1.146 4.09-2.231 7.292-4.588 11.82-6.035 3.163-.732 6.111-1.197 9.378-1.094 4.589.144 14.943 3.542 18.264.027.331-1.287.261-1.451-.169-2.72-3.921-3.986-12.787-4.508-18.143-4.54a50 50 0 0 0-3.882.149m28.222 113.95c-5.809 1.014-16.626 3.669-20.267 8.702-.637.882-.606 1.389-.675 2.437.646 1.228 1.049 1.666 2.254 2.359 3.416.578 13.098-4.829 17.57-5.848 2.339-.21 4.979-.612 7.301-.215 4.101.702 10.258 4.269 14.024 2.288.821-1.15.978-1.675.993-3.087-.837-2.241-2.356-3.181-4.468-4.087-5.052-2.167-11.28-3.086-16.732-2.549"/><path fill="#FEFEFE" d="M69.009 543.328c-.704-1.256-.886-1.465-.806-2.881 3.494-2.253 47.502-7.703 54.889-8.616l.677.343c-17.976 4.355-36.552 7.873-54.76 11.154"/><path fill="#FEFEFE" d="M703.964 618.307c-1.445.839-2.81 1.491-4.429 1.938-1.854.511-3.547.989-5.264.038-.256-3.449 1.621-7.925 2.316-11.364 3.031-15.002-.524-33.154-8.582-46.038-2.744-4.387-6.371-8.161-9.075-12.539-1.725-2.792-3.006-6.317-2.067-9.609.927-3.25 3.653-4.631 6.337-6.259 1.17-.048 2.384-.054 3.545.094 5.991.763 11.31 4.717 14.855 9.437 9.241 12.309 16.777 37.918 14.514 53.248-1.268 8.589-5.083 15.85-12.15 21.054"/><path d="M522.456 567.359c-4.528 1.447-7.73 3.804-11.82 6.035-1.754.957-4.005 1.824-5.996 1.146-.837-.285-.806-.684-1.172-1.413.151-1.549.591-2.618 1.532-3.844 5.043-6.566 15.125-9.038 22.904-10.102q1.938-.15 3.882-.149c5.356.032 14.222.554 18.143 4.54.43 1.269.5 1.433.169 2.72-3.321 3.515-13.675.117-18.264-.027-3.267-.103-6.215.362-9.378 1.094"/><path fill="#FEFEFE" d="M714.812 712.674c-.675.159-1.327.168-2.017.207-.089-.127-.196-.243-.266-.381-1.434-2.813 1.972-17.981 2.313-21.749.692-7.654.486-16.046-1.187-23.568-2.107-9.47-9.774-18.752-6.019-28.718 2.445-6.487 8.687-9.405 14.624-11.932.348.337.701.776.973 1.185 2.102 3.16 3.349 7.511 4.508 11.098 4.384 13.578 7.958 28.609 5.514 42.922-2.003 11.728-8.587 24.018-18.443 30.936"/><path d="M555.008 680.781c-4.472 1.019-14.154 6.426-17.57 5.848-1.205-.693-1.608-1.131-2.254-2.359.069-1.048.038-1.555.675-2.437 3.641-5.033 14.458-7.688 20.267-8.702 5.452-.537 11.68.382 16.732 2.549 2.112.906 3.631 1.846 4.468 4.087-.015 1.412-.172 1.937-.993 3.087-3.766 1.981-9.923-1.586-14.024-2.288-2.322-.397-4.962.005-7.301.215"/><path d="M326.274 811.913c-1.33.11-2.03.066-3.264-.456-4.902-5.539-21.154-62.953-23.342-73.189-1.053-4.928-3.194-10.123-.422-14.398 1.566.087 2.652.169 4.077.928 2.604 3.084 4.993 19.71 6.289 24.87 3.19 12.693 7.456 25.476 11.793 37.832 2.396 6.828 5.644 13.976 7.127 21.028-.291 1.616-1.135 2.298-2.258 3.385"/><path d="M756.975 762.464c-1.596-.328-2.658-.544-3.704-1.883-2.575-3.296-4.891-12.96-4.377-17.088.224-1.798 1.155-2.497 2.491-3.501 1.087.227 2.125.426 2.986 1.186 3.03 2.678 5.216 14.065 4.825 18.063-.162 1.658-1.073 2.2-2.221 3.223"/><path d="M775.934 854.591c-.716-.07-1.676-.088-2.341-.346-1.297-.503-1.753-.952-2.155-2.26-.856-2.789-.925-6.574-1.304-9.525a851 851 0 0 0-2.915-21.224c-1.266-8.268-4.168-18.437-4.572-26.429-.083-1.657.869-3.107 1.679-4.486 1.337.089 2.808.184 3.867 1.076 3.107 2.618 9.311 51.893 9.685 57.811.177 2.798-.136 3.327-1.944 5.383"/><path d="M343.427 861.577c-.147.039-.293.087-.443.118-.867.177-1.977.221-2.699-.352-3.268-2.591-4.839-10.661-5.521-14.689-.434-2.559-.434-3.563 1.102-5.72 1.004-.087 2.575-.27 3.366.425 2.81 2.467 5.991 13.095 6.011 16.884.008 1.586-.865 2.211-1.816 3.334"/><path d="M782.362 917.704c-1.008-.332-2.205-.656-2.93-1.48-2.49-2.832-4.399-20.805-4.089-24.98.132-1.774.849-2.209 2.068-3.33 1.39.126 2.548-.053 3.536 1.125 2.485 2.96 3.756 20.032 3.581 24.181-.089 2.104-.672 3.051-2.166 4.484"/><path d="M361.681 960.84c-1.234-.332-2.647-.617-3.6-1.51-.7-.656-.87-2.307-1.014-3.245-1.424-9.257-2.348-18.582-3.831-27.842-1.284-8.019-3.443-16.537-3.792-24.622.879-1.586 1.575-1.758 3.135-2.615 1.187-.007 1.923-.093 2.975.538 2.092 3.567 9.224 49.609 8.722 56.07-.118 1.519-1.489 2.371-2.595 3.226"/></svg>