<svg xmlns="http://www.w3.org/2000/svg" width="1024" height="1024"><path fill="#FEFEFE" d="M0 0h1024v1024H0zm770.969 184.353c-8.395-10.816-18.783-20.368-29.01-29.413-53.053-46.919-117.755-70.454-187.318-79.247-96.596-12.209-194.641 23.9-270.293 82.748a495.5 495.5 0 0 0-142.134 176.135c-5.643 11.91-11.854 24.115-15.555 36.786q-.266.072-.536.14c-9.475 2.294-38.281-2.006-43.677 4.578-.278 1.359-.405 1.871.332 3.16 1.072 1.872 3.648 2.415 5.61 2.669 7.199.933 14.981.401 22.271.46q22.705.28 45.411.129 89.228-.747 178.43-3.011l375.852-7.908c46.555-1.185 93.197-1.795 139.733-3.484 11.664-.423 96.127-3.627 99.676-6.463l-.128-.822c-3.345-1.412-9.543-.168-13.228-.191q-20.857-.246-41.716-.218c-7.595.007-15.396.467-22.97.076-1.433-.074-2.379-.03-3.497-.92-.122-1.54.348-3.503-.124-4.909-1.752-5.227-9.36-17.946-12.215-23.785-11.509-23.537-22.736-47.04-35.129-70.146-7.62-14.207-14.794-28.394-25.231-40.786l1.377.345c-.237-1.249-.98-1.965-1.784-2.89-1.177.012-.612-.096-1.696.311l-.407-.784c.023-.318.083-.635.068-.953-.072-1.476-.719-2.616-1.695-3.623-1.244-3.297-2.948-5.663-5.231-8.287l-.785-.274.506-1.404-.217-.429-1.667.54-1.207-2.175a6.5 6.5 0 0 0-1.775-.529c-.212-.033-.426-.057-.64-.086l-1.455-1.984c.73-.409 1.141-.542 1.582-1.276-1.542-3.367-4-5.8-6.442-8.526-.892-1.25-1.725-2.785-3.086-3.554M617.261 921.738c23.21-8.737 45.804-18.337 67.349-30.706 72.584-41.67 119.345-105.292 153.362-180.416 12.423-27.436 22.55-55.947 31.789-84.593 3.467-10.752 6.092-22.004 9.86-32.616.617-1.739 1.36-3.763 3.164-4.526 7.963-3.371 53.608.048 58.015-4.945.255-1.216.431-2.312-.216-3.462-.628-1.116-1.622-1.606-2.83-1.829-10.013-1.842-28.035-.738-38.738-.451l-39.909.938-130.456 3.145a49286 49286 0 0 0-584.047 17.04c-11.234.471-22.438 1.435-33.664 2.018-8.469.44-17.255.282-25.65 1.484-1.501.215-2.915.549-4.186 1.404-.63 1.08-.6 1.614-.48 2.844 1.548 1.978 3.919 2.377 6.3 2.67 14.101 1.74 33.683-.646 48.481-.723 6.014 11.007 10.96 22.734 15.811 34.289a978 978 0 0 1 23.311 61.793c4.667 13.952 8.801 28.107 13.91 41.906 3.696 9.982 8.396 19.718 12.974 29.324 24.663 51.742 54.146 83.314 102.995 113.277a365.3 365.3 0 0 0 83.873 37.144c12.053 3.526 41.775 11.596 53.566 10.828 1.014-.668 1.161-.891 2.396-.666.345.063.89.233 1.242.337.605 1.231 1.003 1.958 2.327 2.494 1.742.704 3.47.379 5.195-.134l.652-.705-.156-.891c2.354-1.643 12.112.671 15.251.994 15.923 1.637 31.861.62 47.726-.797 3.489-.311 8.159.026 11.161-1.94.971-.635 1.349-.99 2.573-.962.697.748.961 1.15 1.951 1.481-.023-.659.023-.385-.156-1.055q-.067-.242-.137-.482l.816-.342c.465.442.918.888 1.37 1.344a9.8 9.8 0 0 0 1.991-1.091c.975-.672 1.035-.487 2.17-.434l.011.754.423.496.639-.664c7.046.947 5.8-1.456 9.917-1.948 1.16-.138 3.628.733 4.854.994 3.574-1.536 8.543-1.253 11.009-4.26.456-.556.125-.333 1.059-.579 2.008-.53 3.258.04 4.973 1.023 2.557 1.465 20.308-5.918 25.497-5.097-1.951 3.241-7.724 3.028-10.938 5.202 10.66-2.569 21.247-5.271 31.6-8.909m-49.699 13.059c2.756-.323 6.378-.797 8.781-2.234-1.542-.69-6.605 1.162-8.466 1.645zm403.802-558.562a32255 32255 0 0 1-619.614 16.133l-179.997 2.167-51.88 1.069c-10.023.161-20.496-.338-30.46.585a3539 3539 0 0 0-39.445 138.742l-7.687 29.196c-1.566 5.879-3.424 11.806-4.492 17.795-.458 2.567-1.224 6.133.15 8.477.86 1.467 2.314 2.39 3.946 2.78 3.812.91 8.271-.243 12.184-.304a33276 33276 0 0 1 593.787-19.978l182.481-4.193q33.21-.682 66.427-.87c9.011-.139 18.333.361 27.294-.355 4.617-7.966 7.061-17.857 9.928-26.587q6-18.401 12.194-36.739l28.381-84.315c4.28-12.864 9.711-26.378 12.966-39.483-.464-1.491-.572-3.061-2.025-3.911-3.064-1.792-10.545-.278-14.138-.209M464.629 940.621c4.713 1.517 10.753 2.334 15.681 1.706-4.328-1.895-10.984-1.702-15.681-1.706m15.514 1.094c.396.52.45.897 1.127.982 5.215.648 18.559.685 23.593-.712l.249-.283c-3.224-.216-6.385.166-9.606.144-5.087-.034-10.297-.7-15.363-.131"/><path d="M770.969 184.353c-2.707-1.949-5.528-4.128-9.096-3.823-.165.014-.326.059-.49.089.159 1.314 1.25 2.033 2.271 2.848.165.13.834.571.993.679 5.453 3.698 8.372 9.868 13.333 13.231l.935.332 1.455 1.984c.214.029.428.053.64.086a6.5 6.5 0 0 1 1.775.529l1.207 2.175-2.708 3.804c1.311 1.227 2.61 2.462 3.977 3.626l1.353-.253c1.783 2.772 3.466 5.545 6.399 7.253l.407.784c1.084-.407.519-.299 1.696-.311.804.925 1.547 1.641 1.784 2.89l-1.377-.345c10.437 12.392 17.611 26.579 25.231 40.786 12.393 23.106 23.62 46.609 35.129 70.146 2.855 5.839 10.463 18.558 12.215 23.785.472 1.406.002 3.369.124 4.909 1.118.89 2.064.846 3.497.92 7.574.391 15.375-.069 22.97-.076q20.86-.028 41.716.218c3.685.023 9.883-1.221 13.228.191l.128.822c-3.549 2.836-88.012 6.04-99.676 6.463-46.536 1.689-93.178 2.299-139.733 3.484L334.5 379.487a10488 10488 0 0 1-178.43 3.011q-22.706.151-45.411-.129c-7.29-.059-15.072.473-22.272-.46-1.96-.254-4.537-.797-5.609-2.669-.737-1.289-.61-1.801-.332-3.16 5.396-6.584 34.202-2.284 43.677-4.578q.27-.068.536-.14c3.701-12.671 9.912-24.876 15.555-36.786a495.5 495.5 0 0 1 142.134-176.135C360 99.592 458.045 63.484 554.641 75.693c69.563 8.793 134.265 32.328 187.318 79.247 10.227 9.045 20.615 18.597 29.01 29.413M571.13 84.27c2.062.916 7.04 1.351 9.236.874-1.556-1.424-5.128-1.177-7.095-1.074-.72.037-1.428.1-2.141.2m-67.563.438c-27.066 2.21-53.407 6.067-79.598 13.508-77.92 22.135-149.861 72.288-202.063 133.706a479.1 479.1 0 0 0-69.258 106.249c-5.217 10.823-10.606 22.147-14.154 33.634 7.67-.001 44.198.812 48.421-1.41 5.281-7.339 9.031-16.553 13.443-24.491a595 595 0 0 1 26.221-42.402c58.184-84.987 138.016-149.975 241.773-166.865a385 385 0 0 1 12.376-1.799c9.688-1.096 19.481-2.131 29.236-2.289 73.201-1.182 141.057 27.091 197.722 72.161 41.081 32.673 69.415 73.16 93.506 119.284 5.929 11.35 13.091 24.238 16.406 36.643 11.791.885 23.876.192 35.689-.16-14.617-25.339-24.804-53.396-37.804-79.6-11.457-23.095-23.837-46.814-38.689-67.894-43.328-61.5-99.709-97.97-171.763-117.367a342.6 342.6 0 0 0-84.892-11.342c-5.242-.055-11.441-.468-16.572.433m4.691 57.984C413.01 147.526 338.063 187.904 274.51 258.2a467.4 467.4 0 0 0-66.042 93.619c-3.266 6.158-7.427 12.917-9.291 19.654l61.523-1.009c8.487-15.685 19.896-31.161 31.014-45.041 39.303-49.066 87.332-86.706 148.109-104.884a209.6 209.6 0 0 1 50.053-8.369c11.276-.307 22.674-.333 33.886 1.076 50.83 6.39 100.377 33.212 137.255 68.142 24.599 23.301 44.552 51.103 61.009 80.578 28.26-.163 56.743-.105 84.969-1.419-9.916-23.559-21.993-45.956-35.34-67.722-6.67-10.876-13.29-21.503-21.209-31.541-34.026-43.128-81.529-77.666-132.303-98.295-32.371-13.152-74.832-22.468-109.885-20.297M407.955 243c-48.18 21.51-87.159 59.058-118.179 101.078-4.429 5.998-13.757 17.502-16.289 24.294-.17.454-.235.79-.356 1.276.219.199.386.481.659.596 1.718.722 44.362-.538 49.754-.63q63.708-.639 127.402-2.121c29.632-.623 59.299-1.759 88.936-1.914a8844 8844 0 0 1 140.488-2.71c-6.827-4.916-13.936-9.147-21.051-13.611-6.892-4.325-13.591-8.912-20.607-13.047-7.098-4.182-14.456-7.913-21.66-11.907-51.429-28.515-104.558-54.691-161.268-70.994-15.589-4.481-31.673-8.576-47.829-10.31"/><path fill="#484747" d="M580.366 85.144c-2.196.477-7.174.042-9.236-.874a24 24 0 0 1 2.141-.2c1.967-.103 5.539-.35 7.095 1.074"/><path fill="#FEFEFE" d="M138.494 371.805c3.548-11.487 8.937-22.811 14.154-33.634a479.1 479.1 0 0 1 69.258-106.249c52.202-61.418 124.143-111.571 202.063-133.706 26.191-7.44 52.532-11.298 79.598-13.508 5.131-.902 11.33-.489 16.572-.434 28.66.215 57.18 4.026 84.892 11.342 72.054 19.397 128.435 55.867 171.763 117.367 14.852 21.08 27.232 44.799 38.689 67.894 13 26.204 23.187 54.261 37.804 79.6-11.813.352-23.898 1.045-35.689.16-3.315-12.405-10.477-25.293-16.406-36.643-24.091-46.124-52.425-86.611-93.506-119.284-56.665-45.07-124.521-73.343-197.722-72.161-9.755.158-19.548 1.193-29.236 2.289a385 385 0 0 0-12.376 1.799c-103.757 16.89-183.589 81.878-241.773 166.865a595 595 0 0 0-26.221 42.402c-4.412 7.938-8.162 17.152-13.443 24.491-4.223 2.222-40.751 1.409-48.421 1.41"/><path fill="#FEFEFE" d="M199.177 371.473c1.864-6.737 6.025-13.496 9.291-19.654A467.4 467.4 0 0 1 274.51 258.2c63.553-70.296 138.5-110.674 233.748-115.508 35.053-2.171 77.514 7.145 109.885 20.297 50.774 20.629 98.277 55.167 132.303 98.295 7.919 10.038 14.539 20.665 21.209 31.541 13.347 21.766 25.424 44.163 35.34 67.722-28.226 1.314-56.709 1.256-84.969 1.419-16.457-29.475-36.41-57.277-61.009-80.578-36.878-34.93-86.425-61.752-137.255-68.142-11.212-1.409-22.61-1.383-33.886-1.076a209.6 209.6 0 0 0-50.053 8.369c-60.777 18.178-108.806 55.818-148.109 104.884-11.118 13.88-22.527 29.356-31.014 45.041z"/><path fill="#DEDEDD" d="M777.98 197.377c-4.961-3.363-7.88-9.533-13.333-13.231-.159-.108-.828-.549-.993-.679-1.021-.815-2.112-1.534-2.271-2.848.164-.03.325-.075.49-.089 3.568-.305 6.389 1.874 9.096 3.823 1.361.769 2.194 2.304 3.086 3.554l-.777.798c-1.278-.851-2.507-1.86-4.042-2.152 2.538 2.471 8.276 7.2 8.744 10.824"/><path fill="#252525" d="M774.055 187.907c2.442 2.726 4.9 5.159 6.442 8.526-.441.734-.852.867-1.582 1.276l-.935-.332c-.468-3.624-6.206-8.353-8.744-10.824 1.535.292 2.764 1.301 4.042 2.152z"/><path fill="#FEFEFE" d="m781.284 206.287 2.708-3.804 1.667-.54.217.429-.506 1.404.785.274-1.296.776c.669 2.708 3.46 5.682 5.795 7.093.241.145.488.279.732.418.976 1.007 1.623 2.147 1.695 3.623.015.318-.045.635-.068.953-2.933-1.708-4.616-4.481-6.399-7.253l-1.353.253c-1.367-1.164-2.666-2.399-3.977-3.626"/><path d="M791.386 212.337c-.244-.139-.491-.273-.732-.418-2.335-1.411-5.126-4.385-5.795-7.093l1.296-.776c2.283 2.624 3.987 4.99 5.231 8.287"/><path fill="#FEFEFE" d="M539.882 365.579c-29.637.155-59.304 1.291-88.936 1.914q-63.693 1.482-127.402 2.121c-5.392.092-48.036 1.352-49.754.63-.273-.115-.44-.397-.659-.596.121-.486.186-.822.356-1.276 2.532-6.792 11.86-18.296 16.289-24.294 31.02-42.02 69.999-79.568 118.179-101.078 16.156 1.734 32.24 5.829 47.829 10.31 56.71 16.303 109.839 42.479 161.268 70.994 7.204 3.994 14.562 7.725 21.66 11.907 7.016 4.135 13.715 8.722 20.607 13.047 7.115 4.464 14.224 8.695 21.051 13.611a8844 8844 0 0 0-140.488 2.71"/><path d="M89.413 396.189c9.964-.923 20.437-.424 30.46-.585l51.88-1.069 179.997-2.167a32255 32255 0 0 0 619.614-16.133c3.593-.069 11.074-1.583 14.138.209 1.453.85 1.561 2.42 2.025 3.911-3.255 13.105-8.686 26.619-12.966 39.483l-28.381 84.315a3656 3656 0 0 0-12.194 36.739c-2.867 8.73-5.311 18.621-9.928 26.587-8.961.716-18.283.216-27.294.355q-33.216.188-66.427.87l-182.481 4.193a33276 33276 0 0 0-593.787 19.978c-3.913.061-8.372 1.214-12.184.304-1.632-.39-3.085-1.313-3.945-2.78-1.375-2.344-.61-5.91-.151-8.477 1.068-5.989 2.926-11.916 4.492-17.795l7.687-29.196a3539 3539 0 0 1 39.445-138.742m608.023 49.172c-.96 1.247-1.712 2.444-2.243 3.934-1.886 5.283-15.648 51.816-15.296 54.302.196 1.381.868 1.647 1.889 2.475 1.164.173 1.47.305 2.462-.486 3.03-2.416 4.021-11.718 5.039-15.495 3.366-.276 6.802-.428 10.138-.934 1.298-.288 4.872-1.378 6.018-.415 3.99 3.353 1.746 15.115 7.479 17.596 1.178-.183 2.154-.441 2.86-1.509.646-.977.557-1.852.36-2.939-1.125-6.194-3.724-12.516-5.368-18.641l-6.103-23.015c-1.045-3.914-1.872-8.205-3.381-11.948-.653-1.62-1.934-2.192-3.486-2.799-.121-.047-.246-.084-.368-.126m39.483.41c-.563.889-1.072 1.686-1.247 2.744-.84 5.079-.71 50.44.12 55.602.814 1.135 1.014 1.611 2.456 1.936.591.133 1.528.033 2.108.017.75-.93 1.313-1.621 1.467-2.834.931-7.333.109-15.823.102-23.251-.008-9.888.776-20.538-.189-30.357-.105-1.077-.264-1.741-.943-2.62-1.348-.846-2.302-1.055-3.874-1.237m28.398.1c-.975 1.172-1.459 1.622-1.72 3.215-1.284 7.838-.253 19.127-.194 27.427.057 8.091-.488 16.62.199 24.661.116 1.359.28 2.518.81 3.773 3.404 1.804 18.413 1.552 22.214.417.439-1.614.807-2.672.233-4.327-1.067-1.396-1.949-1.912-3.657-2.139-4.232-.562-9.567.774-13.782 1.345-.305-6.998.676-50.402-1.088-53.045-1.022-.608-1.866-1.015-3.015-1.327m-107.878 1.557c-6.351 7.448-11.712 16.195-16.882 24.496-3.814-4.232-16.539-21.967-20.944-22.818-.862-.167-1.64.132-2.437.405-.857 1.018-.864 1.936-.943 3.211-.578 9.272.282 19.053.424 28.376.113 7.377-.424 15.116-.004 22.437.107 1.854.873 3.822 2.385 4.964.701.53.526.376 1.465.431 1.682-1.462 1.784-3.483 1.933-5.622.417-5.95-.131-12.131-.31-18.093a704 704 0 0 1-.156-20.34l.064-5.374c3.054 3.638 6.161 7.253 9.099 10.985 1.927 2.449 3.716 5.291 5.861 7.532.86.898 1.641 1.327 2.853 1.655 2.138-.321 3.165-1.494 4.408-3.131 4.159-5.478 7.788-11.499 11.749-17.142l.327 31.811c.037 3.454-.549 7.56-.035 10.921.169 1.11.903 2.876 1.714 3.662 1 .97 1.28 1.019 2.566.944 1.748-1.626 1.844-3.444 1.936-5.702.419-10.325.079-20.802.071-31.14-.006-6.164.539-12.945-.175-19.042-.105-.892-.365-1.411-.86-2.139-1.381-1.083-2.44-1.151-4.109-1.287m-202.681 2.279c-17.376 2.21-29.62 18.157-27.27 35.514s18.395 29.474 35.733 26.983c17.142-2.462 29.091-18.285 26.767-35.446s-18.051-29.237-35.23-27.051m-211.311-.116c-4.405 1.132-8.802 3.14-11.134 7.29-1.811 3.224-1.908 8.473-.703 11.928 4.125 11.82 22.736 11.109 25.724 23.932.542 2.327.54 4.53-.53 6.705-1.473 2.994-4.843 5.897-8.029 6.861-3.106.94-6.685.743-9.558-.818-3.341-1.817-5.912-5.09-7.976-8.209-1.511.814-2.941 1.341-3.645 3.014-.249 2.312.274 3.834 1.753 5.653 2.326 2.861 6.362 5.574 9.98 6.389 6.191.741 12.404.856 17.621-3.191 3.525-2.735 5.549-6.485 6.006-10.904.564-5.453.09-12.304-3.657-16.603-5.179-5.942-22.779-9.76-23.033-18.413-.06-2.074 1.109-3.516 2.598-4.786 1.849-1.578 3.971-2.365 6.256-3.088 4.249 1.286 6.988 2.811 9.853 6.323l4.197-3.941c-3.164-3.742-6.219-7.443-11.436-8.026a27.4 27.4 0 0 0-4.287-.116m35.619.554c-.439 8.041-.114 16.155-.131 24.208-.016 7.472-.803 15.695.537 23.02.611 3.344 1.889 6.599 4.124 9.197 3.896 4.53 9.704 6.031 15.458 6.28 4.962.214 9.892-.924 13.586-4.401 8.767-8.254 6.903-28.584 6.96-39.947q.025-6.563-.059-13.127c.029-1.669.312-3.354-.719-4.77-1.699-.921-3.874-.548-5.753-.47-.085 11.866 1.672 37.215-1.053 47.338-.501 1.858-1.347 3.471-2.699 4.851-2.708 2.766-6.859 4.08-10.671 3.991-3.753-.088-7.547-1.486-10.116-4.293a10.8 10.8 0 0 1-2.593-4.809c-1.849-7.546-.801-28.977-.718-37.761.018-1.971.509-6.381-.386-8.15-.491-.972-1.294-1.207-2.325-1.308-1.088-.106-2.346.077-3.442.151m60.526-.068-.057 62.003 6.49.194-.069-23.024.004-6.184c6.72-.005 14.409.677 19.569-4.494 3.152-3.159 4.352-7.573 4.249-11.942-.107-4.499-1.615-8.923-4.951-12.048-6.196-5.803-17.34-4.533-25.235-4.505m45.063-.043c-.644 11.424-.181 23.058-.218 34.515-.029 8.713-.613 17.678-.021 26.364 1.568 1.198 4.2.829 6.118.734v-23.905l.035-6.241c6.837.072 14.16-.145 19.362-5.296a14.57 14.57 0 0 0 4.343-10.587 15.66 15.66 0 0 0-5.056-11.354c-6.006-5.428-16.99-4.314-24.563-4.23m191.995.22c-6.368.021-27.436-1.099-31.77.895-.739 1.318-.672 1.534-.551 3.06 1.003 1.326 1.865 1.627 3.521 1.799 3.68.382 7.528-.093 11.227-.108.277 14.667.045 29.674 1.285 44.286-.024 2.953-.617 7.48.674 10.097 1.104.945 1.235 1.092 2.661 1.272 1.052-.587 1.541-.761 1.829-2.064.756-3.423.086-8.511.027-12.045-.231-13.794-1.284-27.684-.907-41.464 4.449.075 10.632.893 14.632-1.194.784-1.054.705-1.053.578-2.373-.909-1.336-1.006-1.887-2.753-2.167-.149-.024-.302.004-.453.006m-71.322.225-.024 40.46c-.013 5.249-.712 10.736-.317 15.945.127 1.683.44 2.794 1.419 4.161 1.116.578 2.262.925 3.55.513.731-.234 1.22-.515 1.413-1.261 1.532-5.918-2.296-27.136 1.622-30.308 1.383.429 1.734.94 2.402 2.231 3.046 5.89 4.949 12.578 7.743 18.641 1.189 2.932 2.959 9.231 5.655 10.852 1.359-.007 1.51.001 2.625-.758 1.013-2.227.142-4.291-.657-6.456-3.013-8.165-7.257-15.893-10.347-24.035 4.664-1.928 8.118-3.857 10.134-8.818 1.573-3.87 1.56-9.07-.063-12.923-1.399-3.323-4.11-5.688-7.458-6.95-5.35-2.016-12.042-1.355-17.697-1.294"/><path fill="#FEFEFE" d="M689.287 490.091c-1.018 3.777-2.009 13.079-5.039 15.495-.992.791-1.298.659-2.462.486-1.021-.828-1.693-1.094-1.889-2.475-.352-2.486 13.41-49.019 15.296-54.302.531-1.49 1.283-2.687 2.243-3.934.122.042.247.079.368.126 1.552.607 2.833 1.179 3.486 2.799 1.509 3.743 2.336 8.034 3.381 11.948l6.103 23.015c1.644 6.125 4.243 12.447 5.368 18.641.197 1.087.286 1.962-.36 2.939-.706 1.068-1.682 1.326-2.86 1.509-5.733-2.481-3.489-14.243-7.479-17.596-1.146-.963-4.72.127-6.018.415-3.336.506-6.772.658-10.138.934m8.838-30.244c-2.528 8.13-4.707 16.368-7.123 24.533l6.117-.429c2.536-.339 5.144-.573 7.64-1.139-2.362-7.538-3.893-15.617-6.634-22.965"/><path fill="#FEFEFE" d="M740.356 506.07c-.58.016-1.517.116-2.108-.017-1.442-.325-1.642-.801-2.456-1.936-.83-5.162-.96-50.523-.12-55.602.175-1.058.684-1.855 1.247-2.744 1.572.182 2.526.391 3.874 1.237.679.879.838 1.543.943 2.62.965 9.819.181 20.469.189 30.357.007 7.428.829 15.918-.102 23.251-.154 1.213-.717 1.904-1.467 2.834"/><path fill="#FEFEFE" d="M786.626 505.364c-3.801 1.135-18.81 1.387-22.214-.417-.53-1.255-.694-2.414-.81-3.773-.687-8.041-.142-16.57-.199-24.661-.059-8.3-1.09-19.589.194-27.427.261-1.593.745-2.043 1.72-3.215 1.149.312 1.993.719 3.015 1.327 1.764 2.643.783 46.047 1.088 53.045 4.215-.571 9.55-1.907 13.782-1.345 1.708.227 2.59.743 3.657 2.139.574 1.655.206 2.713-.233 4.327"/><path fill="#FEFEFE" d="M640.557 471.924c5.17-8.301 10.531-17.048 16.882-24.496 1.669.136 2.728.204 4.109 1.287.495.728.755 1.247.86 2.139.714 6.097.169 12.878.175 19.042.008 10.338.348 20.815-.071 31.14-.092 2.258-.188 4.076-1.936 5.702-1.286.075-1.566.026-2.566-.944-.811-.786-1.545-2.552-1.714-3.662-.514-3.361.072-7.467.035-10.921l-.327-31.811c-3.961 5.643-7.59 11.664-11.749 17.142-1.243 1.637-2.27 2.81-4.408 3.131-1.212-.328-1.993-.757-2.853-1.655-2.145-2.241-3.934-5.083-5.861-7.532-2.938-3.732-6.045-7.347-9.099-10.985l-.064 5.374a704 704 0 0 0 .156 20.34c.179 5.962.727 12.143.31 18.093-.149 2.139-.251 4.16-1.933 5.622-.939-.055-.764.099-1.465-.431-1.512-1.142-2.278-3.11-2.385-4.964-.42-7.321.117-15.06.004-22.437-.142-9.323-1.002-19.104-.424-28.376.079-1.275.086-2.193.943-3.211.797-.273 1.575-.572 2.437-.405 4.405.851 17.13 18.586 20.944 22.818"/><path fill="#FEFEFE" d="M463.221 512.204c-17.338 2.491-33.383-9.625-35.733-26.983-2.35-17.357 9.894-33.304 27.27-35.514 17.179-2.186 32.906 9.89 35.23 27.051s-9.625 32.984-26.767 35.446m-5.546-56.137a25.01 25.01 0 0 0-19.762 38.96 25.01 25.01 0 0 0 22.839 10.956c13.55-1.137 23.709-12.891 22.873-26.463-.837-13.572-12.363-23.989-25.95-23.453"/><path fill="#FEFEFE" d="M231.241 497.28c2.064 3.119 4.635 6.392 7.976 8.209 2.873 1.561 6.452 1.758 9.558.818 3.186-.964 6.556-3.867 8.029-6.861 1.07-2.175 1.072-4.378.53-6.705-2.988-12.823-21.599-12.112-25.724-23.932-1.205-3.455-1.108-8.704.703-11.928 2.332-4.15 6.729-6.158 11.134-7.29a27.4 27.4 0 0 1 4.287.116c5.217.583 8.272 4.284 11.436 8.026l-4.197 3.941c-2.865-3.512-5.604-5.037-9.853-6.323-2.285.723-4.407 1.51-6.256 3.088-1.489 1.27-2.658 2.712-2.598 4.786.254 8.653 17.854 12.471 23.033 18.413 3.747 4.299 4.221 11.15 3.657 16.603-.457 4.419-2.481 8.169-6.006 10.904-5.217 4.047-11.43 3.932-17.621 3.191-3.618-.815-7.654-3.528-9.98-6.389-1.479-1.819-2.002-3.341-1.753-5.653.704-1.673 2.134-2.2 3.645-3.014"/><path fill="#FEFEFE" d="M319.541 455.375q.084 6.564.059 13.127c-.057 11.363 1.807 31.693-6.96 39.947-3.694 3.477-8.624 4.615-13.586 4.401-5.754-.249-11.562-1.75-15.458-6.28-2.235-2.598-3.513-5.853-4.124-9.197-1.34-7.325-.553-15.548-.537-23.02.017-8.053-.308-16.167.131-24.208 1.096-.074 2.354-.257 3.442-.151 1.031.101 1.834.336 2.325 1.308.895 1.769.404 6.179.386 8.15-.083 8.784-1.131 30.215.718 37.761a10.8 10.8 0 0 0 2.593 4.809c2.569 2.807 6.363 4.205 10.116 4.293 3.812.089 7.963-1.225 10.671-3.991 1.352-1.38 2.198-2.993 2.699-4.851 2.725-10.123.968-35.472 1.053-47.338 1.879-.078 4.054-.451 5.753.47 1.031 1.416.748 3.101.719 4.77"/><path fill="#FEFEFE" d="m339.535 512.08.057-62.003c7.895-.028 19.039-1.298 25.235 4.505 3.336 3.125 4.844 7.549 4.951 12.048.103 4.369-1.097 8.783-4.249 11.942-5.16 5.171-12.849 4.489-19.569 4.494l-.004 6.184.069 23.024zm6.458-55.251-.038 20.667c5.417.048 9.556.104 14.158-3.173 1.858-2.48 3.742-6.204 3.221-9.434-.403-2.493-1.879-4.514-3.948-5.926-4.09-2.791-8.715-2.258-13.393-2.134"/><path fill="#FEFEFE" d="M390.534 511.647c-1.918.095-4.55.464-6.118-.734-.592-8.686-.008-17.651.021-26.364.037-11.457-.426-23.091.218-34.515 7.573-.084 18.557-1.198 24.563 4.23a15.66 15.66 0 0 1 5.056 11.354 14.57 14.57 0 0 1-4.343 10.587c-5.202 5.151-12.525 5.368-19.362 5.296l-.035 6.241zm.096-56.049q-.108 10.243-.1 20.486c4.847-.421 9.468-.98 13.756-3.517 2.087-2.155 3.958-4.548 3.903-7.715-.036-2.077-1.121-3.79-2.616-5.16-4.093-3.753-9.72-3.908-14.943-4.094"/><path fill="#FEFEFE" d="M559.077 455.9c-3.699.015-7.547.49-11.227.108-1.656-.172-2.518-.473-3.521-1.799-.121-1.526-.188-1.742.551-3.06 4.334-1.994 25.402-.874 31.77-.895.151-.002.304-.03.453-.006 1.747.28 1.844.831 2.753 2.167.127 1.32.206 1.319-.578 2.373-4 2.087-10.183 1.269-14.632 1.194-.377 13.78.676 27.67.907 41.464.059 3.534.729 8.622-.027 12.045-.288 1.303-.777 1.477-1.829 2.064-1.426-.18-1.557-.327-2.661-1.272-1.291-2.617-.698-7.144-.674-10.097-1.24-14.612-1.008-29.619-1.285-44.286"/><path fill="#FEFEFE" d="M523.136 500.861c-2.794-6.063-4.697-12.751-7.743-18.641-.668-1.291-1.019-1.802-2.402-2.231-3.918 3.172-.09 24.39-1.622 30.308-.193.746-.682 1.027-1.413 1.261-1.288.412-2.434.065-3.55-.513-.979-1.367-1.292-2.478-1.419-4.161-.395-5.209.304-10.696.317-15.945l.024-40.46c5.655-.061 12.347-.722 17.697 1.294 3.348 1.262 6.059 3.627 7.458 6.95 1.623 3.853 1.636 9.053.063 12.923-2.016 4.961-5.47 6.89-10.134 8.818 3.09 8.142 7.334 15.87 10.347 24.035.799 2.165 1.67 4.229.657 6.456-1.115.759-1.266.751-2.625.758-2.696-1.621-4.466-7.92-5.655-10.852m-11.629-44.885-.035 19.23c4.193-.418 8.036-.686 11.803-2.763 1.798-2.548 2.885-5.246 2.319-8.417-.566-3.173-2.23-5.113-4.596-7.166a55.3 55.3 0 0 0-9.491-.884"/><path d="M390.53 476.084q-.008-10.243.1-20.486c5.223.186 10.85.341 14.943 4.094 1.495 1.37 2.58 3.083 2.616 5.16.055 3.167-1.816 5.56-3.903 7.715-4.288 2.537-8.909 3.096-13.756 3.517"/><path d="M460.752 505.983a25.012 25.012 0 1 1-3.077-49.916c13.587-.536 25.113 9.881 25.95 23.453s-9.323 25.326-22.873 26.463"/><path d="m511.472 475.206.035-19.23c3.267.026 6.274.312 9.491.884 2.366 2.053 4.03 3.993 4.596 7.166.566 3.171-.521 5.869-2.319 8.417-3.767 2.077-7.61 2.345-11.803 2.763"/><path d="m345.955 477.496.038-20.667c4.678-.124 9.303-.657 13.393 2.134 2.069 1.412 3.545 3.433 3.948 5.926.521 3.23-1.363 6.954-3.221 9.434-4.602 3.277-8.741 3.221-14.158 3.173"/><path d="M691.002 484.38c2.416-8.165 4.595-16.403 7.123-24.533 2.741 7.348 4.272 15.427 6.634 22.965-2.496.566-5.104.8-7.64 1.139z"/><path d="M616.175 920.905c2.468-.991 5.882-1.949 7.958-3.55l-.664.25c-6.781 2.482-21.42 4.455-26.541 7.813l-.329.027c-5.189-.821-22.94 6.562-25.497 5.097-1.715-.983-2.965-1.553-4.973-1.023-.934.246-.603.023-1.059.579-2.466 3.007-7.435 2.724-11.009 4.26-1.226-.261-3.694-1.132-4.854-.994-4.117.492-2.871 2.895-9.917 1.948l-.639.664-.423-.496-.011-.754c-1.135-.053-1.195-.238-2.17.434a9.8 9.8 0 0 1-1.991 1.091 64 64 0 0 0-1.37-1.344l-.816.342q.07.24.137.482c.179.67.133.396.156 1.055-.99-.331-1.254-.733-1.951-1.481-1.224-.028-1.602.327-2.573.962-3.002 1.966-7.672 1.629-11.161 1.94-15.865 1.417-31.803 2.434-47.726.797-3.139-.323-12.897-2.637-15.251-.994-3.12-1.21-4.648-1.343-8.018-.764-.352-.104-.897-.274-1.242-.337-1.235-.225-1.382-.002-2.396.666-11.791.768-41.513-7.302-53.566-10.828a365.3 365.3 0 0 1-83.873-37.144c-48.849-29.963-78.332-61.535-102.995-113.277-4.578-9.606-9.278-19.342-12.974-29.324-5.109-13.799-9.243-27.954-13.91-41.906a978 978 0 0 0-23.311-61.793c-4.851-11.555-9.797-23.282-15.811-34.289-14.798.077-34.38 2.463-48.48.723-2.382-.293-4.753-.692-6.3-2.67-.12-1.23-.152-1.764.479-2.844 1.271-.855 2.685-1.189 4.187-1.404 8.394-1.202 17.18-1.044 25.649-1.484 11.226-.583 22.43-1.547 33.664-2.018a49286 49286 0 0 1 584.047-17.04l130.456-3.145 39.909-.938c10.703-.287 28.725-1.391 38.738.451 1.208.223 2.202.713 2.83 1.829.647 1.15.471 2.246.216 3.462-4.407 4.993-50.052 1.574-58.015 4.945-1.804.763-2.547 2.787-3.164 4.526-3.768 10.612-6.393 21.864-9.86 32.616-9.239 28.646-19.366 57.157-31.789 84.593-34.017 75.124-80.778 138.746-153.362 180.416-21.545 12.369-44.139 21.969-67.349 30.706zM189.79 607.693c-6.375-.48-34.493-.364-38.243 1.671.515 6.385 10.403 26.366 13.433 34.397 6.479 17.167 11.708 34.722 17.83 52.002 10.017 28.272 21.885 56.486 36.134 82.883 34.342 63.624 83.251 103.756 150.895 128.622 9.919 3.646 20.068 6.552 30.189 9.571 4.247 2.963 8.434 6.008 13.868 5.535.616-.866.37-.376.693-1.49.556.885.657 1.334 1.606 1.826.489-.553.907-1.07 1.336-1.664.144.132.284.269.433.395.632.535 1.063.76 1.908.643.201-.028.4-.074.601-.103 3.931-.566 8.159 1.154 11.696 2.708l-.154.206c.529.206 1.53.398 1.992.705.235.237.476.468.705.711 1.509 1.599 1.664 3.284 1.702 5.354.004.244.038.486.057.729l.787-.491c2.487-1.527 3.991-2.178 6.974-2.143.579-1.185.512-.568.196-1.853l.214.182 1.945.211c-.013.952.026.49-.108 1.386l2.513-.581c1.351-.323 2.076-.323 3.419.031 1.497 1.455 2.196 2.454 4.33 2.865l.913-.392.279-1.985c.881-.659 1.675-1.011 2.824-.776.246.05 1.187.43 1.395.504 2.214.786 5.371.177 7.446-.844l.619-.214-.044.009.646.034-.961 1.649.676.534c2.92.543 9.022 1.429 11.822.523-.388-.617-.508-.82-.612-1.567 5.74-.484 11.91.207 17.686.355 6.059.155 12.108-.177 18.153-.581 58.54-3.914 109.937-17.134 161.199-46.071 106.96-60.38 158.649-182.337 190.165-295.202-7.041.076-45.41-.091-48.545 2.717-2.063 1.847-14.047 34.065-16.385 39.69-32.4 77.957-78.139 155.142-153.383 198.397-51.953 29.866-109.073 40.355-168.445 38.645-3.893-.112-7.797.341-11.677.153-19.16-.931-39.502-4.612-58.01-9.657-90.38-24.64-148.343-88.664-187.568-171.231-8.523-17.94-15.786-36.456-23.763-54.644-3.579-8.16-6.956-16.612-11.381-24.354m617.109-18.465c-21.97.602-44.301.171-66.202 1.668-8.777 15.352-16.738 31.02-26.369 45.906-27.962 43.223-70.982 92.904-116.176 118.439a184 184 0 0 1-42.411 17.133c-45.163 12.31-98.858 6.024-139.546-17.503-46.873-27.104-77.984-71.496-109.083-114.489-8.237-11.386-16.032-25.771-25.995-35.536-14.799.339-29.576 1.117-44.369 1.565-8.67.262-17.663-.071-26.279.813-1.71.175-3.549.372-4.999 1.316-1.507 7.564 17.64 48.86 21.929 58.64 8.047 17.842 16.567 35.944 26.794 52.653 32.219 52.638 80.741 98.657 139.014 120.653 71.401 26.951 163.669 22.157 232.918-9.24 95.166-43.147 149.132-144.799 184.245-237.988.339-.898.488-1.687.605-2.633-.35-.684-.307-1.039-1.097-1.283-1.045-.322-1.906-.192-2.979-.114m-90.969 2.001-271.076 8.156q-73.994 3.06-148.018 5.271c4.324 8.104 12.306 17.058 17.804 24.715 19.283 26.85 37.985 54.467 61.063 78.279 38.055 38.552 75.891 61.244 131.545 61.404 7.996.023 15.918-1.023 23.787-2.359 5.138-.872 10.124-2.404 15.363-2.129 6.376.335 13.18-2.143 19.121-4.233 27.751-9.764 51.517-26.468 73.016-46.301a452.8 452.8 0 0 0 78.912-97.058c4.851-7.976 10.554-16.667 13.171-25.675-4.898-.183-9.788-.121-14.688-.07M461.565 934.183c3.104 1.694 8.517 2.197 11.945 1.598-2.376-1.618-9.179-2.111-11.945-1.598m28.788 1.856-2.807 2.496c.933-.046 1.302-.411 2.106-.856.304-.168.618-.318.929-.473 1.361-.161 3.254-.108 4.332-.917-1.602-.375-2.923-.354-4.56-.25"/><path fill="#FEFEFE" d="M400.028 916.839c-10.121-3.019-20.27-5.925-30.189-9.571-67.644-24.866-116.553-64.998-150.895-128.622-14.249-26.397-26.117-54.611-36.134-82.883-6.122-17.28-11.351-34.835-17.83-52.002-3.03-8.031-12.918-28.012-13.433-34.397 3.75-2.035 31.868-2.151 38.243-1.671 4.425 7.742 7.802 16.194 11.381 24.354 7.977 18.188 15.24 36.704 23.763 54.644 39.225 82.567 97.188 146.591 187.568 171.231 18.508 5.045 38.85 8.726 58.01 9.657 3.88.188 7.784-.265 11.677-.153 59.372 1.71 116.492-8.779 168.445-38.645 75.244-43.255 120.983-120.44 153.383-198.397 2.338-5.625 14.322-37.843 16.385-39.69 3.135-2.808 41.504-2.641 48.545-2.717-31.516 112.865-83.205 234.822-190.165 295.202-51.262 28.937-102.659 42.157-161.199 46.071-6.045.404-12.094.736-18.153.581-5.776-.148-11.946-.839-17.686-.355.104.747.224.95.612 1.567-2.8.906-8.902.02-11.822-.523l-.676-.534.961-1.649-.646-.034.044-.009-.619.214c-5.128-1.895-15.591-2.824-20.93-1.767l.625 1.237-.765.292c-1.338-.567-1.383-.89-2.151-2.153l-.681.167-1.054 1.805-.214-.182c-2.754-2.455-7.142-1.204-10.421-2.307-.462-.307-1.463-.499-1.992-.705l.154-.206c-3.537-1.554-7.765-3.274-11.696-2.708-.201.029-.4.075-.601.103-.845.117-1.276-.108-1.908-.643-.149-.126-.289-.263-.433-.395a21 21 0 0 1-1.336 1.664c-.949-.492-1.05-.941-1.606-1.826-3.59-1.89-10.565-4.042-14.561-4.045"/><path fill="#FEFEFE" d="M740.697 590.896c21.901-1.497 44.232-1.066 66.202-1.668 1.073-.078 1.934-.208 2.979.114.79.244.747.599 1.097 1.283-.117.946-.266 1.735-.605 2.633-35.113 93.189-89.079 194.841-184.245 237.988-69.249 31.397-161.517 36.191-232.918 9.24-58.273-21.996-106.795-68.015-139.014-120.653-10.227-16.709-18.747-34.811-26.794-52.653-4.289-9.78-23.436-51.076-21.929-58.64 1.45-.944 3.289-1.141 4.999-1.316 8.616-.884 17.609-.551 26.279-.813 14.793-.448 29.57-1.226 44.369-1.565 9.963 9.765 17.758 24.15 25.995 35.536 31.099 42.993 62.21 87.385 109.083 114.489 40.688 23.527 94.383 29.813 139.546 17.503a184 184 0 0 0 42.411-17.133c45.194-25.535 88.214-75.216 116.176-118.439 9.631-14.886 17.592-30.554 26.369-45.906m26.594 27.255c-.252 1.744-.44 2.949.146 4.635.742.865 1.303 1.475 2.509 1.583.455.041.886-.038 1.331-.097.421-1.171.969-2.196.551-3.44-1.363-1.19-3.046-1.626-4.537-2.681"/><path fill="#FEFEFE" d="M296.836 604.656q74.024-2.211 148.018-5.271l271.076-8.156c4.9-.051 9.79-.113 14.688.07-2.617 9.008-8.32 17.699-13.171 25.675a452.8 452.8 0 0 1-78.912 97.058c-21.499 19.833-45.265 36.537-73.016 46.301-5.941 2.09-12.745 4.568-19.121 4.233-5.239-.275-10.225 1.257-15.363 2.129-7.869 1.336-15.791 2.382-23.787 2.359-55.654-.16-93.49-22.852-131.545-61.404-23.078-23.812-41.78-51.429-61.063-78.279-5.498-7.657-13.48-16.611-17.804-24.715"/><path d="M771.277 624.272c-.445.059-.876.138-1.331.097-1.206-.108-1.767-.718-2.509-1.583-.586-1.686-.398-2.891-.146-4.635 1.491 1.055 3.174 1.491 4.537 2.681.418 1.244-.13 2.269-.551 3.44"/><path fill="#DEDEDD" d="M400.028 916.839c3.996.003 10.971 2.155 14.561 4.045-.323 1.114-.077.624-.693 1.49-5.434.473-9.621-2.572-13.868-5.535"/><path fill="#DEDEDD" d="M616.175 920.905c-6.09 1.975-12.206 3.726-18.388 5.387l-.859-.874c5.121-3.358 19.76-5.331 26.541-7.813l.664-.25c-2.076 1.601-5.49 2.559-7.958 3.55"/><path fill="#252525" d="m596.928 925.418.859.874c6.182-1.661 12.298-3.412 18.388-5.387l1.086.833c-10.353 3.638-20.94 6.34-31.6 8.909 3.214-2.174 8.987-1.961 10.938-5.202z"/><path fill="#252525" d="M434.007 925.6c3.279 1.103 7.667-.148 10.421 2.307.316 1.285.383.668-.196 1.853-2.983-.035-4.487.616-6.974 2.143l-.787.491c-.019-.243-.053-.485-.057-.729-.038-2.07-.193-3.755-1.702-5.354-.229-.243-.47-.474-.705-.711"/><path fill="#DEDEDD" d="m444.642 928.089 1.054-1.805.681-.167c.768 1.263.813 1.586 2.151 2.153l.765-.292-.625-1.237c5.339-1.057 15.802-.128 20.93 1.767-2.075 1.021-5.232 1.63-7.446.844-.208-.074-1.149-.454-1.395-.504-1.149-.235-1.943.117-2.824.776l-.279 1.985-.913.392c-2.134-.411-2.833-1.41-4.33-2.865-1.343-.354-2.068-.354-3.419-.031l-2.513.581c.134-.896.095-.434.108-1.386z"/><path fill="#B1B1B1" d="M576.343 932.563c-2.403 1.437-6.025 1.911-8.781 2.234l.315-.589c1.861-.483 6.924-2.335 8.466-1.645"/><path fill="#FEFEFE" d="M473.51 935.781c-3.428.599-8.841.096-11.945-1.598 2.766-.513 9.569-.02 11.945 1.598"/><path fill="#7E7B7A" d="M490.581 937.206c-.311.155-.625.305-.929.473-.804.445-1.173.81-2.106.856l2.807-2.496c1.637-.104 2.958-.125 4.56.25-1.078.809-2.971.756-4.332.917"/><path fill="#FEFEFE" d="M445.483 937.246c3.37-.579 4.898-.446 8.018.764l.156.891-.652.705c-1.725.513-3.453.838-5.195.134-1.324-.536-1.722-1.263-2.327-2.494"/><path fill="#484747" d="M480.31 942.327c-4.928.628-10.968-.189-15.681-1.706 4.697.004 11.353-.189 15.681 1.706"/><path fill="#252525" d="M504.863 941.985c-5.034 1.397-18.378 1.36-23.593.712-.677-.085-.731-.462-1.127-.982 5.066-.569 10.276.097 15.363.131 3.221.022 6.382-.36 9.606-.144z"/></svg>